<svg width="1982" height="670" viewBox="0 0 1982 670" fill="none" xmlns="http://www.w3.org/2000/svg">
<rect x="66.043" y="78.2212" width="519.378" height="519.378" fill="#B4C3F3"/>
<circle cx="347.531" cy="287.679" r="154.923" fill="#FF952F" stroke="black" stroke-width="2.91786"/>
<path d="M232.727 533.507L339.196 349.097L445.665 533.507H232.727Z" fill="#288CA3" stroke="black" stroke-width="2.91786"/>
<path d="M106.157 534.055L236.321 308.604L366.485 534.055H106.157Z" fill="#288CA3" stroke="black" stroke-width="2.91786"/>
<path d="M472.144 216.925L524.843 216.925L551.192 262.563L524.843 308.201L472.144 308.201L445.795 262.563L472.144 216.925Z" fill="white" stroke="black" stroke-width="2.91786"/>
<path d="M388.477 202.433L457.909 202.433L492.624 262.563L457.909 322.692L388.477 322.692L353.761 262.563L388.477 202.433Z" fill="white" stroke="black" stroke-width="2.91786"/>
<path d="M321.546 216.925L374.244 216.925L400.593 262.563L374.244 308.201L321.546 308.201L295.196 262.563L321.546 216.925Z" fill="white" stroke="black" stroke-width="2.91786"/>
<path d="M794.798 407V333.951C794.798 331.043 794.826 328.049 794.883 324.969C794.997 321.89 795.111 319.067 795.225 316.501C795.397 313.479 795.539 310.542 795.653 307.691C794.456 312.196 793.315 316.473 792.232 320.521C791.775 322.232 791.291 324 790.778 325.825C790.264 327.65 789.751 329.417 789.238 331.128C788.782 332.839 788.325 334.436 787.869 335.918C787.413 337.401 787.014 338.684 786.672 339.767L764.945 407H746.982L725.256 339.767C724.913 338.684 724.514 337.401 724.058 335.918C723.659 334.436 723.203 332.839 722.689 331.128C722.233 329.417 721.749 327.65 721.235 325.825C720.722 324 720.209 322.232 719.696 320.521C718.555 316.473 717.358 312.196 716.103 307.691C716.274 310.998 716.445 314.249 716.616 317.442C716.73 320.179 716.844 323.059 716.958 326.081C717.073 329.104 717.13 331.727 717.13 333.951V407H694.719V286.477H728.506L750.062 353.881C750.632 355.649 751.231 357.816 751.858 360.382C752.542 362.948 753.198 365.429 753.825 367.824C754.51 370.618 755.251 373.526 756.049 376.549C756.848 373.583 757.617 370.732 758.359 367.995C758.701 366.797 759.043 365.571 759.385 364.317C759.727 363.062 760.069 361.836 760.412 360.639C760.754 359.441 761.096 358.301 761.438 357.217C761.78 356.134 762.094 355.164 762.379 354.309L783.592 286.477H817.209V407H794.798ZM862.544 408.711C858.096 408.711 854.104 408.112 850.568 406.914C847.09 405.66 844.125 403.864 841.672 401.526C839.22 399.131 837.339 396.194 836.027 392.715C834.715 389.237 834.06 385.273 834.06 380.825C834.06 375.351 835.001 370.761 836.882 367.054C838.821 363.29 841.444 360.268 844.752 357.987C848.059 355.649 851.937 353.967 856.385 352.94C860.833 351.857 865.566 351.286 870.584 351.229L890.514 350.887V346.183C890.514 342.818 890.201 340.024 889.574 337.8C889.003 335.519 888.148 333.666 887.007 332.24C885.867 330.814 884.441 329.816 882.731 329.246C881.077 328.619 879.166 328.305 877 328.305C875.004 328.305 873.207 328.505 871.611 328.904C870.071 329.303 868.731 330.016 867.59 331.043C866.45 332.012 865.509 333.352 864.768 335.063C864.083 336.717 863.599 338.826 863.313 341.393L838.251 340.195C838.935 336.146 840.19 332.468 842.015 329.161C843.839 325.796 846.349 322.888 849.542 320.436C852.792 317.984 856.756 316.102 861.432 314.79C866.165 313.422 871.696 312.737 878.026 312.737C883.786 312.737 888.918 313.45 893.423 314.876C897.928 316.302 901.748 318.44 904.885 321.291C908.021 324.085 910.416 327.535 912.07 331.641C913.724 335.747 914.551 340.509 914.551 345.926V379.628C914.551 381.795 914.636 383.734 914.807 385.444C915.035 387.155 915.406 388.609 915.919 389.807C916.489 390.947 917.259 391.831 918.229 392.459C919.255 393.029 920.567 393.314 922.163 393.314C923.988 393.314 925.756 393.143 927.467 392.801V405.802C926.041 406.145 924.758 406.458 923.618 406.743C922.477 407.029 921.337 407.257 920.196 407.428C919.056 407.599 917.83 407.741 916.518 407.855C915.263 407.969 913.781 408.026 912.07 408.026C906.025 408.026 901.549 406.544 898.641 403.578C895.789 400.613 894.079 396.251 893.508 390.491H892.995C889.802 396.251 885.696 400.727 880.678 403.921C875.716 407.114 869.672 408.711 862.544 408.711ZM890.514 364.146L878.197 364.317C875.631 364.431 873.179 364.659 870.841 365.001C868.56 365.286 866.535 365.942 864.768 366.968C863.057 367.938 861.688 369.363 860.662 371.245C859.635 373.127 859.122 375.693 859.122 378.944C859.122 383.335 860.12 386.614 862.116 388.78C864.169 390.89 866.878 391.945 870.242 391.945C873.321 391.945 876.116 391.29 878.625 389.978C881.134 388.666 883.244 386.956 884.955 384.846C886.722 382.679 888.091 380.198 889.06 377.404C890.03 374.61 890.514 371.758 890.514 368.85V364.146ZM1026.26 360.296C1026.26 367.311 1025.55 373.783 1024.12 379.713C1022.76 385.644 1020.62 390.748 1017.71 395.025C1014.8 399.302 1011.09 402.666 1006.59 405.118C1002.14 407.513 996.866 408.711 990.765 408.711C988.027 408.711 985.29 408.426 982.553 407.855C979.873 407.285 977.307 406.373 974.855 405.118C972.403 403.807 970.122 402.124 968.012 400.071C965.959 397.962 964.191 395.367 962.708 392.288H962.195C962.252 392.573 962.309 393.285 962.366 394.426C962.423 395.566 962.48 396.907 962.537 398.446C962.594 399.929 962.623 401.526 962.623 403.236C962.68 404.89 962.708 406.43 962.708 407.855V443.354H938.672V335.747C938.672 331.014 938.587 326.794 938.416 323.088C938.302 319.381 938.159 316.501 937.988 314.448H961.34C961.454 314.847 961.568 315.617 961.682 316.758C961.853 317.898 961.967 319.21 962.024 320.692C962.138 322.175 962.224 323.715 962.281 325.311C962.338 326.908 962.366 328.305 962.366 329.503H962.708C965.617 323.401 969.608 319.039 974.684 316.416C979.759 313.792 985.632 312.481 992.304 312.481C998.178 312.481 1003.25 313.678 1007.53 316.073C1011.81 318.468 1015.31 321.776 1018.05 325.996C1020.85 330.216 1022.9 335.262 1024.21 341.136C1025.58 346.953 1026.26 353.339 1026.26 360.296ZM1001.2 360.296C1001.2 349.747 999.604 341.934 996.41 336.859C993.217 331.727 988.455 329.161 982.125 329.161C979.73 329.161 977.335 329.674 974.94 330.7C972.602 331.67 970.492 333.381 968.61 335.833C966.786 338.228 965.274 341.478 964.077 345.584C962.936 349.633 962.366 354.765 962.366 360.981C962.366 367.025 962.936 372.072 964.077 376.121C965.217 380.113 966.7 383.306 968.525 385.701C970.407 388.096 972.517 389.807 974.855 390.833C977.193 391.803 979.559 392.288 981.954 392.288C985.034 392.288 987.771 391.689 990.166 390.491C992.561 389.237 994.557 387.326 996.154 384.76C997.807 382.137 999.062 378.801 999.917 374.752C1000.77 370.703 1001.2 365.885 1001.2 360.296ZM1099.65 305.98V407H1074.42V305.98H1035.5V286.477H1138.66V305.98H1099.65ZM1176.55 332.924C1179.8 325.853 1183.88 320.721 1188.78 317.528C1193.69 314.334 1199.53 312.737 1206.32 312.737C1211.91 312.737 1216.61 313.65 1220.43 315.475C1224.31 317.299 1227.45 319.809 1229.84 323.002C1232.29 326.195 1234.06 329.959 1235.15 334.293C1236.23 338.627 1236.77 343.303 1236.77 348.321V407H1212.82V355.164C1212.82 351.572 1212.54 348.293 1211.97 345.327C1211.39 342.305 1210.45 339.739 1209.14 337.629C1207.83 335.462 1206.12 333.78 1204.01 332.582C1201.9 331.385 1199.33 330.786 1196.31 330.786C1193.4 330.786 1190.75 331.442 1188.36 332.753C1186.02 334.008 1183.99 335.833 1182.28 338.228C1180.57 340.566 1179.23 343.388 1178.26 346.696C1177.35 349.946 1176.89 353.539 1176.89 357.474V407H1152.86V280.062H1176.89V314.705C1176.89 316.53 1176.87 318.383 1176.81 320.265C1176.75 322.09 1176.67 323.829 1176.55 325.483C1176.5 327.079 1176.44 328.533 1176.38 329.845C1176.32 331.157 1176.27 332.183 1176.21 332.924H1176.55ZM1297.85 408.711C1291.17 408.711 1285.16 407.741 1279.8 405.802C1274.49 403.807 1269.96 400.813 1266.2 396.821C1262.43 392.772 1259.55 387.726 1257.56 381.681C1255.56 375.579 1254.56 368.451 1254.56 360.296C1254.56 351.458 1255.73 344.016 1258.07 337.971C1260.47 331.926 1263.66 327.051 1267.65 323.344C1271.7 319.58 1276.35 316.872 1281.59 315.218C1286.84 313.564 1292.37 312.737 1298.19 312.737C1305.49 312.737 1311.7 314.021 1316.83 316.587C1322.02 319.096 1326.27 322.631 1329.58 327.193C1332.89 331.755 1335.31 337.23 1336.85 343.617C1338.39 349.946 1339.16 356.96 1339.16 364.659V365.343H1279.8C1279.8 369.221 1280.14 372.842 1280.82 376.206C1281.51 379.514 1282.62 382.394 1284.16 384.846C1285.7 387.241 1287.69 389.151 1290.15 390.577C1292.6 391.945 1295.56 392.63 1299.04 392.63C1303.26 392.63 1306.71 391.746 1309.39 389.978C1312.07 388.153 1313.98 385.359 1315.12 381.595L1337.79 383.563C1336.76 386.186 1335.31 388.98 1333.43 391.945C1331.6 394.911 1329.15 397.648 1326.07 400.157C1322.99 402.609 1319.14 404.662 1314.52 406.316C1309.96 407.912 1304.4 408.711 1297.85 408.711ZM1297.85 327.878C1295.39 327.878 1293.08 328.305 1290.92 329.161C1288.81 329.959 1286.95 331.271 1285.36 333.095C1283.82 334.863 1282.56 337.173 1281.59 340.024C1280.62 342.875 1280.08 346.297 1279.97 350.288H1315.89C1315.44 342.818 1313.64 337.23 1310.5 333.523C1307.37 329.759 1303.15 327.878 1297.85 327.878ZM1413.24 388.866C1417.97 388.866 1422.05 388.21 1425.47 386.899C1428.95 385.53 1431.94 383.762 1434.45 381.595C1437.01 379.428 1439.12 376.976 1440.78 374.239C1442.49 371.502 1443.89 368.736 1444.97 365.942L1466.95 374.239C1465.19 378.573 1462.88 382.821 1460.02 386.984C1457.17 391.147 1453.61 394.825 1449.33 398.019C1445.06 401.212 1439.95 403.807 1434.02 405.802C1428.15 407.741 1421.22 408.711 1413.24 408.711C1402.8 408.711 1393.76 407.171 1386.12 404.092C1378.48 400.955 1372.15 396.621 1367.13 391.09C1362.17 385.502 1358.46 378.887 1356.01 371.245C1353.62 363.604 1352.42 355.25 1352.42 346.183C1352.42 336.774 1353.62 328.277 1356.01 320.692C1358.46 313.108 1362.14 306.664 1367.05 301.361C1371.95 296.001 1378.14 291.895 1385.61 289.043C1393.13 286.135 1401.97 284.681 1412.12 284.681C1419.99 284.681 1426.86 285.508 1432.74 287.162C1438.67 288.815 1443.77 291.153 1448.05 294.176C1452.38 297.141 1455.95 300.677 1458.74 304.782C1461.59 308.831 1463.82 313.308 1465.41 318.212L1443.17 324.285C1442.38 321.719 1441.15 319.267 1439.5 316.929C1437.84 314.534 1435.73 312.424 1433.17 310.599C1430.66 308.774 1427.69 307.32 1424.27 306.237C1420.85 305.096 1416.97 304.526 1412.64 304.526C1406.53 304.526 1401.29 305.524 1396.9 307.52C1392.51 309.458 1388.89 312.253 1386.03 315.902C1383.24 319.552 1381.16 323.943 1379.79 329.075C1378.48 334.15 1377.82 339.853 1377.82 346.183C1377.82 352.455 1378.48 358.215 1379.79 363.461C1381.16 368.651 1383.27 373.127 1386.12 376.891C1388.97 380.654 1392.62 383.591 1397.07 385.701C1401.57 387.811 1406.96 388.866 1413.24 388.866ZM1484.06 407V280.062H1508.1V407H1484.06ZM1620.75 360.639C1620.75 367.71 1619.75 374.182 1617.76 380.056C1615.82 385.929 1612.88 391.004 1608.95 395.281C1605.01 399.501 1600.11 402.809 1594.23 405.204C1588.36 407.542 1581.52 408.711 1573.7 408.711C1566.18 408.711 1559.53 407.542 1553.77 405.204C1548.01 402.866 1543.17 399.587 1539.23 395.367C1535.35 391.147 1532.42 386.1 1530.42 380.227C1528.43 374.296 1527.43 367.767 1527.43 360.639C1527.43 353.739 1528.37 347.38 1530.25 341.564C1532.19 335.69 1535.1 330.615 1538.98 326.338C1542.85 322.061 1547.73 318.725 1553.6 316.33C1559.48 313.935 1566.35 312.737 1574.22 312.737C1582.54 312.737 1589.64 313.935 1595.52 316.33C1601.39 318.725 1606.18 322.061 1609.89 326.338C1613.65 330.558 1616.39 335.605 1618.1 341.478C1619.87 347.295 1620.75 353.681 1620.75 360.639ZM1595.6 360.639C1595.6 349.633 1593.81 341.649 1590.21 336.688C1586.62 331.727 1581.4 329.246 1574.56 329.246C1567.49 329.246 1562.07 331.755 1558.31 336.774C1554.54 341.792 1552.66 349.747 1552.66 360.639C1552.66 366.17 1553.15 370.932 1554.12 374.923C1555.14 378.915 1556.57 382.194 1558.39 384.76C1560.22 387.326 1562.41 389.237 1564.98 390.491C1567.55 391.689 1570.37 392.288 1573.45 392.288C1576.98 392.288 1580.12 391.689 1582.86 390.491C1585.65 389.237 1587.99 387.326 1589.87 384.76C1591.75 382.194 1593.18 378.915 1594.15 374.923C1595.12 370.932 1595.6 366.17 1595.6 360.639ZM1662.58 314.448V366.37C1662.58 369.962 1662.86 373.27 1663.43 376.292C1664 379.257 1664.94 381.823 1666.26 383.99C1667.57 386.1 1669.25 387.754 1671.3 388.952C1673.41 390.149 1675.98 390.748 1679 390.748C1681.91 390.748 1684.53 390.121 1686.87 388.866C1689.27 387.554 1691.32 385.73 1693.03 383.392C1694.74 380.997 1696.05 378.174 1696.96 374.923C1697.93 371.616 1698.42 367.995 1698.42 364.06V314.448H1722.45V386.3C1722.45 388.239 1722.45 390.292 1722.45 392.459C1722.51 394.569 1722.57 396.593 1722.63 398.532C1722.74 400.414 1722.82 402.124 1722.88 403.664C1723 405.147 1723.08 406.259 1723.14 407H1700.21C1700.16 406.316 1700.04 405.232 1699.87 403.75C1699.76 402.21 1699.64 400.528 1699.53 398.703C1699.47 396.878 1699.39 395.053 1699.27 393.228C1699.22 391.404 1699.19 389.864 1699.19 388.609H1698.76C1695.57 395.623 1691.49 400.727 1686.53 403.921C1681.62 407.114 1675.78 408.711 1668.99 408.711C1663.46 408.711 1658.76 407.798 1654.88 405.974C1651 404.149 1647.84 401.668 1645.38 398.532C1642.99 395.338 1641.25 391.575 1640.17 387.241C1639.08 382.907 1638.54 378.231 1638.54 373.213V314.448H1662.58ZM1806.97 407C1806.85 406.544 1806.71 405.745 1806.54 404.605C1806.42 403.407 1806.28 402.067 1806.11 400.585C1806 399.102 1805.88 397.591 1805.77 396.051C1805.71 394.511 1805.68 393.143 1805.68 391.945H1805.34C1802.55 397.933 1798.64 402.238 1793.62 404.862C1788.66 407.428 1782.7 408.711 1775.74 408.711C1769.93 408.711 1764.88 407.513 1760.6 405.118C1756.38 402.723 1752.88 399.387 1750.08 395.11C1747.35 390.833 1745.29 385.787 1743.92 379.97C1742.61 374.096 1741.96 367.71 1741.96 360.81C1741.96 353.796 1742.64 347.352 1744.01 341.478C1745.44 335.605 1747.6 330.558 1750.51 326.338C1753.42 322.061 1757.1 318.725 1761.54 316.33C1766.05 313.935 1771.38 312.737 1777.54 312.737C1780.56 312.737 1783.47 313.051 1786.27 313.678C1789.06 314.306 1791.65 315.275 1794.05 316.587C1796.44 317.898 1798.61 319.58 1800.55 321.633C1802.49 323.686 1804.14 326.167 1805.51 329.075H1805.68C1805.68 328.505 1805.65 327.678 1805.6 326.595C1805.6 325.454 1805.6 324.171 1805.6 322.745C1805.6 321.32 1805.57 319.837 1805.51 318.297C1805.51 316.758 1805.51 315.275 1805.51 313.849V280.062H1829.55V386.813C1829.55 391.318 1829.63 395.338 1829.8 398.874C1829.98 402.352 1830.12 405.061 1830.23 407H1806.97ZM1805.85 360.211C1805.85 354.109 1805.28 349.062 1804.14 345.071C1803 341.022 1801.49 337.829 1799.61 335.49C1797.78 333.095 1795.67 331.442 1793.28 330.529C1790.94 329.56 1788.55 329.075 1786.09 329.075C1783.01 329.075 1780.28 329.674 1777.88 330.871C1775.54 332.069 1773.55 333.951 1771.89 336.517C1770.3 339.083 1769.07 342.362 1768.22 346.354C1767.42 350.346 1767.02 355.164 1767.02 360.81C1767.02 381.795 1773.32 392.288 1785.92 392.288C1788.32 392.288 1790.71 391.774 1793.11 390.748C1795.5 389.721 1797.64 387.982 1799.52 385.53C1801.41 383.078 1802.92 379.799 1804.06 375.693C1805.25 371.53 1805.85 366.37 1805.85 360.211ZM1932.11 379.97C1932.11 384.418 1931.17 388.41 1929.28 391.945C1927.46 395.481 1924.78 398.503 1921.24 401.012C1917.71 403.464 1913.37 405.375 1908.24 406.743C1903.11 408.055 1897.26 408.711 1890.71 408.711C1884.83 408.711 1879.53 408.283 1874.8 407.428C1870.06 406.572 1865.9 405.175 1862.31 403.236C1858.77 401.24 1855.81 398.674 1853.41 395.538C1851.02 392.402 1849.22 388.524 1848.02 383.905L1869.15 380.74C1869.84 383.306 1870.78 385.387 1871.97 386.984C1873.17 388.581 1874.65 389.807 1876.42 390.662C1878.19 391.518 1880.24 392.088 1882.58 392.373C1884.98 392.658 1887.68 392.801 1890.71 392.801C1893.44 392.801 1895.98 392.658 1898.32 392.373C1900.71 392.031 1902.77 391.489 1904.48 390.748C1906.25 389.949 1907.61 388.866 1908.58 387.497C1909.55 386.072 1910.04 384.304 1910.04 382.194C1910.04 379.799 1909.33 377.917 1907.9 376.549C1906.53 375.123 1904.62 373.982 1902.17 373.127C1899.77 372.215 1896.92 371.445 1893.62 370.818C1890.36 370.133 1886.89 369.363 1883.18 368.508C1879.3 367.653 1875.48 366.626 1871.72 365.429C1867.95 364.231 1864.59 362.606 1861.62 360.553C1858.66 358.5 1856.26 355.905 1854.44 352.769C1852.61 349.576 1851.7 345.555 1851.7 340.708C1851.7 336.317 1852.56 332.411 1854.27 328.99C1855.98 325.511 1858.49 322.574 1861.8 320.179C1865.1 317.727 1869.18 315.874 1874.03 314.619C1878.93 313.308 1884.55 312.652 1890.88 312.652C1895.9 312.652 1900.57 313.137 1904.91 314.106C1909.24 315.018 1913.12 316.501 1916.54 318.554C1919.96 320.55 1922.81 323.116 1925.09 326.252C1927.43 329.389 1929.06 333.181 1929.97 337.629L1908.67 339.853C1908.27 337.629 1907.56 335.804 1906.53 334.378C1905.5 332.896 1904.22 331.727 1902.68 330.871C1901.2 330.016 1899.46 329.446 1897.46 329.161C1895.47 328.819 1893.27 328.647 1890.88 328.647C1885.18 328.647 1880.9 329.389 1878.05 330.871C1875.2 332.297 1873.77 334.721 1873.77 338.142C1873.77 340.252 1874.34 341.934 1875.48 343.189C1876.68 344.443 1878.33 345.498 1880.44 346.354C1882.61 347.152 1885.15 347.865 1888.06 348.492C1891.02 349.062 1894.24 349.775 1897.72 350.631C1902 351.543 1906.19 352.627 1910.3 353.881C1914.46 355.079 1918.14 356.761 1921.33 358.928C1924.58 361.038 1927.17 363.775 1929.11 367.139C1931.11 370.504 1932.11 374.781 1932.11 379.97Z" fill="#024D5F"/>
</svg>
