<svg width="150" height="150" viewBox="0 0 150 150" fill="none" xmlns="http://www.w3.org/2000/svg">
<path d="M150 0H0V150H150V0Z" fill="#B4C3F3"/>
<path d="M80.5752 105.851C105.443 105.851 125.603 86.2635 125.603 62.1011C125.603 37.9386 105.443 18.3511 80.5752 18.3511C55.7073 18.3511 35.5479 37.9386 35.5479 62.1011C35.5479 86.2635 55.7073 105.851 80.5752 105.851Z" fill="#FF952F" stroke="black" stroke-width="0.833333"/>
<path d="M46.9268 131.36L78.1684 78.7832L109.41 131.36H46.9268Z" fill="#288CA3" stroke="black" stroke-width="0.833333"/>
<path d="M10.3721 131.514L48.4571 67.4202L86.5421 131.514H10.3721Z" fill="#288CA3" stroke="black" stroke-width="0.833333"/>
<path d="M116.4 41.9702H131.948L139.722 55.0532L131.948 68.1362H116.4L108.626 55.0532L116.4 41.9702Z" fill="white" stroke="black" stroke-width="0.833333"/>
<path d="M92.236 37.9038H112.617L122.807 55.0533L112.617 72.2027H92.236L82.0459 55.0533L92.236 37.9038Z" fill="white" stroke="black" stroke-width="0.833333"/>
<path d="M72.9058 41.9702H88.4541L96.2281 55.0532L88.4541 68.1362H72.9058L65.1318 55.0532L72.9058 41.9702Z" fill="white" stroke="black" stroke-width="0.833333"/>
</svg>
