<svg viewBox="-150 -150 300 300" width="400" height="400"><rect width="100%" height="100%" fill="#bdfde2" transform="translate(-150, -150)"></rect><g fill="#bdfde2"><circle fill="#34fcfc" transform="translate(0,0)" r="147.2222222222222"></circle><circle fill="#83c3fe" transform="translate(-44.37909312522001,0)" r="100.06535131922442"></circle><circle fill="white" pointer-events="none" transform="translate(101.4542402081133,0)" r="42.990204236331124"></circle><circle fill="white" pointer-events="none" transform="translate(71.35642267641856,75.05978292075167)" r="35.101354772349005"></circle><circle fill="white" pointer-events="none" transform="translate(71.35642267641856,-75.05978292075166)" r="35.101354772349005"></circle><circle fill="white" pointer-events="none" transform="translate(19.61183034659723,-110.46782293372236)" r="24.82040598836276"></circle><circle fill="white" pointer-events="none" transform="translate(22.05916599019494,100.40232250910128)" r="17.550677386174502"></circle><circle fill="white" pointer-events="none" transform="translate(-24.76429586962027,-118.7852194851292)" r="17.550677386174502"></circle><circle fill="white" pointer-events="none" transform="translate(-80.86933678645791,0)" r="60.79732988020875"></circle><circle fill="white" pointer-events="none" transform="translate(17.80712564387761,0)" r="35.101354772349005"></circle><circle fill="white" pointer-events="none" transform="translate(-11.858051814405542,55.237753206553435)" r="24.82040598836276"></circle><circle fill="white" pointer-events="none" transform="translate(-11.858051814405542,-55.237753206553435)" r="24.82040598836276"></circle><circle fill="white" pointer-events="none" transform="translate(-52.03760603765167,-75.82957405300232)" r="17.550677386174502"></circle></g><g style="font: 10px sans-serif;" pointer-events="none" text-anchor="middle"><text style="fill-opacity: 0; display: none;" transform="translate(0,0)"></text><text style="fill-opacity: 1; display: inline;" transform="translate(0,0)"></text><text style="fill-opacity: 0; display: none;" transform="translate(-44.37909312522001,0)"></text><text style="fill-opacity: 0; display: none;" transform="translate(101.4542402081133,0)"></text><text style="fill-opacity: 0; display: none;" transform="translate(71.35642267641856,75.05978292075167)"></text><text style="fill-opacity: 0; display: none;" transform="translate(71.35642267641856,-75.05978292075166)"></text><text style="fill-opacity: 0; display: none;" transform="translate(19.61183034659723,-110.46782293372236)"></text><text style="fill-opacity: 0; display: none;" transform="translate(22.05916599019494,100.40232250910128)"></text><text style="fill-opacity: 0; display: none;" transform="translate(-24.76429586962027,-118.7852194851292)"></text><text style="fill-opacity: 0; display: none;" transform="translate(-80.86933678645791,0)"></text><text style="fill-opacity: 0; display: none;" transform="translate(17.80712564387761,0)"></text><text style="fill-opacity: 0; display: none;" transform="translate(-11.858051814405542,55.237753206553435)"></text><text style="fill-opacity: 0; display: none;" transform="translate(-11.858051814405542,-55.237753206553435)"></text><text style="fill-opacity: 0; display: none;" transform="translate(-52.03760603765167,-75.82957405300232)"></text></g></svg>