<svg width="548" height="548" viewBox="0 0 548 548" fill="none" xmlns="https://www.w3.org/2000/svg">
<path d="M288.639 282.475L288.206 281.725L287.773 282.475L246.268 354.365L180.095 239.75L179.662 239L179.229 239.75L148.793 292.466C138.353 270.854 132.5 246.61 132.5 221C132.5 130.149 206.149 56.5 297 56.5C360.155 56.5 414.998 92.0898 442.566 144.308H427.591H427.302L427.158 144.558L425.384 147.63L414.782 129.268L414.638 129.018H414.349H339.314H339.025L338.881 129.268L328.279 147.63L326.505 144.558L326.361 144.308H326.072H268.692H268.404L268.259 144.558L239.569 194.25L239.425 194.5L239.569 194.75L268.259 244.442L268.404 244.692H268.692H326.072H326.361L326.505 244.442L328.279 241.37L338.881 259.732L339.025 259.982H339.314H414.349H414.638L414.782 259.732L425.384 241.37L427.158 244.442L427.302 244.692H427.591H459.806C450.594 308.557 404.695 360.557 344.16 378.64L288.639 282.475ZM179.662 241L245.69 355.365L235.218 373.504C197.714 358.296 167.093 329.655 149.322 293.55L179.662 241ZM236.155 373.881L246.268 356.365L260.779 381.499C252.305 379.595 244.078 377.037 236.155 373.881ZM148.721 294.591C166.622 330.591 197.248 359.149 234.713 374.379L172.771 481.665L172.582 481.993H40.5246L148.721 294.591ZM320.531 482.993L320.198 482.415H403.209H404.075L403.642 481.665L344.674 379.53C405.51 361.261 451.608 308.931 460.817 244.692H484.97H485.259L485.403 244.442L514.093 194.75L514.238 194.5L514.093 194.25L485.403 144.558L485.259 144.308H484.97H443.696C416.041 91.5181 360.727 55.5 297 55.5C205.597 55.5 131.5 129.597 131.5 221C131.5 247.008 137.499 271.615 148.189 293.512L39.2256 482.243L38.7926 482.993H39.6586H319.665H320.531ZM288.206 283.725L343.174 378.931C328.525 383.207 313.03 385.5 297 385.5C285.026 385.5 273.35 384.221 262.102 381.791L246.845 355.365L288.206 283.725ZM262.776 382.957C273.818 385.279 285.267 386.5 297 386.5C313.213 386.5 328.882 384.169 343.689 379.823L402.343 481.415H319.621L262.776 382.957ZM235.649 374.756C243.943 378.068 252.566 380.729 261.458 382.674L318.466 481.415H174.07L235.649 374.756ZM484.682 243.692H460.957C461.974 236.274 462.5 228.698 462.5 221C462.5 193.725 455.902 167.991 444.215 145.308H484.682L513.083 194.5L484.682 243.692ZM427.879 145.308H443.089C454.853 167.966 461.5 193.707 461.5 221C461.5 228.699 460.971 236.275 459.948 243.692H427.879L425.961 240.37L452.3 194.75L452.444 194.5L452.3 194.25L425.961 148.63L427.879 145.308ZM451.289 194.5L425.384 239.37L399.478 194.5L425.384 149.63L451.289 194.5ZM414.06 130.018L424.806 148.63L398.468 194.25L398.323 194.5L398.468 194.75L424.806 240.37L414.06 258.982H339.602L328.857 240.37L355.195 194.75L355.34 194.5L355.195 194.25L328.857 148.63L339.602 130.018H414.06ZM354.185 194.5L328.279 239.37L302.374 194.5L328.279 149.63L354.185 194.5ZM325.784 145.308L327.702 148.63L301.363 194.25L301.219 194.5L301.363 194.75L327.702 240.37L325.784 243.692H268.981L240.58 194.5L268.981 145.308H325.784ZM0.5 0.5H547.5V547.5H0.5V0.5Z" fill="white" stroke="black"/>
</svg>
