<svg width="5185" height="868" viewBox="0 0 5185 868" fill="none" xmlns="http://www.w3.org/2000/svg">
<rect x="110.709" y="141.462" width="547.397" height="547.397" fill="#B4C3F3"/>
<circle cx="407.383" cy="362.219" r="163.281" fill="#FF952F" stroke="black" stroke-width="3.07526"/>
<path d="M286.385 621.309L398.598 426.951L510.811 621.309H286.385Z" fill="#288CA3" stroke="black" stroke-width="3.07526"/>
<path d="M152.987 621.886L290.173 384.273L427.359 621.886H152.987Z" fill="#288CA3" stroke="black" stroke-width="3.07526"/>
<path d="M538.719 287.648L594.26 287.648L622.03 335.748L594.26 383.848L538.719 383.848L510.948 335.748L538.719 287.648Z" fill="white" stroke="black" stroke-width="3.07526"/>
<path d="M450.538 272.375L523.715 272.375L560.304 335.748L523.715 399.121L450.538 399.121L413.949 335.748L450.538 272.375Z" fill="white" stroke="black" stroke-width="3.07526"/>
<path d="M379.996 287.648L435.537 287.648L463.308 335.748L435.537 383.848L379.996 383.848L352.225 335.748L379.996 287.648Z" fill="white" stroke="black" stroke-width="3.07526"/>
<path d="M942.96 331.688V209.864C942.96 205.014 943.008 200.021 943.103 194.885C943.293 189.75 943.483 185.042 943.673 180.763C943.959 175.722 944.196 170.825 944.386 166.07C942.389 173.583 940.487 180.715 938.68 187.467C937.92 190.32 937.111 193.269 936.255 196.312C935.399 199.355 934.544 202.303 933.688 205.156C932.927 208.009 932.166 210.672 931.405 213.145C930.644 215.617 929.979 217.757 929.408 219.564L893.175 331.688H863.218L826.984 219.564C826.414 217.757 825.748 215.617 824.987 213.145C824.322 210.672 823.561 208.009 822.705 205.156C821.944 202.303 821.136 199.355 820.28 196.312C819.424 193.269 818.568 190.32 817.712 187.467C815.81 180.715 813.813 173.583 811.721 166.07C812.006 171.586 812.291 177.006 812.577 182.332C812.767 186.897 812.957 191.699 813.147 196.74C813.337 201.78 813.433 206.155 813.433 209.864V331.688H776.058V130.692H832.405L868.353 243.101C869.304 246.05 870.303 249.663 871.349 253.943C872.49 258.223 873.584 262.359 874.63 266.354C875.771 271.014 877.008 275.864 878.339 280.904C879.67 275.959 880.954 271.204 882.191 266.639C882.761 264.642 883.332 262.597 883.902 260.505C884.473 258.413 885.044 256.368 885.614 254.371C886.185 252.374 886.755 250.472 887.326 248.665C887.897 246.858 888.42 245.241 888.895 243.815L924.273 130.692H980.335V331.688H942.96ZM1055.94 334.541C1048.52 334.541 1041.86 333.542 1035.97 331.545C1030.17 329.453 1025.22 326.457 1021.13 322.558C1017.04 318.564 1013.91 313.666 1011.72 307.865C1009.53 302.064 1008.44 295.455 1008.44 288.037C1008.44 278.907 1010.01 271.251 1013.14 265.07C1016.38 258.793 1020.75 253.753 1026.27 249.949C1031.78 246.05 1038.25 243.244 1045.67 241.532C1053.09 239.725 1060.98 238.774 1069.35 238.679L1102.59 238.109V230.263C1102.59 224.652 1102.06 219.992 1101.02 216.283C1100.07 212.479 1098.64 209.388 1096.74 207.011C1094.84 204.633 1092.46 202.969 1089.61 202.018C1086.85 200.972 1083.66 200.449 1080.05 200.449C1076.72 200.449 1073.72 200.782 1071.06 201.447C1068.49 202.113 1066.26 203.302 1064.36 205.014C1062.45 206.63 1060.89 208.865 1059.65 211.718C1058.51 214.476 1057.7 217.995 1057.22 222.274L1015.43 220.277C1016.57 213.525 1018.66 207.391 1021.7 201.875C1024.75 196.264 1028.93 191.414 1034.26 187.325C1039.68 183.235 1046.29 180.097 1054.09 177.91C1061.98 175.627 1071.2 174.486 1081.76 174.486C1091.36 174.486 1099.92 175.675 1107.44 178.052C1114.95 180.43 1121.32 183.996 1126.55 188.751C1131.78 193.411 1135.78 199.165 1138.53 206.012C1141.29 212.859 1142.67 220.8 1142.67 229.835V286.04C1142.67 289.653 1142.81 292.887 1143.1 295.74C1143.48 298.593 1144.1 301.018 1144.95 303.015C1145.91 304.917 1147.19 306.391 1148.81 307.437C1150.52 308.388 1152.71 308.864 1155.37 308.864C1158.41 308.864 1161.36 308.578 1164.21 308.008V329.691C1161.83 330.261 1159.69 330.785 1157.79 331.26C1155.89 331.736 1153.99 332.116 1152.09 332.401C1150.18 332.687 1148.14 332.924 1145.95 333.115C1143.86 333.305 1141.39 333.4 1138.53 333.4C1128.45 333.4 1120.99 330.927 1116.14 325.982C1111.38 321.037 1108.53 313.761 1107.58 304.156H1106.72C1101.4 313.761 1094.55 321.227 1086.18 326.553C1077.91 331.878 1067.83 334.541 1055.94 334.541ZM1102.59 260.22L1082.05 260.505C1077.77 260.695 1073.68 261.076 1069.78 261.646C1065.97 262.122 1062.6 263.215 1059.65 264.927C1056.8 266.544 1054.51 268.921 1052.8 272.06C1051.09 275.198 1050.23 279.478 1050.23 284.898C1050.23 292.221 1051.9 297.689 1055.23 301.303C1058.65 304.822 1063.17 306.581 1068.78 306.581C1073.91 306.581 1078.57 305.488 1082.76 303.3C1086.94 301.113 1090.46 298.26 1093.31 294.741C1096.26 291.127 1098.55 286.991 1100.16 282.331C1101.78 277.671 1102.59 272.916 1102.59 268.065V260.22ZM1328.97 253.8C1328.97 265.498 1327.79 276.292 1325.41 286.182C1323.13 296.073 1319.56 304.584 1314.71 311.717C1309.86 318.849 1303.68 324.46 1296.16 328.55C1288.75 332.544 1279.95 334.541 1269.77 334.541C1265.21 334.541 1260.64 334.066 1256.08 333.115C1251.61 332.163 1247.33 330.642 1243.24 328.55C1239.15 326.362 1235.35 323.557 1231.83 320.133C1228.41 316.614 1225.46 312.287 1222.98 307.152H1222.13C1222.22 307.627 1222.32 308.816 1222.41 310.718C1222.51 312.62 1222.6 314.855 1222.7 317.423C1222.79 319.895 1222.84 322.558 1222.84 325.411C1222.94 328.169 1222.98 330.737 1222.98 333.115V392.315H1182.9V212.859C1182.9 204.966 1182.76 197.929 1182.47 191.747C1182.28 185.565 1182.04 180.763 1181.76 177.339H1220.7C1220.89 178.005 1221.08 179.289 1221.27 181.191C1221.56 183.093 1221.75 185.28 1221.84 187.753C1222.03 190.225 1222.18 192.793 1222.27 195.456C1222.37 198.119 1222.41 200.449 1222.41 202.446H1222.98C1227.83 192.27 1234.49 184.995 1242.96 180.62C1251.42 176.246 1261.22 174.058 1272.34 174.058C1282.14 174.058 1290.6 176.055 1297.73 180.05C1304.87 184.044 1310.72 189.56 1315.28 196.597C1319.94 203.635 1323.36 212.051 1325.55 221.846C1327.83 231.547 1328.97 242.198 1328.97 253.8ZM1287.18 253.8C1287.18 236.207 1284.51 223.178 1279.19 214.714C1273.86 206.155 1265.92 201.875 1255.37 201.875C1251.37 201.875 1247.38 202.731 1243.38 204.443C1239.48 206.06 1235.97 208.913 1232.83 213.002C1229.78 216.996 1227.26 222.417 1225.27 229.264C1223.37 236.016 1222.41 244.576 1222.41 254.942C1222.41 265.022 1223.37 273.439 1225.27 280.191C1227.17 286.848 1229.64 292.174 1232.68 296.168C1235.82 300.162 1239.34 303.015 1243.24 304.727C1247.14 306.344 1251.09 307.152 1255.08 307.152C1260.22 307.152 1264.78 306.153 1268.78 304.156C1272.77 302.064 1276.1 298.878 1278.76 294.599C1281.52 290.224 1283.61 284.661 1285.04 277.908C1286.46 271.156 1287.18 263.12 1287.18 253.8ZM1451.37 163.217V331.688H1409.29V163.217H1344.38V130.692H1516.42V163.217H1451.37ZM1579.61 208.152C1585.03 196.359 1591.83 187.8 1600.01 182.475C1608.19 177.149 1617.94 174.486 1629.26 174.486C1638.58 174.486 1646.42 176.008 1652.79 179.051C1659.26 182.094 1664.49 186.279 1668.48 191.604C1672.57 196.93 1675.52 203.207 1677.33 210.434C1679.14 217.662 1680.04 225.46 1680.04 233.829V331.688H1640.1V245.241C1640.1 239.25 1639.62 233.782 1638.67 228.836C1637.72 223.796 1636.15 219.516 1633.96 215.998C1631.78 212.384 1628.92 209.578 1625.4 207.581C1621.89 205.584 1617.61 204.586 1612.57 204.586C1607.72 204.586 1603.29 205.679 1599.3 207.867C1595.4 209.959 1592.02 213.002 1589.17 216.996C1586.32 220.895 1584.08 225.603 1582.47 231.119C1580.94 236.54 1580.18 242.531 1580.18 249.093V331.688H1540.1V119.993H1580.18V177.767C1580.18 180.81 1580.14 183.901 1580.04 187.04C1579.95 190.083 1579.8 192.983 1579.61 195.741C1579.52 198.404 1579.42 200.829 1579.33 203.016C1579.23 205.204 1579.14 206.916 1579.04 208.152H1579.61ZM1781.89 334.541C1770.77 334.541 1760.73 332.924 1751.79 329.691C1742.95 326.362 1735.39 321.37 1729.11 314.712C1722.83 307.96 1718.03 299.544 1714.7 289.463C1711.38 279.287 1709.71 267.4 1709.71 253.8C1709.71 239.06 1711.66 226.649 1715.56 216.568C1719.55 206.488 1724.88 198.357 1731.54 192.175C1738.29 185.898 1746.04 181.381 1754.79 178.623C1763.54 175.865 1772.76 174.486 1782.46 174.486C1794.64 174.486 1805 176.626 1813.56 180.905C1822.22 185.09 1829.3 190.986 1834.82 198.594C1840.33 206.202 1844.37 215.332 1846.94 225.983C1849.51 236.54 1850.79 248.237 1850.79 261.076V262.217H1751.79C1751.79 268.684 1752.36 274.723 1753.51 280.333C1754.65 285.849 1756.5 290.652 1759.07 294.741C1761.64 298.736 1764.96 301.921 1769.05 304.299C1773.14 306.581 1778.09 307.723 1783.89 307.723C1790.93 307.723 1796.68 306.248 1801.15 303.3C1805.62 300.257 1808.81 295.597 1810.71 289.321L1848.51 292.602C1846.8 296.976 1844.37 301.636 1841.24 306.581C1838.19 311.527 1834.1 316.091 1828.97 320.276C1823.83 324.365 1817.41 327.789 1809.71 330.547C1802.1 333.21 1792.83 334.541 1781.89 334.541ZM1781.89 199.735C1777.8 199.735 1773.95 200.449 1770.34 201.875C1766.82 203.207 1763.73 205.394 1761.07 208.437C1758.5 211.385 1756.41 215.237 1754.79 219.992C1753.17 224.747 1752.27 230.453 1752.08 237.11H1811.99C1811.23 224.652 1808.24 215.332 1803.01 209.15C1797.77 202.874 1790.74 199.735 1781.89 199.735ZM1974.33 301.446C1982.22 301.446 1989.02 300.352 1994.73 298.165C2000.53 295.882 2005.52 292.934 2009.71 289.321C2013.99 285.707 2017.51 281.617 2020.26 277.053C2023.12 272.488 2025.45 267.875 2027.25 263.215L2063.91 277.053C2060.97 284.28 2057.11 291.365 2052.36 298.308C2047.6 305.25 2041.66 311.384 2034.53 316.71C2027.4 322.035 2018.88 326.362 2008.99 329.691C1999.2 332.924 1987.64 334.541 1974.33 334.541C1956.93 334.541 1941.85 331.973 1929.11 326.838C1916.37 321.607 1905.81 314.38 1897.44 305.155C1889.17 295.835 1882.98 284.803 1878.9 272.06C1874.9 259.316 1872.9 245.384 1872.9 230.263C1872.9 214.571 1874.9 200.401 1878.9 187.753C1882.98 175.104 1889.12 164.358 1897.3 155.514C1905.48 146.574 1915.79 139.727 1928.25 134.972C1940.81 130.122 1955.55 127.697 1972.47 127.697C1985.6 127.697 1997.06 129.076 2006.85 131.833C2016.74 134.591 2025.26 138.49 2032.39 143.531C2039.62 148.476 2045.56 154.372 2050.22 161.22C2054.97 167.972 2058.68 175.437 2061.35 183.616L2024.26 193.744C2022.93 189.465 2020.88 185.375 2018.12 181.476C2015.37 177.482 2011.85 173.963 2007.57 170.92C2003.38 167.877 1998.44 165.452 1992.73 163.645C1987.03 161.743 1980.56 160.792 1973.33 160.792C1963.15 160.792 1954.41 162.456 1947.08 165.784C1939.76 169.018 1933.72 173.678 1928.97 179.764C1924.31 185.851 1920.84 193.174 1918.55 201.733C1916.37 210.197 1915.27 219.707 1915.27 230.263C1915.27 240.724 1916.37 250.329 1918.55 259.078C1920.84 267.733 1924.35 275.198 1929.11 281.475C1933.86 287.751 1939.95 292.649 1947.37 296.168C1954.88 299.687 1963.87 301.446 1974.33 301.446ZM2092.44 331.688V119.993H2132.53V331.688H2092.44ZM2320.4 254.371C2320.4 266.163 2318.74 276.957 2315.41 286.753C2312.18 296.548 2307.28 305.012 2300.72 312.145C2294.15 319.182 2285.98 324.698 2276.18 328.692C2266.38 332.591 2254.97 334.541 2241.94 334.541C2229.39 334.541 2218.31 332.591 2208.71 328.692C2199.1 324.793 2191.02 319.325 2184.45 312.287C2177.99 305.25 2173.09 296.834 2169.76 287.038C2166.43 277.148 2164.77 266.259 2164.77 254.371C2164.77 242.864 2166.34 232.26 2169.48 222.56C2172.71 212.764 2177.56 204.3 2184.03 197.168C2190.49 190.035 2198.62 184.472 2208.42 180.478C2218.22 176.483 2229.68 174.486 2242.8 174.486C2256.68 174.486 2268.52 176.483 2278.32 180.478C2288.11 184.472 2296.1 190.035 2302.28 197.168C2308.56 204.205 2313.13 212.622 2315.98 222.417C2318.93 232.117 2320.4 242.769 2320.4 254.371ZM2278.46 254.371C2278.46 236.016 2275.47 222.702 2269.48 214.429C2263.48 206.155 2254.78 202.018 2243.37 202.018C2231.58 202.018 2222.54 206.202 2216.27 214.571C2209.99 222.94 2206.85 236.207 2206.85 254.371C2206.85 263.596 2207.66 271.537 2209.28 278.194C2210.99 284.851 2213.37 290.319 2216.41 294.599C2219.45 298.878 2223.11 302.064 2227.39 304.156C2231.67 306.153 2236.38 307.152 2241.52 307.152C2247.41 307.152 2252.64 306.153 2257.21 304.156C2261.87 302.064 2265.77 298.878 2268.9 294.599C2272.04 290.319 2274.42 284.851 2276.04 278.194C2277.65 271.537 2278.46 263.596 2278.46 254.371ZM2390.16 177.339V263.929C2390.16 269.92 2390.63 275.436 2391.58 280.476C2392.54 285.421 2394.1 289.701 2396.29 293.315C2398.48 296.834 2401.28 299.591 2404.71 301.589C2408.23 303.586 2412.51 304.584 2417.55 304.584C2422.4 304.584 2426.77 303.538 2430.67 301.446C2434.67 299.259 2438.09 296.215 2440.94 292.316C2443.79 288.322 2445.98 283.614 2447.5 278.194C2449.12 272.678 2449.93 266.639 2449.93 260.077V177.339H2490.01V297.166C2490.01 300.4 2490.01 303.823 2490.01 307.437C2490.11 310.956 2490.2 314.332 2490.3 317.566C2490.49 320.704 2490.63 323.557 2490.73 326.125C2490.92 328.597 2491.06 330.452 2491.16 331.688H2452.92C2452.83 330.547 2452.64 328.74 2452.35 326.267C2452.16 323.7 2451.97 320.894 2451.78 317.851C2451.69 314.808 2451.55 311.764 2451.36 308.721C2451.26 305.678 2451.21 303.11 2451.21 301.018H2450.5C2445.17 312.715 2438.37 321.227 2430.1 326.553C2421.92 331.878 2412.17 334.541 2400.86 334.541C2391.63 334.541 2383.79 333.019 2377.32 329.976C2370.85 326.933 2365.57 322.796 2361.49 317.566C2357.49 312.24 2354.59 305.963 2352.78 298.736C2350.98 291.508 2350.07 283.71 2350.07 275.341V177.339H2390.16ZM2630.95 331.688C2630.76 330.927 2630.53 329.596 2630.24 327.694C2630.05 325.697 2629.81 323.462 2629.53 320.989C2629.34 318.517 2629.15 315.996 2628.96 313.429C2628.86 310.861 2628.81 308.578 2628.81 306.581H2628.24C2623.58 316.567 2617.07 323.747 2608.7 328.122C2600.43 332.401 2590.49 334.541 2578.89 334.541C2569.19 334.541 2560.77 332.544 2553.64 328.55C2546.6 324.555 2540.75 318.992 2536.09 311.859C2531.53 304.727 2528.1 296.31 2525.82 286.61C2523.63 276.815 2522.54 266.163 2522.54 254.656C2522.54 242.959 2523.68 232.212 2525.96 222.417C2528.34 212.622 2531.95 204.205 2536.8 197.168C2541.65 190.035 2547.79 184.472 2555.21 180.478C2562.72 176.483 2571.61 174.486 2581.88 174.486C2586.92 174.486 2591.77 175.009 2596.43 176.055C2601.09 177.101 2605.42 178.718 2609.41 180.905C2613.41 183.093 2617.02 185.898 2620.25 189.322C2623.49 192.746 2626.25 196.882 2628.53 201.733H2628.81C2628.81 200.782 2628.77 199.403 2628.67 197.596C2628.67 195.694 2628.67 193.554 2628.67 191.176C2628.67 188.799 2628.62 186.326 2628.53 183.759C2628.53 181.191 2628.53 178.718 2628.53 176.341V119.993H2668.61V298.022C2668.61 305.535 2668.76 312.24 2669.04 318.136C2669.33 323.937 2669.56 328.455 2669.75 331.688H2630.95ZM2629.1 253.658C2629.1 243.482 2628.15 235.065 2626.25 228.408C2624.34 221.656 2621.82 216.331 2618.69 212.431C2615.64 208.437 2612.12 205.679 2608.13 204.158C2604.23 202.541 2600.24 201.733 2596.15 201.733C2591.01 201.733 2586.45 202.731 2582.45 204.728C2578.55 206.725 2575.22 209.864 2572.47 214.143C2569.8 218.423 2567.76 223.891 2566.33 230.548C2565 237.205 2564.34 245.241 2564.34 254.656C2564.34 289.653 2574.84 307.152 2595.86 307.152C2599.86 307.152 2603.85 306.296 2607.84 304.584C2611.84 302.872 2615.4 299.972 2618.54 295.882C2621.68 291.793 2624.2 286.325 2626.1 279.478C2628.1 272.535 2629.1 263.929 2629.1 253.658ZM2839.65 286.61C2839.65 294.028 2838.08 300.685 2834.94 306.581C2831.9 312.478 2827.43 317.518 2821.54 321.702C2815.64 325.792 2808.41 328.978 2799.85 331.26C2791.29 333.447 2781.55 334.541 2770.61 334.541C2760.81 334.541 2751.97 333.828 2744.08 332.401C2736.18 330.975 2729.24 328.645 2723.25 325.411C2717.35 322.083 2712.41 317.803 2708.41 312.573C2704.42 307.342 2701.42 300.875 2699.43 293.172L2734.66 287.894C2735.8 292.174 2737.37 295.645 2739.37 298.308C2741.37 300.97 2743.84 303.015 2746.79 304.442C2749.73 305.868 2753.16 306.819 2757.06 307.295C2761.05 307.77 2765.57 308.008 2770.61 308.008C2775.17 308.008 2779.41 307.77 2783.31 307.295C2787.3 306.724 2790.72 305.821 2793.58 304.584C2796.52 303.253 2798.81 301.446 2800.42 299.163C2802.04 296.786 2802.85 293.838 2802.85 290.319C2802.85 286.325 2801.66 283.187 2799.28 280.904C2797 278.527 2793.81 276.625 2789.72 275.198C2785.73 273.676 2780.98 272.393 2775.46 271.346C2770.04 270.205 2764.24 268.921 2758.06 267.495C2751.59 266.068 2745.22 264.357 2738.94 262.359C2732.66 260.362 2727.05 257.652 2722.11 254.228C2717.16 250.805 2713.17 246.478 2710.13 241.247C2707.08 235.921 2705.56 229.217 2705.56 221.133C2705.56 213.81 2706.99 207.296 2709.84 201.59C2712.69 195.789 2716.88 190.891 2722.39 186.897C2727.91 182.808 2734.71 179.717 2742.79 177.625C2750.97 175.437 2760.34 174.344 2770.89 174.344C2779.26 174.344 2787.06 175.152 2794.29 176.769C2801.52 178.29 2807.98 180.763 2813.69 184.186C2819.4 187.515 2824.15 191.795 2827.96 197.025C2831.85 202.256 2834.56 208.58 2836.09 215.998L2800.57 219.707C2799.9 215.998 2798.71 212.955 2797 210.577C2795.29 208.104 2793.15 206.155 2790.58 204.728C2788.11 203.302 2785.21 202.351 2781.88 201.875C2778.55 201.305 2774.89 201.019 2770.89 201.019C2761.38 201.019 2754.25 202.256 2749.5 204.728C2744.74 207.106 2742.36 211.148 2742.36 216.854C2742.36 220.372 2743.32 223.178 2745.22 225.27C2747.21 227.362 2749.97 229.122 2753.49 230.548C2757.1 231.88 2761.34 233.068 2766.19 234.114C2771.13 235.065 2776.51 236.254 2782.31 237.681C2789.44 239.202 2796.43 241.009 2803.28 243.101C2810.22 245.099 2816.35 247.904 2821.68 251.518C2827.1 255.037 2831.43 259.601 2834.66 265.212C2837.99 270.823 2839.65 277.956 2839.65 286.61Z" fill="white"/>
<path d="M763.784 679.498C763.784 671.734 764.819 664.724 766.889 658.466C769.006 652.209 772.135 646.892 776.276 642.516C780.463 638.094 785.639 634.706 791.802 632.354C797.966 629.954 805.117 628.754 813.257 628.754C819.373 628.754 824.737 629.295 829.348 630.378C833.959 631.46 837.958 633.012 841.346 635.035C844.733 637.059 847.603 639.529 849.956 642.446C852.308 645.316 854.308 648.562 855.955 652.185L843.11 655.996C841.887 653.55 840.405 651.338 838.664 649.362C836.97 647.339 834.9 645.622 832.453 644.21C830.007 642.799 827.16 641.717 823.914 640.964C820.714 640.164 817.044 639.764 812.904 639.764C806.882 639.764 801.636 640.705 797.166 642.587C792.743 644.469 789.073 647.151 786.156 650.633C783.239 654.114 781.051 658.302 779.593 663.195C778.181 668.088 777.475 673.522 777.475 679.498C777.475 685.473 778.252 690.954 779.804 695.942C781.357 700.882 783.662 705.163 786.721 708.786C789.779 712.362 793.566 715.161 798.083 717.185C802.647 719.161 807.917 720.149 813.892 720.149C817.797 720.149 821.396 719.819 824.69 719.161C827.983 718.502 830.948 717.655 833.582 716.62C836.264 715.538 838.617 714.362 840.64 713.091C842.663 711.774 844.357 710.456 845.721 709.139V691.213H816.009V679.921H858.142V714.22C855.931 716.479 853.32 718.643 850.309 720.713C847.345 722.737 844.004 724.524 840.287 726.077C836.57 727.63 832.5 728.853 828.078 729.747C823.655 730.641 818.926 731.088 813.892 731.088C805.517 731.088 798.201 729.818 791.943 727.277C785.686 724.689 780.463 721.113 776.276 716.549C772.135 711.939 769.006 706.481 766.889 700.176C764.819 693.871 763.784 686.979 763.784 679.498ZM882.35 729.676V630.236H895.829V729.676H882.35ZM999.01 702.223C999.01 706.41 998.187 710.268 996.54 713.797C994.94 717.326 992.447 720.384 989.059 722.972C985.671 725.512 981.39 727.512 976.214 728.971C971.086 730.382 964.993 731.088 957.935 731.088C945.561 731.088 935.916 728.924 929 724.595C922.083 720.266 917.684 714.009 915.802 705.822L928.859 703.211C929.517 705.799 930.529 708.151 931.893 710.268C933.258 712.386 935.093 714.22 937.398 715.773C939.751 717.279 942.644 718.455 946.079 719.302C949.513 720.149 953.63 720.572 958.429 720.572C962.429 720.572 966.099 720.243 969.439 719.584C972.78 718.878 975.65 717.82 978.049 716.408C980.449 714.997 982.307 713.185 983.625 710.974C984.989 708.716 985.671 706.034 985.671 702.929C985.671 699.682 984.919 697.047 983.413 695.024C981.954 693.001 979.884 691.331 977.202 690.013C974.52 688.696 971.321 687.59 967.604 686.696C963.887 685.802 959.77 684.838 955.254 683.803C952.478 683.191 949.678 682.532 946.855 681.827C944.079 681.074 941.397 680.203 938.81 679.215C936.269 678.18 933.869 676.98 931.611 675.616C929.353 674.252 927.4 672.628 925.753 670.746C924.106 668.817 922.813 666.606 921.872 664.112C920.931 661.572 920.46 658.655 920.46 655.361C920.46 650.656 921.401 646.633 923.283 643.293C925.212 639.905 927.87 637.129 931.258 634.965C934.646 632.801 938.645 631.224 943.256 630.236C947.867 629.248 952.854 628.754 958.218 628.754C964.381 628.754 969.651 629.248 974.026 630.236C978.402 631.177 982.096 632.612 985.107 634.541C988.118 636.47 990.517 638.87 992.305 641.74C994.14 644.563 995.599 647.857 996.681 651.621L983.413 653.95C982.754 651.55 981.79 649.409 980.519 647.527C979.296 645.645 977.673 644.069 975.65 642.799C973.627 641.528 971.156 640.564 968.239 639.905C965.369 639.246 961.982 638.917 958.077 638.917C953.466 638.917 949.584 639.341 946.432 640.187C943.326 640.987 940.809 642.093 938.88 643.504C936.998 644.916 935.634 646.586 934.787 648.515C933.987 650.397 933.587 652.444 933.587 654.655C933.587 657.619 934.316 660.066 935.775 661.995C937.28 663.877 939.304 665.453 941.844 666.724C944.385 667.994 947.326 669.053 950.666 669.899C954.007 670.746 957.559 671.593 961.323 672.44C964.381 673.146 967.416 673.875 970.427 674.628C973.485 675.334 976.402 676.204 979.178 677.239C981.954 678.227 984.542 679.404 986.942 680.768C989.388 682.132 991.506 683.803 993.293 685.779C995.081 687.755 996.469 690.084 997.457 692.766C998.492 695.448 999.01 698.6 999.01 702.223ZM1134.65 660.16C1134.65 664.489 1133.93 668.535 1132.47 672.299C1131.06 676.016 1128.91 679.262 1126.04 682.038C1123.22 684.767 1119.67 686.932 1115.39 688.531C1111.11 690.131 1106.12 690.931 1100.43 690.931H1071.21V729.676H1057.73V630.236H1099.58C1105.46 630.236 1110.59 630.966 1114.96 632.424C1119.34 633.836 1122.99 635.859 1125.9 638.494C1128.82 641.081 1131.01 644.234 1132.47 647.951C1133.93 651.621 1134.65 655.69 1134.65 660.16ZM1121.1 660.301C1121.1 653.997 1119.18 649.221 1115.32 645.975C1111.46 642.681 1105.67 641.034 1097.96 641.034H1071.21V680.274H1098.52C1106.28 680.274 1111.98 678.557 1115.6 675.122C1119.27 671.687 1121.1 666.747 1121.1 660.301ZM1154.13 729.676V630.236H1167.61V718.667H1217.86V729.676H1154.13ZM1305.09 729.676L1293.73 700.6H1248.42L1236.99 729.676H1223.01L1263.6 630.236H1278.91L1318.86 729.676H1305.09ZM1276.93 657.267C1276.18 655.385 1275.45 653.479 1274.75 651.55C1274.09 649.621 1273.5 647.88 1272.98 646.327C1272.46 644.728 1272.02 643.41 1271.64 642.375C1271.31 641.293 1271.12 640.634 1271.08 640.399C1270.98 640.634 1270.77 641.293 1270.44 642.375C1270.11 643.457 1269.66 644.798 1269.1 646.398C1268.58 647.998 1267.97 649.762 1267.27 651.691C1266.61 653.62 1265.92 655.526 1265.22 657.408L1252.51 690.084H1289.71L1276.93 657.267ZM1363.25 688.461V729.676H1349.84V688.461L1311.59 630.236H1326.41L1356.68 677.592L1386.82 630.236H1401.64L1363.25 688.461ZM1412.08 679.498C1412.08 671.734 1413.12 664.724 1415.19 658.466C1417.31 652.209 1420.44 646.892 1424.58 642.516C1428.76 638.094 1433.94 634.706 1440.1 632.354C1446.27 629.954 1453.42 628.754 1461.56 628.754C1467.67 628.754 1473.04 629.295 1477.65 630.378C1482.26 631.46 1486.26 633.012 1489.65 635.035C1493.03 637.059 1495.9 639.529 1498.26 642.446C1500.61 645.316 1502.61 648.562 1504.26 652.185L1491.41 655.996C1490.19 653.55 1488.71 651.338 1486.96 649.362C1485.27 647.339 1483.2 645.622 1480.75 644.21C1478.31 642.799 1475.46 641.717 1472.21 640.964C1469.02 640.164 1465.35 639.764 1461.2 639.764C1455.18 639.764 1449.94 640.705 1445.47 642.587C1441.04 644.469 1437.37 647.151 1434.46 650.633C1431.54 654.114 1429.35 658.302 1427.89 663.195C1426.48 668.088 1425.78 673.522 1425.78 679.498C1425.78 685.473 1426.55 690.954 1428.11 695.942C1429.66 700.882 1431.96 705.163 1435.02 708.786C1438.08 712.362 1441.87 715.161 1446.38 717.185C1450.95 719.161 1456.22 720.149 1462.19 720.149C1466.1 720.149 1469.7 719.819 1472.99 719.161C1476.28 718.502 1479.25 717.655 1481.88 716.62C1484.57 715.538 1486.92 714.362 1488.94 713.091C1490.96 711.774 1492.66 710.456 1494.02 709.139V691.213H1464.31V679.921H1506.44V714.22C1504.23 716.479 1501.62 718.643 1498.61 720.713C1495.65 722.737 1492.3 724.524 1488.59 726.077C1484.87 727.63 1480.8 728.853 1476.38 729.747C1471.96 730.641 1467.23 731.088 1462.19 731.088C1453.82 731.088 1446.5 729.818 1440.24 727.277C1433.99 724.689 1428.76 721.113 1424.58 716.549C1420.44 711.939 1417.31 706.481 1415.19 700.176C1413.12 693.871 1412.08 686.979 1412.08 679.498ZM1599.46 729.676L1573.63 688.39H1542.65V729.676H1529.17V630.236H1575.96C1581.61 630.236 1586.59 630.895 1590.92 632.212C1595.3 633.483 1598.97 635.341 1601.93 637.788C1604.9 640.234 1607.15 643.222 1608.71 646.751C1610.26 650.28 1611.04 654.255 1611.04 658.678C1611.04 661.83 1610.56 664.936 1609.62 667.994C1608.73 671.052 1607.29 673.852 1605.32 676.392C1603.34 678.933 1600.83 681.121 1597.77 682.956C1594.71 684.791 1591.04 686.085 1586.76 686.837L1614.99 729.676H1599.46ZM1597.48 658.819C1597.48 655.808 1596.97 653.197 1595.93 650.985C1594.9 648.774 1593.39 646.939 1591.42 645.481C1589.44 643.975 1587.04 642.869 1584.22 642.164C1581.39 641.411 1578.19 641.034 1574.62 641.034H1542.65V677.733H1575.18C1579.04 677.733 1582.38 677.263 1585.2 676.322C1588.03 675.334 1590.33 673.993 1592.12 672.299C1593.96 670.605 1595.3 668.606 1596.14 666.3C1597.04 663.995 1597.48 661.501 1597.48 658.819ZM1727.27 679.498C1727.27 687.261 1726.14 694.318 1723.88 700.67C1721.67 707.022 1718.45 712.456 1714.22 716.973C1709.98 721.49 1704.81 724.971 1698.69 727.418C1692.57 729.865 1685.63 731.088 1677.87 731.088C1669.68 731.088 1662.51 729.818 1656.34 727.277C1650.18 724.689 1645.05 721.113 1640.96 716.549C1636.87 711.939 1633.78 706.481 1631.71 700.176C1629.64 693.871 1628.61 686.979 1628.61 679.498C1628.61 671.734 1629.69 664.724 1631.85 658.466C1634.02 652.209 1637.2 646.892 1641.38 642.516C1645.57 638.094 1650.72 634.706 1656.84 632.354C1663 629.954 1670.06 628.754 1678.01 628.754C1685.92 628.754 1692.93 629.954 1699.04 632.354C1705.21 634.753 1710.36 638.164 1714.5 642.587C1718.69 647.01 1721.86 652.35 1724.03 658.607C1726.19 664.865 1727.27 671.829 1727.27 679.498ZM1713.51 679.498C1713.51 673.522 1712.73 668.088 1711.18 663.195C1709.68 658.302 1707.42 654.114 1704.41 650.633C1701.44 647.151 1697.75 644.469 1693.33 642.587C1688.9 640.705 1683.8 639.764 1678.01 639.764C1672.08 639.764 1666.88 640.705 1662.41 642.587C1657.94 644.469 1654.2 647.151 1651.19 650.633C1648.23 654.114 1645.99 658.302 1644.49 663.195C1643.03 668.088 1642.3 673.522 1642.3 679.498C1642.3 685.473 1643.05 690.954 1644.56 695.942C1646.11 700.882 1648.37 705.163 1651.33 708.786C1654.34 712.362 1658.06 715.161 1662.48 717.185C1666.95 719.161 1672.08 720.149 1677.87 720.149C1684.08 720.149 1689.42 719.137 1693.89 717.114C1698.41 715.091 1702.1 712.291 1704.97 708.716C1707.89 705.093 1710.03 700.788 1711.39 695.8C1712.8 690.813 1713.51 685.379 1713.51 679.498ZM1785.85 731.088C1780.39 731.088 1775.22 730.359 1770.32 728.9C1765.43 727.442 1761.12 725.183 1757.41 722.125C1753.74 719.02 1750.82 715.114 1748.66 710.409C1746.49 705.657 1745.41 700.035 1745.41 693.542V630.236H1758.89V692.413C1758.89 697.447 1759.55 701.729 1760.87 705.257C1762.23 708.739 1764.11 711.586 1766.51 713.797C1768.91 716.008 1771.73 717.632 1774.98 718.667C1778.27 719.655 1781.87 720.149 1785.78 720.149C1789.64 720.149 1793.28 719.631 1796.72 718.596C1800.15 717.561 1803.16 715.914 1805.75 713.656C1808.34 711.397 1810.36 708.457 1811.82 704.834C1813.33 701.164 1814.08 696.718 1814.08 691.495V630.236H1827.49V692.272C1827.49 698.906 1826.38 704.669 1824.17 709.563C1822.01 714.409 1819.04 718.431 1815.28 721.631C1811.52 724.83 1807.09 727.206 1802.01 728.759C1796.98 730.312 1791.59 731.088 1785.85 731.088ZM1915.07 729.676L1861.86 644.987C1861.95 647.292 1862.07 649.574 1862.21 651.832C1862.31 653.761 1862.38 655.808 1862.42 657.972C1862.52 660.09 1862.56 661.972 1862.56 663.618V729.676H1850.57V630.236H1866.23L1920.01 715.491C1919.87 713.185 1919.73 710.88 1919.59 708.575C1919.49 706.598 1919.4 704.458 1919.31 702.152C1919.21 699.8 1919.17 697.565 1919.17 695.448V630.236H1931.3V729.676H1915.07ZM2040.62 678.933C2040.62 687.214 2039.38 694.53 2036.88 700.882C2034.39 707.187 2030.98 712.48 2026.65 716.761C2022.32 720.996 2017.19 724.219 2011.27 726.43C2005.38 728.594 1999.03 729.676 1992.21 729.676H1955.02V630.236H1987.91C1995.57 630.236 2002.63 631.201 2009.08 633.13C2015.57 635.012 2021.15 637.953 2025.8 641.952C2030.46 645.904 2034.08 650.938 2036.67 657.055C2039.31 663.171 2040.62 670.464 2040.62 678.933ZM2027.07 678.933C2027.07 672.205 2026.11 666.465 2024.18 661.713C2022.25 656.914 2019.55 652.985 2016.06 649.927C2012.58 646.869 2008.42 644.634 2003.57 643.222C1998.73 641.764 1993.41 641.034 1987.62 641.034H1968.5V718.878H1990.66C1995.88 718.878 2000.7 718.032 2005.13 716.338C2009.6 714.644 2013.45 712.127 2016.7 708.786C2019.95 705.446 2022.49 701.282 2024.32 696.294C2026.16 691.307 2027.07 685.52 2027.07 678.933ZM2074.78 714.22V726.077C2074.78 728.571 2074.67 730.829 2074.43 732.852C2074.24 734.922 2073.91 736.828 2073.44 738.569C2072.97 740.357 2072.38 742.027 2071.68 743.58C2071.02 745.132 2070.22 746.661 2069.28 748.167H2060.6C2062.71 745.109 2064.34 742.027 2065.47 738.922C2066.64 735.816 2067.23 732.735 2067.23 729.676H2061.02V714.22H2074.78ZM2202.1 702.223C2202.1 706.787 2201.35 710.856 2199.84 714.432C2198.38 718.008 2196.22 721.043 2193.35 723.536C2190.53 725.983 2187 727.865 2182.76 729.182C2178.58 730.453 2173.78 731.088 2168.37 731.088C2162.2 731.088 2157 730.335 2152.77 728.829C2148.58 727.277 2145.12 725.254 2142.39 722.76C2139.66 720.219 2137.62 717.349 2136.25 714.15C2134.89 710.903 2134 707.563 2133.57 704.128L2146.7 702.929C2147.08 705.563 2147.76 707.963 2148.75 710.127C2149.78 712.291 2151.17 714.15 2152.91 715.703C2154.65 717.255 2156.79 718.455 2159.33 719.302C2161.87 720.149 2164.88 720.572 2168.37 720.572C2174.76 720.572 2179.77 718.996 2183.4 715.844C2187.07 712.691 2188.9 708.01 2188.9 701.799C2188.9 698.129 2188.08 695.189 2186.43 692.977C2184.83 690.719 2182.81 688.978 2180.36 687.755C2177.96 686.485 2175.33 685.638 2172.46 685.214C2169.64 684.791 2167.02 684.579 2164.62 684.579H2157.43V673.569H2164.34C2166.74 673.569 2169.24 673.334 2171.82 672.864C2174.41 672.346 2176.76 671.452 2178.88 670.182C2181.05 668.864 2182.81 667.1 2184.17 664.889C2185.59 662.677 2186.29 659.854 2186.29 656.42C2186.29 651.103 2184.72 646.916 2181.56 643.857C2178.46 640.752 2173.82 639.199 2167.66 639.199C2162.06 639.199 2157.52 640.634 2154.04 643.504C2150.6 646.374 2148.6 650.421 2148.04 655.643L2135.27 654.655C2135.78 650.28 2136.98 646.469 2138.86 643.222C2140.75 639.976 2143.12 637.294 2145.99 635.177C2148.91 633.012 2152.23 631.413 2155.94 630.378C2159.66 629.295 2163.61 628.754 2167.8 628.754C2173.35 628.754 2178.13 629.46 2182.13 630.872C2186.13 632.236 2189.4 634.118 2191.94 636.518C2194.48 638.87 2196.34 641.646 2197.51 644.845C2198.74 648.045 2199.35 651.456 2199.35 655.079C2199.35 657.996 2198.95 660.725 2198.15 663.265C2197.35 665.806 2196.1 668.088 2194.41 670.111C2192.71 672.134 2190.55 673.875 2187.91 675.334C2185.33 676.792 2182.2 677.898 2178.53 678.651V678.933C2182.53 679.356 2186.01 680.274 2188.97 681.685C2191.94 683.05 2194.38 684.767 2196.31 686.837C2198.24 688.908 2199.68 691.26 2200.62 693.895C2201.61 696.53 2202.1 699.306 2202.1 702.223ZM2305.99 678.933C2305.99 687.214 2304.74 694.53 2302.25 700.882C2299.75 707.187 2296.34 712.48 2292.01 716.761C2287.68 720.996 2282.56 724.219 2276.63 726.43C2270.75 728.594 2264.39 729.676 2257.57 729.676H2220.38V630.236H2253.27C2260.94 630.236 2267.99 631.201 2274.44 633.13C2280.93 635.012 2286.51 637.953 2291.17 641.952C2295.82 645.904 2299.45 650.938 2302.03 657.055C2304.67 663.171 2305.99 670.464 2305.99 678.933ZM2292.44 678.933C2292.44 672.205 2291.47 666.465 2289.54 661.713C2287.61 656.914 2284.91 652.985 2281.43 649.927C2277.94 646.869 2273.78 644.634 2268.93 643.222C2264.09 641.764 2258.77 641.034 2252.98 641.034H2233.86V718.878H2256.02C2261.24 718.878 2266.06 718.032 2270.49 716.338C2274.96 714.644 2278.81 712.127 2282.06 708.786C2285.31 705.446 2287.85 701.282 2289.68 696.294C2291.52 691.307 2292.44 685.52 2292.44 678.933ZM2449.61 729.676V663.336C2449.61 660.936 2449.63 658.49 2449.68 655.996C2449.72 653.503 2449.79 651.221 2449.89 649.15C2449.98 646.751 2450.1 644.422 2450.24 642.164C2449.58 644.563 2448.9 646.939 2448.19 649.292C2447.58 651.315 2446.9 653.479 2446.15 655.784C2445.44 658.043 2444.74 660.09 2444.03 661.924L2418.34 729.676H2408.88L2382.84 661.924C2382.56 661.219 2382.25 660.395 2381.92 659.454C2381.64 658.513 2381.31 657.525 2380.94 656.49C2380.61 655.408 2380.25 654.326 2379.88 653.244C2379.55 652.115 2379.22 651.009 2378.89 649.927C2378.09 647.433 2377.31 644.845 2376.56 642.164C2376.61 644.798 2376.68 647.41 2376.77 649.997C2376.87 652.209 2376.94 654.538 2376.98 656.984C2377.03 659.384 2377.06 661.501 2377.06 663.336V729.676H2365.06V630.236H2382.77L2409.24 699.188C2409.57 700.129 2409.97 701.352 2410.44 702.858C2410.91 704.316 2411.35 705.822 2411.78 707.375C2412.2 708.927 2412.58 710.409 2412.91 711.821C2413.28 713.185 2413.54 714.244 2413.68 714.997C2413.82 714.244 2414.08 713.162 2414.46 711.75C2414.84 710.339 2415.26 708.857 2415.73 707.304C2416.25 705.752 2416.74 704.246 2417.21 702.787C2417.68 701.329 2418.11 700.129 2418.48 699.188L2444.45 630.236H2461.75V729.676H2449.61ZM2555.96 729.676L2544.6 700.6H2499.29L2487.86 729.676H2473.88L2514.46 630.236H2529.78L2569.72 729.676H2555.96ZM2527.8 657.267C2527.05 655.385 2526.32 653.479 2525.62 651.55C2524.96 649.621 2524.37 647.88 2523.85 646.327C2523.33 644.728 2522.89 643.41 2522.51 642.375C2522.18 641.293 2521.99 640.634 2521.95 640.399C2521.85 640.634 2521.64 641.293 2521.31 642.375C2520.98 643.457 2520.53 644.798 2519.97 646.398C2519.45 647.998 2518.84 649.762 2518.13 651.691C2517.48 653.62 2516.79 655.526 2516.09 657.408L2503.38 690.084H2540.58L2527.8 657.267ZM2658.79 660.16C2658.79 664.489 2658.06 668.535 2656.6 672.299C2655.19 676.016 2653.05 679.262 2650.18 682.038C2647.36 684.767 2643.8 686.932 2639.52 688.531C2635.24 690.131 2630.25 690.931 2624.56 690.931H2595.34V729.676H2581.86V630.236H2623.71C2629.6 630.236 2634.72 630.966 2639.1 632.424C2643.48 633.836 2647.12 635.859 2650.04 638.494C2652.96 641.081 2655.14 644.234 2656.6 647.951C2658.06 651.621 2658.79 655.69 2658.79 660.16ZM2645.24 660.301C2645.24 653.997 2643.31 649.221 2639.45 645.975C2635.59 642.681 2629.81 641.034 2622.09 641.034H2595.34V680.274H2622.66C2630.42 680.274 2636.11 678.557 2639.73 675.122C2643.4 671.687 2645.24 666.747 2645.24 660.301ZM2756.18 702.223C2756.18 706.41 2755.36 710.268 2753.71 713.797C2752.11 717.326 2749.62 720.384 2746.23 722.972C2742.84 725.512 2738.56 727.512 2733.39 728.971C2728.26 730.382 2722.17 731.088 2715.11 731.088C2702.73 731.088 2693.09 728.924 2686.17 724.595C2679.26 720.266 2674.86 714.009 2672.98 705.822L2686.03 703.211C2686.69 705.799 2687.7 708.151 2689.07 710.268C2690.43 712.386 2692.27 714.22 2694.57 715.773C2696.92 717.279 2699.82 718.455 2703.25 719.302C2706.69 720.149 2710.8 720.572 2715.6 720.572C2719.6 720.572 2723.27 720.243 2726.61 719.584C2729.95 718.878 2732.82 717.82 2735.22 716.408C2737.62 714.997 2739.48 713.185 2740.8 710.974C2742.16 708.716 2742.84 706.034 2742.84 702.929C2742.84 699.682 2742.09 697.047 2740.59 695.024C2739.13 693.001 2737.06 691.331 2734.38 690.013C2731.69 688.696 2728.49 687.59 2724.78 686.696C2721.06 685.802 2716.94 684.838 2712.43 683.803C2709.65 683.191 2706.85 682.532 2704.03 681.827C2701.25 681.074 2698.57 680.203 2695.98 679.215C2693.44 678.18 2691.04 676.98 2688.78 675.616C2686.53 674.252 2684.57 672.628 2682.93 670.746C2681.28 668.817 2679.99 666.606 2679.05 664.112C2678.1 661.572 2677.63 658.655 2677.63 655.361C2677.63 650.656 2678.57 646.633 2680.46 643.293C2682.39 639.905 2685.04 637.129 2688.43 634.965C2691.82 632.801 2695.82 631.224 2700.43 630.236C2705.04 629.248 2710.03 628.754 2715.39 628.754C2721.55 628.754 2726.82 629.248 2731.2 630.236C2735.58 631.177 2739.27 632.612 2742.28 634.541C2745.29 636.47 2747.69 638.87 2749.48 641.74C2751.31 644.563 2752.77 647.857 2753.85 651.621L2740.59 653.95C2739.93 651.55 2738.96 649.409 2737.69 647.527C2736.47 645.645 2734.85 644.069 2732.82 642.799C2730.8 641.528 2728.33 640.564 2725.41 639.905C2722.54 639.246 2719.16 638.917 2715.25 638.917C2710.64 638.917 2706.76 639.341 2703.61 640.187C2700.5 640.987 2697.98 642.093 2696.05 643.504C2694.17 644.916 2692.81 646.586 2691.96 648.515C2691.16 650.397 2690.76 652.444 2690.76 654.655C2690.76 657.619 2691.49 660.066 2692.95 661.995C2694.45 663.877 2696.48 665.453 2699.02 666.724C2701.56 667.994 2704.5 669.053 2707.84 669.899C2711.18 670.746 2714.73 671.593 2718.5 672.44C2721.55 673.146 2724.59 673.875 2727.6 674.628C2730.66 675.334 2733.58 676.204 2736.35 677.239C2739.13 678.227 2741.72 679.404 2744.12 680.768C2746.56 682.132 2748.68 683.803 2750.47 685.779C2752.25 687.755 2753.64 690.084 2754.63 692.766C2755.67 695.448 2756.18 698.6 2756.18 702.223ZM2877.36 729.676L2866 700.6H2820.69L2809.26 729.676H2795.28L2835.86 630.236H2851.18L2891.12 729.676H2877.36ZM2849.2 657.267C2848.45 655.385 2847.72 653.479 2847.01 651.55C2846.35 649.621 2845.77 647.88 2845.25 646.327C2844.73 644.728 2844.28 643.41 2843.91 642.375C2843.58 641.293 2843.39 640.634 2843.34 640.399C2843.25 640.634 2843.04 641.293 2842.71 642.375C2842.38 643.457 2841.93 644.798 2841.37 646.398C2840.85 647.998 2840.24 649.762 2839.53 651.691C2838.87 653.62 2838.19 655.526 2837.49 657.408L2824.78 690.084H2861.98L2849.2 657.267ZM2967.77 729.676L2914.55 644.987C2914.65 647.292 2914.77 649.574 2914.91 651.832C2915 653.761 2915.07 655.808 2915.12 657.972C2915.21 660.09 2915.26 661.972 2915.26 663.618V729.676H2903.26V630.236H2918.93L2972.71 715.491C2972.57 713.185 2972.42 710.88 2972.28 708.575C2972.19 706.598 2972.1 704.458 2972 702.152C2971.91 699.8 2971.86 697.565 2971.86 695.448V630.236H2984V729.676H2967.77ZM3093.32 678.933C3093.32 687.214 3092.07 694.53 3089.58 700.882C3087.09 707.187 3083.67 712.48 3079.35 716.761C3075.02 720.996 3069.89 724.219 3063.96 726.43C3058.08 728.594 3051.73 729.676 3044.91 729.676H3007.71V630.236H3040.6C3048.27 630.236 3055.33 631.201 3061.77 633.13C3068.27 635.012 3073.84 637.953 3078.5 641.952C3083.16 645.904 3086.78 650.938 3089.37 657.055C3092 663.171 3093.32 670.464 3093.32 678.933ZM3079.77 678.933C3079.77 672.205 3078.8 666.465 3076.88 661.713C3074.95 656.914 3072.24 652.985 3068.76 649.927C3065.28 646.869 3061.11 644.634 3056.27 643.222C3051.42 641.764 3046.11 641.034 3040.32 641.034H3021.19V718.878H3043.35C3048.58 718.878 3053.4 718.032 3057.82 716.338C3062.29 714.644 3066.15 712.127 3069.39 708.786C3072.64 705.446 3075.18 701.282 3077.02 696.294C3078.85 691.307 3079.77 685.52 3079.77 678.933ZM3147.8 679.498C3147.8 671.734 3148.84 664.724 3150.91 658.466C3153.03 652.209 3156.15 646.892 3160.3 642.516C3164.48 638.094 3169.66 634.706 3175.82 632.354C3181.99 629.954 3189.14 628.754 3197.28 628.754C3203.39 628.754 3208.76 629.295 3213.37 630.378C3217.98 631.46 3221.98 633.012 3225.37 635.035C3228.75 637.059 3231.62 639.529 3233.98 642.446C3236.33 645.316 3238.33 648.562 3239.97 652.185L3227.13 655.996C3225.91 653.55 3224.42 651.338 3222.68 649.362C3220.99 647.339 3218.92 645.622 3216.47 644.21C3214.03 642.799 3211.18 641.717 3207.93 640.964C3204.73 640.164 3201.06 639.764 3196.92 639.764C3190.9 639.764 3185.66 640.705 3181.19 642.587C3176.76 644.469 3173.09 647.151 3170.18 650.633C3167.26 654.114 3165.07 658.302 3163.61 663.195C3162.2 668.088 3161.5 673.522 3161.5 679.498C3161.5 685.473 3162.27 690.954 3163.82 695.942C3165.38 700.882 3167.68 705.163 3170.74 708.786C3173.8 712.362 3177.59 715.161 3182.1 717.185C3186.67 719.161 3191.94 720.149 3197.91 720.149C3201.82 720.149 3205.42 719.819 3208.71 719.161C3212 718.502 3214.97 717.655 3217.6 716.62C3220.28 715.538 3222.64 714.362 3224.66 713.091C3226.68 711.774 3228.38 710.456 3229.74 709.139V691.213H3200.03V679.921H3242.16V714.22C3239.95 716.479 3237.34 718.643 3234.33 720.713C3231.36 722.737 3228.02 724.524 3224.31 726.077C3220.59 727.63 3216.52 728.853 3212.1 729.747C3207.67 730.641 3202.95 731.088 3197.91 731.088C3189.54 731.088 3182.22 729.818 3175.96 727.277C3169.71 724.689 3164.48 721.113 3160.3 716.549C3156.15 711.939 3153.03 706.481 3150.91 700.176C3148.84 693.871 3147.8 686.979 3147.8 679.498ZM3335.18 729.676L3309.35 688.39H3278.37V729.676H3264.89V630.236H3311.68C3317.32 630.236 3322.31 630.895 3326.64 632.212C3331.02 633.483 3334.69 635.341 3337.65 637.788C3340.61 640.234 3342.87 643.222 3344.43 646.751C3345.98 650.28 3346.75 654.255 3346.75 658.678C3346.75 661.83 3346.28 664.936 3345.34 667.994C3344.45 671.052 3343.01 673.852 3341.04 676.392C3339.06 678.933 3336.54 681.121 3333.49 682.956C3330.43 684.791 3326.76 686.085 3322.48 686.837L3350.71 729.676H3335.18ZM3333.2 658.819C3333.2 655.808 3332.69 653.197 3331.65 650.985C3330.62 648.774 3329.11 646.939 3327.13 645.481C3325.16 643.975 3322.76 642.869 3319.94 642.164C3317.11 641.411 3313.91 641.034 3310.34 641.034H3278.37V677.733H3310.9C3314.76 677.733 3318.1 677.263 3320.92 676.322C3323.75 675.334 3326.05 673.993 3327.84 672.299C3329.68 670.605 3331.02 668.606 3331.86 666.3C3332.76 663.995 3333.2 661.501 3333.2 658.819ZM3462.99 679.498C3462.99 687.261 3461.86 694.318 3459.6 700.67C3457.39 707.022 3454.17 712.456 3449.93 716.973C3445.7 721.49 3440.52 724.971 3434.41 727.418C3428.29 729.865 3421.35 731.088 3413.59 731.088C3405.4 731.088 3398.23 729.818 3392.06 727.277C3385.9 724.689 3380.77 721.113 3376.68 716.549C3372.58 711.939 3369.5 706.481 3367.43 700.176C3365.36 693.871 3364.33 686.979 3364.33 679.498C3364.33 671.734 3365.41 664.724 3367.57 658.466C3369.74 652.209 3372.91 646.892 3377.1 642.516C3381.29 638.094 3386.44 634.706 3392.56 632.354C3398.72 629.954 3405.78 628.754 3413.73 628.754C3421.63 628.754 3428.64 629.954 3434.76 632.354C3440.92 634.753 3446.08 638.164 3450.22 642.587C3454.4 647.01 3457.58 652.35 3459.74 658.607C3461.91 664.865 3462.99 671.829 3462.99 679.498ZM3449.23 679.498C3449.23 673.522 3448.45 668.088 3446.9 663.195C3445.39 658.302 3443.14 654.114 3440.12 650.633C3437.16 647.151 3433.47 644.469 3429.04 642.587C3424.62 640.705 3419.52 639.764 3413.73 639.764C3407.8 639.764 3402.6 640.705 3398.13 642.587C3393.66 644.469 3389.92 647.151 3386.91 650.633C3383.95 654.114 3381.71 658.302 3380.21 663.195C3378.75 668.088 3378.02 673.522 3378.02 679.498C3378.02 685.473 3378.77 690.954 3380.28 695.942C3381.83 700.882 3384.09 705.163 3387.05 708.786C3390.06 712.362 3393.78 715.161 3398.2 717.185C3402.67 719.161 3407.8 720.149 3413.59 720.149C3419.8 720.149 3425.14 719.137 3429.61 717.114C3434.13 715.091 3437.82 712.291 3440.69 708.716C3443.61 705.093 3445.75 700.788 3447.11 695.8C3448.52 690.813 3449.23 685.379 3449.23 679.498ZM3575.49 679.498C3575.49 687.261 3574.36 694.318 3572.1 700.67C3569.89 707.022 3566.67 712.456 3562.43 716.973C3558.2 721.49 3553.02 724.971 3546.9 727.418C3540.79 729.865 3533.85 731.088 3526.09 731.088C3517.9 731.088 3510.72 729.818 3504.56 727.277C3498.4 724.689 3493.27 721.113 3489.17 716.549C3485.08 711.939 3482 706.481 3479.93 700.176C3477.86 693.871 3476.82 686.979 3476.82 679.498C3476.82 671.734 3477.91 664.724 3480.07 658.466C3482.23 652.209 3485.41 646.892 3489.6 642.516C3493.79 638.094 3498.94 634.706 3505.05 632.354C3511.22 629.954 3518.27 628.754 3526.23 628.754C3534.13 628.754 3541.14 629.954 3547.26 632.354C3553.42 634.753 3558.57 638.164 3562.71 642.587C3566.9 647.01 3570.08 652.35 3572.24 658.607C3574.41 664.865 3575.49 671.829 3575.49 679.498ZM3561.73 679.498C3561.73 673.522 3560.95 668.088 3559.4 663.195C3557.89 658.302 3555.63 654.114 3552.62 650.633C3549.66 647.151 3545.96 644.469 3541.54 642.587C3537.12 640.705 3532.01 639.764 3526.23 639.764C3520.3 639.764 3515.1 640.705 3510.63 642.587C3506.16 644.469 3502.42 647.151 3499.41 650.633C3496.44 654.114 3494.21 658.302 3492.7 663.195C3491.24 668.088 3490.52 673.522 3490.52 679.498C3490.52 685.473 3491.27 690.954 3492.77 695.942C3494.33 700.882 3496.58 705.163 3499.55 708.786C3502.56 712.362 3506.28 715.161 3510.7 717.185C3515.17 719.161 3520.3 720.149 3526.09 720.149C3532.3 720.149 3537.64 719.137 3542.11 717.114C3546.62 715.091 3550.32 712.291 3553.19 708.716C3556.1 705.093 3558.24 700.788 3559.61 695.8C3561.02 690.813 3561.73 685.379 3561.73 679.498ZM3637.66 729.676H3623.69L3583.11 630.236H3597.3L3624.82 700.247C3625.53 702.364 3626.23 704.481 3626.94 706.598C3627.64 708.669 3628.28 710.527 3628.84 712.174C3629.5 714.103 3630.14 715.985 3630.75 717.82C3631.31 716.079 3631.92 714.244 3632.58 712.315C3633.15 710.668 3633.76 708.81 3634.42 706.74C3635.12 704.669 3635.88 702.505 3636.68 700.247L3664.06 630.236H3678.24L3637.66 729.676ZM3733.72 688.461V729.676H3720.31V688.461L3682.06 630.236H3696.88L3727.15 677.592L3757.29 630.236H3772.11L3733.72 688.461ZM3868.02 729.676H3854.05L3813.47 630.236H3827.65L3855.18 700.247C3855.88 702.364 3856.59 704.481 3857.29 706.598C3858 708.669 3858.63 710.527 3859.2 712.174C3859.86 714.103 3860.49 715.985 3861.1 717.82C3861.67 716.079 3862.28 714.244 3862.94 712.315C3863.5 710.668 3864.12 708.81 3864.77 706.74C3865.48 704.669 3866.23 702.505 3867.03 700.247L3894.42 630.236H3908.6L3868.02 729.676ZM3922.57 729.676V630.236H3936.05V729.676H3922.57ZM4039.23 702.223C4039.23 706.41 4038.41 710.268 4036.76 713.797C4035.17 717.326 4032.67 720.384 4029.28 722.972C4025.9 725.512 4021.61 727.512 4016.44 728.971C4011.31 730.382 4005.22 731.088 3998.16 731.088C3985.79 731.088 3976.14 728.924 3969.22 724.595C3962.31 720.266 3957.91 714.009 3956.03 705.822L3969.08 703.211C3969.74 705.799 3970.75 708.151 3972.12 710.268C3973.48 712.386 3975.32 714.22 3977.62 715.773C3979.98 717.279 3982.87 718.455 3986.3 719.302C3989.74 720.149 3993.86 720.572 3998.65 720.572C4002.65 720.572 4006.32 720.243 4009.66 719.584C4013 718.878 4015.87 717.82 4018.27 716.408C4020.67 714.997 4022.53 713.185 4023.85 710.974C4025.21 708.716 4025.9 706.034 4025.9 702.929C4025.9 699.682 4025.14 697.047 4023.64 695.024C4022.18 693.001 4020.11 691.331 4017.43 690.013C4014.75 688.696 4011.55 687.59 4007.83 686.696C4004.11 685.802 4000 684.838 3995.48 683.803C3992.7 683.191 3989.9 682.532 3987.08 681.827C3984.3 681.074 3981.62 680.203 3979.03 679.215C3976.49 678.18 3974.09 676.98 3971.84 675.616C3969.58 674.252 3967.62 672.628 3965.98 670.746C3964.33 668.817 3963.04 666.606 3962.1 664.112C3961.16 661.572 3960.69 658.655 3960.69 655.361C3960.69 650.656 3961.63 646.633 3963.51 643.293C3965.44 639.905 3968.1 637.129 3971.48 634.965C3974.87 632.801 3978.87 631.224 3983.48 630.236C3988.09 629.248 3993.08 628.754 3998.44 628.754C4004.61 628.754 4009.88 629.248 4014.25 630.236C4018.63 631.177 4022.32 632.612 4025.33 634.541C4028.34 636.47 4030.74 638.87 4032.53 641.74C4034.37 644.563 4035.82 647.857 4036.91 651.621L4023.64 653.95C4022.98 651.55 4022.01 649.409 4020.74 647.527C4019.52 645.645 4017.9 644.069 4015.87 642.799C4013.85 641.528 4011.38 640.564 4008.46 639.905C4005.59 639.246 4002.21 638.917 3998.3 638.917C3993.69 638.917 3989.81 639.341 3986.66 640.187C3983.55 640.987 3981.03 642.093 3979.11 643.504C3977.22 644.916 3975.86 646.586 3975.01 648.515C3974.21 650.397 3973.81 652.444 3973.81 654.655C3973.81 657.619 3974.54 660.066 3976 661.995C3977.51 663.877 3979.53 665.453 3982.07 666.724C3984.61 667.994 3987.55 669.053 3990.89 669.899C3994.23 670.746 3997.78 671.593 4001.55 672.44C4004.61 673.146 4007.64 673.875 4010.65 674.628C4013.71 675.334 4016.63 676.204 4019.4 677.239C4022.18 678.227 4024.77 679.404 4027.17 680.768C4029.61 682.132 4031.73 683.803 4033.52 685.779C4035.31 687.755 4036.69 690.084 4037.68 692.766C4038.72 695.448 4039.23 698.6 4039.23 702.223ZM4097.46 731.088C4092 731.088 4086.83 730.359 4081.93 728.9C4077.04 727.442 4072.73 725.183 4069.02 722.125C4065.35 719.02 4062.43 715.114 4060.27 710.409C4058.1 705.657 4057.02 700.035 4057.02 693.542V630.236H4070.5V692.413C4070.5 697.447 4071.16 701.729 4072.48 705.257C4073.84 708.739 4075.72 711.586 4078.12 713.797C4080.52 716.008 4083.34 717.632 4086.59 718.667C4089.88 719.655 4093.48 720.149 4097.39 720.149C4101.25 720.149 4104.89 719.631 4108.33 718.596C4111.76 717.561 4114.77 715.914 4117.36 713.656C4119.95 711.397 4121.97 708.457 4123.43 704.834C4124.94 701.164 4125.69 696.718 4125.69 691.495V630.236H4139.1V692.272C4139.1 698.906 4137.99 704.669 4135.78 709.563C4133.62 714.409 4130.65 718.431 4126.89 721.631C4123.12 724.83 4118.7 727.206 4113.62 728.759C4108.59 730.312 4103.2 731.088 4097.46 731.088ZM4232.68 729.676L4221.32 700.6H4176.01L4164.58 729.676H4150.6L4191.18 630.236H4206.5L4246.44 729.676H4232.68ZM4204.52 657.267C4203.77 655.385 4203.04 653.479 4202.33 651.55C4201.67 649.621 4201.09 647.88 4200.57 646.327C4200.05 644.728 4199.6 643.41 4199.23 642.375C4198.9 641.293 4198.71 640.634 4198.66 640.399C4198.57 640.634 4198.36 641.293 4198.03 642.375C4197.7 643.457 4197.25 644.798 4196.69 646.398C4196.17 647.998 4195.56 649.762 4194.85 651.691C4194.19 653.62 4193.51 655.526 4192.81 657.408L4180.1 690.084H4217.3L4204.52 657.267ZM4258.58 729.676V630.236H4272.06V718.667H4322.31V729.676H4258.58ZM4340.52 729.676V630.236H4354V729.676H4340.52ZM4451.18 729.676H4372V719.584L4432.55 641.246H4377.15V630.236H4447.86V640.046L4387.31 718.667H4451.18V729.676ZM4538.13 729.676L4526.77 700.6H4481.46L4470.02 729.676H4456.05L4496.63 630.236H4511.95L4551.89 729.676H4538.13ZM4509.97 657.267C4509.22 655.385 4508.49 653.479 4507.78 651.55C4507.12 649.621 4506.53 647.88 4506.02 646.327C4505.5 644.728 4505.05 643.41 4504.68 642.375C4504.35 641.293 4504.16 640.634 4504.11 640.399C4504.02 640.634 4503.81 641.293 4503.48 642.375C4503.15 643.457 4502.7 644.798 4502.14 646.398C4501.62 647.998 4501.01 649.762 4500.3 651.691C4499.64 653.62 4498.96 655.526 4498.25 657.408L4485.55 690.084H4522.74L4509.97 657.267ZM4592.26 641.246V729.676H4578.85V641.246H4544.69V630.236H4626.42V641.246H4592.26ZM4643.14 729.676V630.236H4656.62V729.676H4643.14ZM4775.54 679.498C4775.54 687.261 4774.41 694.318 4772.16 700.67C4769.94 707.022 4766.72 712.456 4762.49 716.973C4758.25 721.49 4753.08 724.971 4746.96 727.418C4740.84 729.865 4733.9 731.088 4726.14 731.088C4717.95 731.088 4710.78 729.818 4704.61 727.277C4698.45 724.689 4693.32 721.113 4689.23 716.549C4685.14 711.939 4682.05 706.481 4679.98 700.176C4677.91 693.871 4676.88 686.979 4676.88 679.498C4676.88 671.734 4677.96 664.724 4680.13 658.466C4682.29 652.209 4685.47 646.892 4689.65 642.516C4693.84 638.094 4698.99 634.706 4705.11 632.354C4711.27 629.954 4718.33 628.754 4726.28 628.754C4734.19 628.754 4741.2 629.954 4747.31 632.354C4753.48 634.753 4758.63 638.164 4762.77 642.587C4766.96 647.01 4770.13 652.35 4772.3 658.607C4774.46 664.865 4775.54 671.829 4775.54 679.498ZM4761.78 679.498C4761.78 673.522 4761 668.088 4759.45 663.195C4757.95 658.302 4755.69 654.114 4752.68 650.633C4749.71 647.151 4746.02 644.469 4741.6 642.587C4737.17 640.705 4732.07 639.764 4726.28 639.764C4720.35 639.764 4715.15 640.705 4710.68 642.587C4706.21 644.469 4702.47 647.151 4699.46 650.633C4696.5 654.114 4694.26 658.302 4692.76 663.195C4691.3 668.088 4690.57 673.522 4690.57 679.498C4690.57 685.473 4691.32 690.954 4692.83 695.942C4694.38 700.882 4696.64 705.163 4699.6 708.786C4702.62 712.362 4706.33 715.161 4710.75 717.185C4715.22 719.161 4720.35 720.149 4726.14 720.149C4732.35 720.149 4737.69 719.137 4742.16 717.114C4746.68 715.091 4750.37 712.291 4753.24 708.716C4756.16 705.093 4758.3 700.788 4759.66 695.8C4761.07 690.813 4761.78 685.379 4761.78 679.498ZM4858.89 729.676L4805.68 644.987C4805.77 647.292 4805.89 649.574 4806.03 651.832C4806.13 653.761 4806.2 655.808 4806.24 657.972C4806.34 660.09 4806.38 661.972 4806.38 663.618V729.676H4794.39V630.236H4810.05L4863.83 715.491C4863.69 713.185 4863.55 710.88 4863.41 708.575C4863.31 706.598 4863.22 704.458 4863.13 702.152C4863.03 699.8 4862.98 697.565 4862.98 695.448V630.236H4875.12V729.676H4858.89ZM4976.75 702.223C4976.75 706.41 4975.93 710.268 4974.28 713.797C4972.68 717.326 4970.19 720.384 4966.8 722.972C4963.41 725.512 4959.13 727.512 4953.96 728.971C4948.83 730.382 4942.73 731.088 4935.68 731.088C4923.3 731.088 4913.66 728.924 4906.74 724.595C4899.83 720.266 4895.43 714.009 4893.54 705.822L4906.6 703.211C4907.26 705.799 4908.27 708.151 4909.64 710.268C4911 712.386 4912.83 714.22 4915.14 715.773C4917.49 717.279 4920.39 718.455 4923.82 719.302C4927.26 720.149 4931.37 720.572 4936.17 720.572C4940.17 720.572 4943.84 720.243 4947.18 719.584C4950.52 718.878 4953.39 717.82 4955.79 716.408C4958.19 714.997 4960.05 713.185 4961.37 710.974C4962.73 708.716 4963.41 706.034 4963.41 702.929C4963.41 699.682 4962.66 697.047 4961.15 695.024C4959.7 693.001 4957.63 691.331 4954.94 690.013C4952.26 688.696 4949.06 687.59 4945.35 686.696C4941.63 685.802 4937.51 684.838 4933 683.803C4930.22 683.191 4927.42 682.532 4924.6 681.827C4921.82 681.074 4919.14 680.203 4916.55 679.215C4914.01 678.18 4911.61 676.98 4909.35 675.616C4907.09 674.252 4905.14 672.628 4903.49 670.746C4901.85 668.817 4900.55 666.606 4899.61 664.112C4898.67 661.572 4898.2 658.655 4898.2 655.361C4898.2 650.656 4899.14 646.633 4901.02 643.293C4902.95 639.905 4905.61 637.129 4909 634.965C4912.39 632.801 4916.39 631.224 4921 630.236C4925.61 629.248 4930.6 628.754 4935.96 628.754C4942.12 628.754 4947.39 629.248 4951.77 630.236C4956.14 631.177 4959.84 632.612 4962.85 634.541C4965.86 636.47 4968.26 638.87 4970.05 641.74C4971.88 644.563 4973.34 647.857 4974.42 651.621L4961.15 653.95C4960.5 651.55 4959.53 649.409 4958.26 647.527C4957.04 645.645 4955.41 644.069 4953.39 642.799C4951.37 641.528 4948.9 640.564 4945.98 639.905C4943.11 639.246 4939.72 638.917 4935.82 638.917C4931.21 638.917 4927.33 639.341 4924.17 640.187C4921.07 640.987 4918.55 642.093 4916.62 643.504C4914.74 644.916 4913.38 646.586 4912.53 648.515C4911.73 650.397 4911.33 652.444 4911.33 654.655C4911.33 657.619 4912.06 660.066 4913.52 661.995C4915.02 663.877 4917.05 665.453 4919.59 666.724C4922.13 667.994 4925.07 669.053 4928.41 669.899C4931.75 670.746 4935.3 671.593 4939.06 672.44C4942.12 673.146 4945.16 673.875 4948.17 674.628C4951.23 675.334 4954.14 676.204 4956.92 677.239C4959.7 678.227 4962.28 679.404 4964.68 680.768C4967.13 682.132 4969.25 683.803 4971.04 685.779C4972.82 687.755 4974.21 690.084 4975.2 692.766C4976.23 695.448 4976.75 698.6 4976.75 702.223Z" fill="white"/>
</svg>
