<svg width="4921" height="824" viewBox="0 0 4921 824" fill="none" xmlns="http://www.w3.org/2000/svg">
<rect x="0.694824" y="0.196289" width="4872.82" height="822.836" fill="white" fill-opacity="0.5"/>
<rect x="105.737" y="134.417" width="519.378" height="519.378" fill="#B4C3F3"/>
<circle cx="387.225" cy="343.875" r="154.923" fill="#FF952F" stroke="black" stroke-width="2.91786"/>
<path d="M272.421 589.704L378.89 405.293L485.36 589.704H272.421Z" fill="#288CA3" stroke="black" stroke-width="2.91786"/>
<path d="M145.851 590.251L276.015 364.8L406.179 590.251H145.851Z" fill="#288CA3" stroke="black" stroke-width="2.91786"/>
<path d="M511.839 273.121L564.537 273.121L590.886 318.759L564.537 364.397L511.839 364.397L485.489 318.759L511.839 273.121Z" fill="white" stroke="black" stroke-width="2.91786"/>
<path d="M428.171 258.629L497.603 258.629L532.319 318.759L497.603 378.888L428.171 378.888L393.456 318.759L428.171 258.629Z" fill="white" stroke="black" stroke-width="2.91786"/>
<path d="M361.24 273.121L413.938 273.121L440.287 318.759L413.938 364.397L361.24 364.397L334.891 318.759L361.24 273.121Z" fill="white" stroke="black" stroke-width="2.91786"/>
<path d="M895.389 315.171V199.583C895.389 194.981 895.435 190.244 895.525 185.371C895.705 180.498 895.886 176.032 896.066 171.971C896.337 167.189 896.562 162.542 896.743 158.03C894.848 165.159 893.043 171.926 891.329 178.333C890.607 181.04 889.84 183.837 889.028 186.724C888.216 189.612 887.404 192.409 886.592 195.116C885.87 197.823 885.148 200.35 884.426 202.696C883.704 205.042 883.073 207.072 882.531 208.786L848.152 315.171H819.729L785.35 208.786C784.809 207.072 784.177 205.042 783.455 202.696C782.824 200.35 782.102 197.823 781.29 195.116C780.568 192.409 779.801 189.612 778.989 186.724C778.177 183.837 777.364 181.04 776.552 178.333C774.748 171.926 772.853 165.159 770.868 158.03C771.138 163.264 771.409 168.407 771.68 173.46C771.86 177.791 772.041 182.348 772.221 187.13C772.402 191.913 772.492 196.064 772.492 199.583V315.171H737.03V124.464H790.493L824.602 231.119C825.504 233.916 826.451 237.345 827.444 241.406C828.527 245.466 829.564 249.391 830.557 253.181C831.64 257.603 832.813 262.205 834.076 266.987C835.339 262.295 836.557 257.783 837.73 253.452C838.272 251.557 838.813 249.617 839.355 247.632C839.896 245.647 840.437 243.707 840.979 241.812C841.52 239.917 842.062 238.112 842.603 236.398C843.144 234.683 843.641 233.149 844.092 231.796L877.659 124.464H930.851V315.171H895.389ZM1002.59 317.878C995.548 317.878 989.232 316.931 983.638 315.036C978.133 313.051 973.441 310.209 969.561 306.509C965.681 302.719 962.703 298.072 960.628 292.568C958.553 287.064 957.515 280.793 957.515 273.754C957.515 265.092 959.004 257.828 961.982 251.963C965.049 246.008 969.2 241.225 974.434 237.616C979.667 233.916 985.803 231.255 992.841 229.63C999.879 227.916 1007.37 227.014 1015.31 226.923L1046.85 226.382V218.938C1046.85 213.614 1046.35 209.193 1045.36 205.673C1044.45 202.064 1043.1 199.132 1041.3 196.876C1039.49 194.62 1037.24 193.041 1034.53 192.138C1031.91 191.146 1028.89 190.65 1025.46 190.65C1022.3 190.65 1019.46 190.965 1016.93 191.597C1014.5 192.229 1012.38 193.357 1010.57 194.981C1008.77 196.515 1007.28 198.635 1006.11 201.342C1005.02 203.959 1004.26 207.298 1003.8 211.358L964.147 209.463C965.23 203.057 967.215 197.237 970.103 192.003C972.99 186.679 976.96 182.077 982.013 178.197C987.157 174.317 993.428 171.34 1000.83 169.264C1008.32 167.099 1017.07 166.016 1027.08 166.016C1036.2 166.016 1044.32 167.144 1051.45 169.4C1058.58 171.656 1064.62 175.039 1069.58 179.551C1074.55 183.972 1078.34 189.431 1080.95 195.928C1083.57 202.425 1084.88 209.959 1084.88 218.532V271.859C1084.88 275.288 1085.01 278.356 1085.29 281.063C1085.65 283.77 1086.23 286.071 1087.04 287.966C1087.95 289.771 1089.17 291.169 1090.7 292.162C1092.32 293.064 1094.4 293.515 1096.93 293.515C1099.81 293.515 1102.61 293.245 1105.32 292.703V313.276C1103.06 313.818 1101.03 314.314 1099.23 314.765C1097.42 315.217 1095.62 315.577 1093.81 315.848C1092.01 316.119 1090.07 316.344 1087.99 316.525C1086.01 316.705 1083.66 316.796 1080.95 316.796C1071.39 316.796 1064.31 314.45 1059.7 309.757C1055.19 305.065 1052.49 298.162 1051.58 289.049H1050.77C1045.72 298.162 1039.22 305.246 1031.28 310.299C1023.43 315.352 1013.87 317.878 1002.59 317.878ZM1046.85 247.361L1027.36 247.632C1023.3 247.812 1019.41 248.173 1015.72 248.715C1012.11 249.166 1008.9 250.203 1006.11 251.828C1003.4 253.362 1001.23 255.617 999.609 258.595C997.985 261.573 997.173 265.633 997.173 270.777C997.173 277.725 998.752 282.913 1001.91 286.342C1005.16 289.681 1009.44 291.35 1014.77 291.35C1019.64 291.35 1024.06 290.312 1028.03 288.237C1032 286.161 1035.34 283.454 1038.05 280.116C1040.85 276.687 1043.01 272.762 1044.54 268.34C1046.08 263.919 1046.85 259.407 1046.85 254.805V247.361ZM1261.65 241.27C1261.65 252.369 1260.52 262.611 1258.26 271.995C1256.1 281.379 1252.71 289.455 1248.11 296.222C1243.51 302.99 1237.64 308.314 1230.52 312.194C1223.48 315.983 1215.13 317.878 1205.48 317.878C1201.14 317.878 1196.81 317.427 1192.48 316.525C1188.24 315.623 1184.18 314.179 1180.3 312.194C1176.42 310.118 1172.81 307.456 1169.47 304.208C1166.22 300.869 1163.43 296.764 1161.08 291.891H1160.27C1160.36 292.342 1160.45 293.47 1160.54 295.275C1160.63 297.08 1160.72 299.2 1160.81 301.636C1160.9 303.982 1160.95 306.509 1160.95 309.216C1161.04 311.833 1161.08 314.269 1161.08 316.525V372.695H1123.05V202.425C1123.05 194.936 1122.91 188.258 1122.64 182.393C1122.46 176.528 1122.24 171.971 1121.96 168.723H1158.92C1159.1 169.355 1159.28 170.573 1159.46 172.377C1159.73 174.182 1159.91 176.257 1160 178.603C1160.18 180.95 1160.31 183.386 1160.4 185.912C1160.49 188.439 1160.54 190.65 1160.54 192.544H1161.08C1165.68 182.89 1172 175.987 1180.03 171.836C1188.06 167.685 1197.35 165.61 1207.91 165.61C1217.21 165.61 1225.24 167.505 1232 171.295C1238.77 175.084 1244.32 180.318 1248.65 186.995C1253.07 193.672 1256.32 201.658 1258.4 210.952C1260.56 220.156 1261.65 230.262 1261.65 241.27ZM1221.99 241.27C1221.99 224.577 1219.46 212.215 1214.41 204.185C1209.36 196.064 1201.82 192.003 1191.81 192.003C1188.02 192.003 1184.23 192.815 1180.44 194.439C1176.74 195.973 1173.4 198.68 1170.42 202.56C1167.53 206.35 1165.14 211.493 1163.25 217.99C1161.44 224.397 1160.54 232.518 1160.54 242.353C1160.54 251.918 1161.44 259.904 1163.25 266.31C1165.05 272.626 1167.4 277.679 1170.28 281.469C1173.26 285.259 1176.6 287.966 1180.3 289.59C1184 291.124 1187.74 291.891 1191.53 291.891C1196.41 291.891 1200.74 290.944 1204.53 289.049C1208.32 287.064 1211.48 284.041 1214 279.98C1216.62 275.83 1218.6 270.551 1219.96 264.145C1221.31 257.738 1221.99 250.113 1221.99 241.27ZM1377.78 155.323V315.171H1337.85V155.323H1276.26V124.464H1439.5V155.323H1377.78ZM1499.46 197.958C1504.6 186.77 1511.05 178.649 1518.81 173.596C1526.57 168.542 1535.82 166.016 1546.56 166.016C1555.4 166.016 1562.84 167.46 1568.89 170.347C1575.03 173.235 1579.99 177.205 1583.78 182.258C1587.66 187.311 1590.46 193.266 1592.17 200.124C1593.88 206.982 1594.74 214.381 1594.74 222.321V315.171H1556.84V233.149C1556.84 227.465 1556.39 222.276 1555.49 217.584C1554.59 212.802 1553.1 208.741 1551.02 205.403C1548.95 201.974 1546.24 199.312 1542.9 197.417C1539.56 195.522 1535.5 194.575 1530.72 194.575C1526.12 194.575 1521.92 195.612 1518.13 197.688C1514.43 199.673 1511.23 202.56 1508.52 206.35C1505.82 210.05 1503.7 214.516 1502.16 219.75C1500.72 224.893 1500 230.578 1500 236.804V315.171H1461.96V114.312H1500V169.129C1500 172.016 1499.95 174.949 1499.86 177.927C1499.77 180.814 1499.64 183.566 1499.46 186.183C1499.37 188.71 1499.28 191.011 1499.18 193.086C1499.09 195.161 1499 196.785 1498.91 197.958H1499.46ZM1691.38 317.878C1680.82 317.878 1671.3 316.344 1662.82 313.276C1654.43 310.118 1647.26 305.381 1641.3 299.065C1635.35 292.658 1630.79 284.673 1627.63 275.108C1624.47 265.453 1622.89 254.174 1622.89 241.27C1622.89 227.284 1624.74 215.509 1628.44 205.944C1632.23 196.379 1637.29 188.664 1643.6 182.799C1650.01 176.844 1657.36 172.558 1665.67 169.941C1673.97 167.324 1682.72 166.016 1691.92 166.016C1703.47 166.016 1713.31 168.046 1721.43 172.107C1729.64 176.077 1736.36 181.671 1741.6 188.89C1746.83 196.109 1750.66 204.771 1753.1 214.877C1755.54 224.893 1756.76 235.992 1756.76 248.173V249.256H1662.82C1662.82 255.392 1663.36 261.122 1664.45 266.445C1665.53 271.679 1667.29 276.236 1669.73 280.116C1672.16 283.906 1675.32 286.928 1679.2 289.184C1683.08 291.35 1687.77 292.433 1693.28 292.433C1699.95 292.433 1705.41 291.034 1709.65 288.237C1713.89 285.349 1716.92 280.928 1718.72 274.973L1754.59 278.086C1752.97 282.236 1750.66 286.658 1747.69 291.35C1744.8 296.042 1740.92 300.373 1736.05 304.343C1731.17 308.223 1725.08 311.472 1717.77 314.089C1710.56 316.615 1701.76 317.878 1691.38 317.878ZM1691.38 189.973C1687.5 189.973 1683.85 190.65 1680.42 192.003C1677.08 193.266 1674.15 195.342 1671.62 198.229C1669.18 201.026 1667.2 204.681 1665.67 209.193C1664.13 213.704 1663.27 219.118 1663.09 225.434H1719.94C1719.22 213.614 1716.38 204.771 1711.41 198.906C1706.45 192.951 1699.77 189.973 1691.38 189.973ZM1873.97 286.477C1881.46 286.477 1887.91 285.44 1893.32 283.364C1898.83 281.199 1903.56 278.401 1907.54 274.973C1911.6 271.544 1914.93 267.664 1917.55 263.332C1920.26 259.001 1922.47 254.625 1924.18 250.203L1958.97 263.332C1956.17 270.19 1952.52 276.913 1948 283.5C1943.49 290.087 1937.85 295.907 1931.09 300.96C1924.32 306.013 1916.24 310.118 1906.86 313.276C1897.56 316.344 1886.6 317.878 1873.97 317.878C1857.46 317.878 1843.15 315.442 1831.06 310.569C1818.97 305.607 1808.96 298.749 1801.01 289.996C1793.16 281.153 1787.3 270.686 1783.42 258.595C1779.63 246.504 1777.73 233.285 1777.73 218.938C1777.73 204.049 1779.63 190.604 1783.42 178.603C1787.3 166.602 1793.12 156.406 1800.88 148.014C1808.64 139.532 1818.43 133.036 1830.25 128.524C1842.16 123.922 1856.15 121.621 1872.21 121.621C1884.66 121.621 1895.53 122.93 1904.83 125.546C1914.21 128.163 1922.29 131.863 1929.06 136.645C1935.91 141.337 1941.55 146.932 1945.97 153.428C1950.49 159.835 1954.01 166.918 1956.53 174.678L1921.34 184.288C1920.08 180.228 1918.14 176.348 1915.52 172.648C1912.9 168.858 1909.57 165.52 1905.5 162.632C1901.53 159.745 1896.84 157.444 1891.43 155.729C1886.01 153.925 1879.88 153.022 1873.02 153.022C1863.37 153.022 1855.06 154.601 1848.12 157.76C1841.17 160.828 1835.44 165.249 1830.93 171.024C1826.51 176.799 1823.21 183.747 1821.05 191.868C1818.97 199.898 1817.93 208.922 1817.93 218.938C1817.93 228.863 1818.97 237.977 1821.05 246.278C1823.21 254.49 1826.55 261.573 1831.06 267.528C1835.57 273.484 1841.35 278.131 1848.39 281.469C1855.52 284.808 1864.04 286.477 1873.97 286.477ZM1986.04 315.171V114.312H2024.07V315.171H1986.04ZM2202.33 241.812C2202.33 253.001 2200.75 263.242 2197.59 272.536C2194.52 281.83 2189.87 289.861 2183.65 296.628C2177.42 303.306 2169.66 308.539 2160.37 312.329C2151.07 316.029 2140.25 317.878 2127.88 317.878C2115.97 317.878 2105.46 316.029 2096.35 312.329C2087.23 308.629 2079.56 303.441 2073.34 296.764C2067.2 290.087 2062.56 282.101 2059.4 272.807C2056.24 263.423 2054.66 253.091 2054.66 241.812C2054.66 230.894 2056.15 220.833 2059.13 211.629C2062.19 202.335 2066.8 194.304 2072.93 187.537C2079.07 180.769 2086.78 175.49 2096.08 171.701C2105.37 167.911 2116.24 166.016 2128.7 166.016C2141.87 166.016 2153.1 167.911 2162.4 171.701C2171.69 175.49 2179.27 180.769 2185.14 187.537C2191.09 194.214 2195.42 202.199 2198.13 211.493C2200.93 220.697 2202.33 230.803 2202.33 241.812ZM2162.53 241.812C2162.53 224.397 2159.69 211.764 2154.01 203.914C2148.32 196.064 2140.07 192.138 2129.24 192.138C2118.05 192.138 2109.48 196.109 2103.52 204.049C2097.57 211.99 2094.59 224.577 2094.59 241.812C2094.59 250.564 2095.36 258.099 2096.89 264.415C2098.51 270.732 2100.77 275.92 2103.66 279.98C2106.54 284.041 2110.02 287.064 2114.08 289.049C2118.14 290.944 2122.61 291.891 2127.48 291.891C2133.07 291.891 2138.04 290.944 2142.37 289.049C2146.79 287.064 2150.49 284.041 2153.47 279.98C2156.44 275.92 2158.7 270.732 2160.23 264.415C2161.77 258.099 2162.53 250.564 2162.53 241.812ZM2268.51 168.723V250.88C2268.51 256.565 2268.96 261.798 2269.87 266.581C2270.77 271.273 2272.26 275.333 2274.33 278.762C2276.41 282.101 2279.07 284.718 2282.32 286.613C2285.66 288.507 2289.72 289.455 2294.5 289.455C2299.1 289.455 2303.25 288.462 2306.95 286.477C2310.74 284.402 2313.99 281.514 2316.7 277.815C2319.4 274.025 2321.48 269.559 2322.92 264.415C2324.46 259.182 2325.22 253.452 2325.22 247.226V168.723H2363.26V282.417C2363.26 285.485 2363.26 288.733 2363.26 292.162C2363.35 295.501 2363.44 298.704 2363.53 301.772C2363.71 304.749 2363.84 307.456 2363.93 309.893C2364.12 312.239 2364.25 313.998 2364.34 315.171H2328.07C2327.98 314.089 2327.8 312.374 2327.53 310.028C2327.35 307.592 2327.16 304.93 2326.98 302.042C2326.89 299.155 2326.76 296.268 2326.58 293.38C2326.49 290.493 2326.44 288.056 2326.44 286.071H2325.77C2320.71 297.17 2314.26 305.246 2306.41 310.299C2298.65 315.352 2289.4 317.878 2278.66 317.878C2269.91 317.878 2262.47 316.435 2256.33 313.547C2250.2 310.66 2245.19 306.735 2241.31 301.772C2237.52 296.719 2234.77 290.763 2233.05 283.906C2231.34 277.048 2230.48 269.649 2230.48 261.708V168.723H2268.51ZM2496.98 315.171C2496.8 314.45 2496.58 313.186 2496.31 311.382C2496.13 309.487 2495.9 307.366 2495.63 305.02C2495.45 302.674 2495.27 300.283 2495.09 297.847C2495 295.41 2494.95 293.245 2494.95 291.35H2494.41C2489.99 300.824 2483.81 307.637 2475.87 311.788C2468.02 315.848 2458.59 317.878 2447.58 317.878C2438.38 317.878 2430.39 315.983 2423.62 312.194C2416.95 308.404 2411.4 303.125 2406.98 296.358C2402.64 289.59 2399.4 281.605 2397.23 272.401C2395.16 263.107 2394.12 253.001 2394.12 242.083C2394.12 230.984 2395.2 220.787 2397.37 211.493C2399.62 202.199 2403.05 194.214 2407.65 187.537C2412.25 180.769 2418.07 175.49 2425.11 171.701C2432.24 167.911 2440.68 166.016 2450.42 166.016C2455.21 166.016 2459.81 166.512 2464.23 167.505C2468.65 168.497 2472.76 170.031 2476.55 172.107C2480.34 174.182 2483.76 176.844 2486.83 180.092C2489.9 183.341 2492.52 187.266 2494.68 191.868H2494.95C2494.95 190.965 2494.91 189.657 2494.82 187.943C2494.82 186.138 2494.82 184.108 2494.82 181.852C2494.82 179.596 2494.77 177.25 2494.68 174.814C2494.68 172.377 2494.68 170.031 2494.68 167.775V114.312H2532.72V283.229C2532.72 290.357 2532.85 296.719 2533.12 302.313C2533.39 307.817 2533.62 312.103 2533.8 315.171H2496.98ZM2495.22 241.135C2495.22 231.48 2494.32 223.494 2492.52 217.178C2490.71 210.772 2488.32 205.719 2485.34 202.019C2482.46 198.229 2479.12 195.612 2475.33 194.169C2471.63 192.635 2467.84 191.868 2463.96 191.868C2459.09 191.868 2454.75 192.815 2450.96 194.71C2447.27 196.605 2444.11 199.583 2441.49 203.643C2438.96 207.704 2437.02 212.892 2435.67 219.208C2434.41 225.525 2433.78 233.149 2433.78 242.083C2433.78 275.288 2443.75 291.891 2463.69 291.891C2467.48 291.891 2471.27 291.079 2475.06 289.455C2478.85 287.831 2482.23 285.079 2485.21 281.199C2488.19 277.319 2490.58 272.13 2492.38 265.633C2494.28 259.046 2495.22 250.88 2495.22 241.135ZM2695 272.401C2695 279.439 2693.51 285.755 2690.53 291.35C2687.65 296.944 2683.41 301.727 2677.81 305.697C2672.22 309.577 2665.36 312.6 2657.24 314.765C2649.12 316.841 2639.87 317.878 2629.49 317.878C2620.2 317.878 2611.81 317.202 2604.32 315.848C2596.83 314.495 2590.24 312.284 2584.55 309.216C2578.96 306.058 2574.27 301.997 2570.48 297.035C2566.69 292.072 2563.85 285.936 2561.95 278.627L2595.38 273.619C2596.47 277.679 2597.95 280.973 2599.85 283.5C2601.74 286.026 2604.09 287.966 2606.89 289.32C2609.68 290.673 2612.93 291.575 2616.63 292.027C2620.42 292.478 2624.71 292.703 2629.49 292.703C2633.82 292.703 2637.84 292.478 2641.54 292.027C2645.33 291.485 2648.58 290.628 2651.28 289.455C2654.08 288.192 2656.25 286.477 2657.78 284.312C2659.31 282.056 2660.08 279.259 2660.08 275.92C2660.08 272.13 2658.95 269.152 2656.7 266.987C2654.53 264.731 2651.51 262.926 2647.63 261.573C2643.84 260.129 2639.33 258.911 2634.09 257.918C2628.95 256.836 2623.45 255.617 2617.58 254.264C2611.44 252.91 2605.4 251.286 2599.44 249.391C2593.49 247.496 2588.16 244.925 2583.47 241.676C2578.78 238.428 2574.99 234.322 2572.1 229.36C2569.22 224.307 2567.77 217.945 2567.77 210.275C2567.77 203.327 2569.12 197.146 2571.83 191.732C2574.54 186.228 2578.51 181.581 2583.74 177.791C2588.98 173.911 2595.43 170.979 2603.1 168.994C2610.86 166.918 2619.75 165.881 2629.76 165.881C2637.7 165.881 2645.1 166.648 2651.96 168.182C2658.82 169.625 2664.95 171.971 2670.37 175.22C2675.78 178.378 2680.29 182.438 2683.9 187.401C2687.6 192.364 2690.17 198.365 2691.62 205.403L2657.91 208.922C2657.28 205.403 2656.15 202.515 2654.53 200.259C2652.91 197.913 2650.88 196.064 2648.44 194.71C2646.09 193.357 2643.34 192.454 2640.18 192.003C2637.03 191.462 2633.55 191.191 2629.76 191.191C2620.74 191.191 2613.97 192.364 2609.46 194.71C2604.95 196.966 2602.69 200.801 2602.69 206.215C2602.69 209.553 2603.59 212.215 2605.4 214.2C2607.29 216.186 2609.91 217.855 2613.25 219.208C2616.68 220.472 2620.69 221.6 2625.3 222.592C2629.99 223.494 2635.09 224.622 2640.59 225.976C2647.36 227.42 2653.99 229.134 2660.49 231.119C2667.07 233.014 2672.89 235.676 2677.95 239.105C2683.09 242.443 2687.2 246.775 2690.26 252.098C2693.42 257.422 2695 264.19 2695 272.401Z" fill="#024D5F"/>
<path d="M725.384 644.568C725.384 637.202 726.367 630.55 728.331 624.613C730.34 618.676 733.308 613.631 737.237 609.48C741.21 605.283 746.121 602.069 751.969 599.837C757.817 597.56 764.602 596.422 772.325 596.422C778.129 596.422 783.218 596.935 787.593 597.962C791.968 598.989 795.762 600.462 798.976 602.381C802.19 604.301 804.914 606.645 807.146 609.413C809.378 612.136 811.275 615.216 812.838 618.653L800.65 622.269C799.49 619.948 798.083 617.85 796.432 615.975C794.825 614.055 792.86 612.426 790.539 611.087C788.218 609.747 785.517 608.721 782.437 608.006C779.401 607.247 775.919 606.868 771.99 606.868C766.276 606.868 761.299 607.761 757.058 609.546C752.861 611.332 749.379 613.877 746.612 617.18C743.844 620.484 741.768 624.457 740.384 629.1C739.045 633.742 738.375 638.898 738.375 644.568C738.375 650.237 739.112 655.438 740.585 660.17C742.058 664.858 744.246 668.92 747.147 672.357C750.049 675.75 753.643 678.406 757.928 680.326C762.258 682.201 767.258 683.138 772.928 683.138C776.633 683.138 780.048 682.826 783.173 682.201C786.298 681.576 789.11 680.772 791.61 679.79C794.155 678.763 796.387 677.647 798.307 676.442C800.226 675.192 801.833 673.942 803.128 672.692V655.684H774.937V644.97H814.913V677.513C812.815 679.656 810.338 681.71 807.481 683.674C804.668 685.594 801.499 687.29 797.972 688.763C794.445 690.236 790.584 691.397 786.387 692.245C782.191 693.093 777.704 693.517 772.928 693.517C764.982 693.517 758.04 692.312 752.102 689.901C746.165 687.446 741.21 684.053 737.237 679.723C733.308 675.348 730.34 670.17 728.331 664.188C726.367 658.206 725.384 651.666 725.384 644.568ZM837.881 692.178V597.828H850.671V692.178H837.881ZM948.571 666.13C948.571 670.103 947.789 673.764 946.227 677.112C944.709 680.46 942.343 683.361 939.129 685.817C935.915 688.227 931.852 690.125 926.942 691.509C922.076 692.848 916.295 693.517 909.598 693.517C897.858 693.517 888.706 691.464 882.144 687.357C875.581 683.25 871.407 677.313 869.622 669.545L882.01 667.067C882.635 669.523 883.595 671.755 884.889 673.764C886.184 675.772 887.925 677.513 890.112 678.987C892.344 680.415 895.09 681.531 898.349 682.335C901.607 683.138 905.514 683.54 910.067 683.54C913.862 683.54 917.344 683.228 920.513 682.603C923.683 681.933 926.406 680.929 928.683 679.589C930.959 678.25 932.723 676.531 933.973 674.433C935.267 672.29 935.915 669.746 935.915 666.799C935.915 663.719 935.2 661.219 933.772 659.3C932.388 657.38 930.424 655.795 927.879 654.545C925.335 653.295 922.299 652.246 918.772 651.398C915.246 650.55 911.339 649.635 907.054 648.653C904.42 648.072 901.764 647.447 899.085 646.778C896.451 646.063 893.907 645.237 891.452 644.3C889.041 643.318 886.764 642.18 884.621 640.885C882.479 639.59 880.626 638.05 879.063 636.265C877.501 634.434 876.273 632.336 875.381 629.97C874.488 627.559 874.041 624.792 874.041 621.667C874.041 617.203 874.934 613.386 876.72 610.216C878.55 607.002 881.072 604.368 884.287 602.315C887.501 600.261 891.295 598.765 895.67 597.828C900.045 596.891 904.777 596.422 909.866 596.422C915.714 596.422 920.714 596.891 924.866 597.828C929.017 598.721 932.522 600.082 935.379 601.913C938.236 603.743 940.513 606.02 942.209 608.743C943.95 611.421 945.334 614.546 946.361 618.118L933.772 620.327C933.147 618.051 932.232 616.02 931.026 614.234C929.866 612.448 928.326 610.953 926.406 609.747C924.486 608.542 922.143 607.627 919.375 607.002C916.652 606.377 913.438 606.064 909.732 606.064C905.357 606.064 901.674 606.466 898.683 607.27C895.737 608.029 893.349 609.078 891.518 610.417C889.733 611.756 888.438 613.341 887.635 615.171C886.876 616.957 886.496 618.899 886.496 620.997C886.496 623.809 887.188 626.131 888.572 627.961C890.001 629.747 891.92 631.242 894.331 632.448C896.742 633.653 899.532 634.657 902.701 635.461C905.871 636.265 909.241 637.068 912.813 637.872C915.714 638.541 918.594 639.233 921.451 639.947C924.352 640.617 927.12 641.443 929.754 642.425C932.388 643.363 934.843 644.479 937.12 645.773C939.441 647.068 941.45 648.653 943.147 650.528C944.843 652.402 946.16 654.612 947.097 657.157C948.079 659.701 948.571 662.692 948.571 666.13ZM1077.27 626.22C1077.27 630.327 1076.58 634.166 1075.2 637.738C1073.86 641.264 1071.83 644.345 1069.1 646.979C1066.42 649.568 1063.05 651.621 1058.99 653.139C1054.93 654.657 1050.2 655.416 1044.8 655.416H1017.07V692.178H1004.28V597.828H1043.99C1049.57 597.828 1054.44 598.52 1058.59 599.904C1062.74 601.243 1066.2 603.163 1068.97 605.663C1071.74 608.118 1073.81 611.109 1075.2 614.636C1076.58 618.118 1077.27 621.979 1077.27 626.22ZM1064.42 626.354C1064.42 620.372 1062.59 615.841 1058.92 612.761C1055.26 609.636 1049.77 608.073 1042.45 608.073H1017.07V645.304H1042.99C1050.35 645.304 1055.76 643.675 1059.19 640.416C1062.67 637.157 1064.42 632.47 1064.42 626.354ZM1095.75 692.178V597.828H1108.54V681.732H1156.22V692.178H1095.75ZM1238.99 692.178L1228.21 664.59H1185.22L1174.37 692.178H1161.11L1199.61 597.828H1214.14L1252.04 692.178H1238.99ZM1212.27 623.475C1211.55 621.689 1210.86 619.881 1210.19 618.051C1209.57 616.22 1209.01 614.569 1208.52 613.095C1208.03 611.578 1207.6 610.328 1207.25 609.346C1206.93 608.319 1206.76 607.694 1206.71 607.471C1206.62 607.694 1206.42 608.319 1206.11 609.346C1205.8 610.372 1205.37 611.645 1204.84 613.162C1204.35 614.68 1203.76 616.354 1203.1 618.185C1202.47 620.015 1201.82 621.823 1201.15 623.609L1189.1 654.612H1224.39L1212.27 623.475ZM1294.16 653.072V692.178H1281.44V653.072L1245.15 597.828H1259.21L1287.94 642.76L1316.53 597.828H1330.59L1294.16 653.072ZM1340.5 644.568C1340.5 637.202 1341.48 630.55 1343.45 624.613C1345.46 618.676 1348.43 613.631 1352.35 609.48C1356.33 605.283 1361.24 602.069 1367.09 599.837C1372.93 597.56 1379.72 596.422 1387.44 596.422C1393.25 596.422 1398.34 596.935 1402.71 597.962C1407.09 598.989 1410.88 600.462 1414.09 602.381C1417.31 604.301 1420.03 606.645 1422.26 609.413C1424.5 612.136 1426.39 615.216 1427.96 618.653L1415.77 622.269C1414.61 619.948 1413.2 617.85 1411.55 615.975C1409.94 614.055 1407.98 612.426 1405.66 611.087C1403.34 609.747 1400.63 608.721 1397.55 608.006C1394.52 607.247 1391.04 606.868 1387.11 606.868C1381.39 606.868 1376.42 607.761 1372.18 609.546C1367.98 611.332 1364.5 613.877 1361.73 617.18C1358.96 620.484 1356.89 624.457 1355.5 629.1C1354.16 633.742 1353.49 638.898 1353.49 644.568C1353.49 650.237 1354.23 655.438 1355.7 660.17C1357.18 664.858 1359.36 668.92 1362.27 672.357C1365.17 675.75 1368.76 678.406 1373.05 680.326C1377.38 682.201 1382.38 683.138 1388.05 683.138C1391.75 683.138 1395.17 682.826 1398.29 682.201C1401.42 681.576 1404.23 680.772 1406.73 679.79C1409.27 678.763 1411.5 677.647 1413.42 676.442C1415.34 675.192 1416.95 673.942 1418.25 672.692V655.684H1390.05V644.97H1430.03V677.513C1427.93 679.656 1425.46 681.71 1422.6 683.674C1419.79 685.594 1416.62 687.29 1413.09 688.763C1409.56 690.236 1405.7 691.397 1401.51 692.245C1397.31 693.093 1392.82 693.517 1388.05 693.517C1380.1 693.517 1373.16 692.312 1367.22 689.901C1361.28 687.446 1356.33 684.053 1352.35 679.723C1348.43 675.348 1345.46 670.17 1343.45 664.188C1341.48 658.206 1340.5 651.666 1340.5 644.568ZM1518.29 692.178L1493.78 653.005H1464.38V692.178H1451.59V597.828H1495.99C1501.35 597.828 1506.08 598.453 1510.19 599.703C1514.34 600.908 1517.82 602.672 1520.63 604.993C1523.44 607.314 1525.59 610.149 1527.06 613.497C1528.53 616.845 1529.27 620.618 1529.27 624.814C1529.27 627.805 1528.82 630.751 1527.93 633.653C1527.08 636.555 1525.72 639.211 1523.85 641.622C1521.97 644.032 1519.58 646.108 1516.68 647.849C1513.78 649.59 1510.3 650.818 1506.23 651.532L1533.02 692.178H1518.29ZM1516.41 624.948C1516.41 622.091 1515.92 619.613 1514.94 617.515C1513.96 615.417 1512.53 613.676 1510.65 612.292C1508.78 610.863 1506.5 609.814 1503.82 609.145C1501.15 608.43 1498.11 608.073 1494.72 608.073H1464.38V642.894H1495.25C1498.91 642.894 1502.08 642.447 1504.76 641.555C1507.44 640.617 1509.63 639.345 1511.32 637.738C1513.06 636.131 1514.34 634.233 1515.14 632.046C1515.99 629.858 1516.41 627.492 1516.41 624.948ZM1639.56 644.568C1639.56 651.934 1638.49 658.63 1636.34 664.657C1634.24 670.683 1631.19 675.839 1627.17 680.125C1623.15 684.411 1618.24 687.714 1612.44 690.035C1606.63 692.357 1600.05 693.517 1592.68 693.517C1584.92 693.517 1578.11 692.312 1572.26 689.901C1566.41 687.446 1561.55 684.053 1557.66 679.723C1553.78 675.348 1550.85 670.17 1548.89 664.188C1546.93 658.206 1545.94 651.666 1545.94 644.568C1545.94 637.202 1546.97 630.55 1549.02 624.613C1551.08 618.676 1554.09 613.631 1558.06 609.48C1562.04 605.283 1566.92 602.069 1572.73 599.837C1578.58 597.56 1585.27 596.422 1592.82 596.422C1600.32 596.422 1606.97 597.56 1612.77 599.837C1618.62 602.114 1623.51 605.35 1627.44 609.546C1631.41 613.743 1634.42 618.81 1636.48 624.747C1638.53 630.684 1639.56 637.291 1639.56 644.568ZM1626.5 644.568C1626.5 638.898 1625.76 633.742 1624.29 629.1C1622.86 624.457 1620.72 620.484 1617.86 617.18C1615.05 613.877 1611.54 611.332 1607.35 609.546C1603.15 607.761 1598.31 606.868 1592.82 606.868C1587.19 606.868 1582.26 607.761 1578.02 609.546C1573.78 611.332 1570.23 613.877 1567.37 617.18C1564.56 620.484 1562.44 624.457 1561.01 629.1C1559.63 633.742 1558.93 638.898 1558.93 644.568C1558.93 650.237 1559.65 655.438 1561.08 660.17C1562.55 664.858 1564.69 668.92 1567.51 672.357C1570.36 675.75 1573.89 678.406 1578.09 680.326C1582.33 682.201 1587.19 683.138 1592.68 683.138C1598.58 683.138 1603.64 682.178 1607.88 680.259C1612.17 678.339 1615.67 675.683 1618.4 672.29C1621.16 668.853 1623.2 664.768 1624.49 660.036C1625.83 655.304 1626.5 650.148 1626.5 644.568ZM1695.14 693.517C1689.96 693.517 1685.05 692.826 1680.4 691.442C1675.76 690.058 1671.68 687.915 1668.15 685.013C1664.67 682.067 1661.9 678.362 1659.85 673.897C1657.79 669.389 1656.77 664.054 1656.77 657.893V597.828H1669.56V656.822C1669.56 661.599 1670.18 665.661 1671.43 669.009C1672.73 672.313 1674.51 675.013 1676.79 677.112C1679.06 679.21 1681.74 680.75 1684.82 681.732C1687.95 682.67 1691.36 683.138 1695.07 683.138C1698.73 683.138 1702.19 682.647 1705.45 681.665C1708.71 680.683 1711.56 679.121 1714.02 676.978C1716.47 674.835 1718.39 672.045 1719.78 668.607C1721.21 665.125 1721.92 660.907 1721.92 655.951V597.828H1734.64V656.688C1734.64 662.983 1733.59 668.451 1731.5 673.094C1729.44 677.692 1726.63 681.509 1723.06 684.544C1719.49 687.58 1715.29 689.835 1710.47 691.308C1705.69 692.781 1700.58 693.517 1695.14 693.517ZM1817.74 692.178L1767.25 611.823C1767.34 614.011 1767.46 616.176 1767.59 618.319C1767.68 620.149 1767.75 622.091 1767.79 624.144C1767.88 626.153 1767.92 627.939 1767.92 629.501V692.178H1756.54V597.828H1771.41L1822.43 678.719C1822.3 676.531 1822.16 674.344 1822.03 672.156C1821.94 670.281 1821.85 668.25 1821.76 666.063C1821.67 663.831 1821.63 661.71 1821.63 659.701V597.828H1833.15V692.178H1817.74ZM1936.87 644.032C1936.87 651.889 1935.69 658.831 1933.32 664.858C1930.96 670.839 1927.72 675.862 1923.61 679.924C1919.5 683.942 1914.64 687 1909.01 689.098C1903.43 691.151 1897.41 692.178 1890.93 692.178H1855.64V597.828H1886.85C1894.13 597.828 1900.82 598.743 1906.94 600.573C1913.1 602.359 1918.39 605.149 1922.81 608.944C1927.23 612.694 1930.67 617.47 1933.12 623.274C1935.62 629.077 1936.87 635.997 1936.87 644.032ZM1924.01 644.032C1924.01 637.648 1923.1 632.202 1921.27 627.693C1919.44 623.14 1916.87 619.412 1913.57 616.511C1910.26 613.609 1906.31 611.488 1901.72 610.149C1897.12 608.765 1892.07 608.073 1886.58 608.073H1868.43V681.933H1889.46C1894.42 681.933 1898.99 681.129 1903.19 679.522C1907.43 677.915 1911.09 675.527 1914.17 672.357C1917.25 669.188 1919.66 665.237 1921.4 660.505C1923.14 655.773 1924.01 650.282 1924.01 644.032ZM1969.28 677.513V688.763C1969.28 691.129 1969.17 693.272 1968.95 695.192C1968.77 697.156 1968.45 698.964 1968.01 700.616C1967.56 702.312 1967 703.897 1966.33 705.37C1965.71 706.843 1964.95 708.294 1964.06 709.722H1955.82C1957.83 706.821 1959.37 703.897 1960.44 700.95C1961.56 698.004 1962.12 695.08 1962.12 692.178H1956.22V677.513H1969.28ZM2090.08 666.13C2090.08 670.46 2089.37 674.322 2087.94 677.714C2086.55 681.107 2084.5 683.986 2081.78 686.352C2079.1 688.674 2075.75 690.46 2071.73 691.709C2067.76 692.915 2063.21 693.517 2058.07 693.517C2052.22 693.517 2047.29 692.803 2043.27 691.375C2039.3 689.901 2036.02 687.982 2033.43 685.616C2030.84 683.205 2028.9 680.482 2027.6 677.446C2026.31 674.366 2025.46 671.197 2025.06 667.938L2037.52 666.799C2037.87 669.299 2038.52 671.576 2039.46 673.63C2040.44 675.683 2041.76 677.446 2043.41 678.92C2045.06 680.393 2047.09 681.531 2049.5 682.335C2051.91 683.138 2054.77 683.54 2058.07 683.54C2064.14 683.54 2068.9 682.045 2072.34 679.054C2075.82 676.063 2077.56 671.621 2077.56 665.728C2077.56 662.246 2076.78 659.456 2075.22 657.358C2073.7 655.215 2071.78 653.563 2069.46 652.402C2067.18 651.197 2064.68 650.394 2061.96 649.992C2059.28 649.59 2056.8 649.389 2054.52 649.389H2047.69V638.943H2054.26C2056.53 638.943 2058.9 638.72 2061.35 638.273C2063.81 637.782 2066.04 636.934 2068.05 635.729C2070.1 634.479 2071.78 632.805 2073.07 630.707C2074.41 628.608 2075.08 625.93 2075.08 622.671C2075.08 617.627 2073.59 613.654 2070.59 610.752C2067.65 607.805 2063.25 606.332 2057.4 606.332C2052.09 606.332 2047.78 607.694 2044.48 610.417C2041.22 613.14 2039.32 616.979 2038.79 621.935L2026.67 620.997C2027.16 616.845 2028.3 613.229 2030.08 610.149C2031.87 607.069 2034.12 604.524 2036.85 602.515C2039.61 600.462 2042.76 598.944 2046.29 597.962C2049.81 596.935 2053.56 596.422 2057.54 596.422C2062.8 596.422 2067.34 597.091 2071.13 598.431C2074.92 599.725 2078.03 601.511 2080.44 603.788C2082.85 606.02 2084.61 608.654 2085.73 611.689C2086.89 614.725 2087.47 617.961 2087.47 621.399C2087.47 624.167 2087.09 626.756 2086.33 629.166C2085.57 631.577 2084.39 633.742 2082.78 635.662C2081.17 637.581 2079.12 639.233 2076.62 640.617C2074.17 642.001 2071.2 643.05 2067.72 643.764V644.032C2071.51 644.434 2074.81 645.304 2077.63 646.644C2080.44 647.938 2082.76 649.568 2084.59 651.532C2086.42 653.496 2087.78 655.728 2088.67 658.228C2089.61 660.728 2090.08 663.362 2090.08 666.13ZM2188.65 644.032C2188.65 651.889 2187.47 658.831 2185.1 664.858C2182.73 670.839 2179.5 675.862 2175.39 679.924C2171.28 683.942 2166.42 687 2160.79 689.098C2155.21 691.151 2149.19 692.178 2142.71 692.178H2107.42V597.828H2138.63C2145.91 597.828 2152.6 598.743 2158.72 600.573C2164.88 602.359 2170.17 605.149 2174.59 608.944C2179.01 612.694 2182.44 617.47 2184.9 623.274C2187.4 629.077 2188.65 635.997 2188.65 644.032ZM2175.79 644.032C2175.79 637.648 2174.88 632.202 2173.05 627.693C2171.22 623.14 2168.65 619.412 2165.35 616.511C2162.04 613.609 2158.09 611.488 2153.49 610.149C2148.9 608.765 2143.85 608.073 2138.36 608.073H2120.21V681.933H2141.24C2146.2 681.933 2150.77 681.129 2154.97 679.522C2159.21 677.915 2162.87 675.527 2165.95 672.357C2169.03 669.188 2171.44 665.237 2173.18 660.505C2174.92 655.773 2175.79 650.282 2175.79 644.032ZM2324.92 692.178V629.233C2324.92 626.957 2324.94 624.635 2324.99 622.269C2325.03 619.903 2325.1 617.738 2325.19 615.774C2325.28 613.497 2325.39 611.287 2325.52 609.145C2324.9 611.421 2324.25 613.676 2323.58 615.908C2323 617.827 2322.35 619.881 2321.64 622.068C2320.97 624.211 2320.3 626.153 2319.63 627.894L2295.25 692.178H2286.28L2261.57 627.894C2261.3 627.225 2261.01 626.443 2260.7 625.551C2260.43 624.658 2260.12 623.72 2259.76 622.738C2259.45 621.711 2259.12 620.685 2258.76 619.658C2258.45 618.586 2258.13 617.537 2257.82 616.511C2257.06 614.145 2256.33 611.689 2255.61 609.145C2255.66 611.645 2255.72 614.122 2255.81 616.578C2255.9 618.676 2255.97 620.885 2256.01 623.207C2256.06 625.484 2256.08 627.492 2256.08 629.233V692.178H2244.7V597.828H2261.5L2286.62 663.25C2286.93 664.143 2287.31 665.304 2287.75 666.732C2288.2 668.116 2288.62 669.545 2289.03 671.018C2289.43 672.491 2289.79 673.897 2290.1 675.237C2290.45 676.531 2290.7 677.536 2290.83 678.25C2290.97 677.536 2291.21 676.509 2291.57 675.17C2291.93 673.83 2292.33 672.424 2292.78 670.951C2293.27 669.478 2293.74 668.049 2294.18 666.666C2294.63 665.282 2295.03 664.143 2295.39 663.25L2320.03 597.828H2336.44V692.178H2324.92ZM2425.83 692.178L2415.05 664.59H2372.06L2361.21 692.178H2347.95L2386.46 597.828H2400.99L2438.89 692.178H2425.83ZM2399.11 623.475C2398.4 621.689 2397.71 619.881 2397.04 618.051C2396.41 616.22 2395.85 614.569 2395.36 613.095C2394.87 611.578 2394.45 610.328 2394.09 609.346C2393.78 608.319 2393.6 607.694 2393.55 607.471C2393.47 607.694 2393.26 608.319 2392.95 609.346C2392.64 610.372 2392.22 611.645 2391.68 613.162C2391.19 614.68 2390.61 616.354 2389.94 618.185C2389.31 620.015 2388.67 621.823 2388 623.609L2375.94 654.612H2411.23L2399.11 623.475ZM2523.4 626.22C2523.4 630.327 2522.7 634.166 2521.32 637.738C2519.98 641.264 2517.95 644.345 2515.23 646.979C2512.55 649.568 2509.18 651.621 2505.11 653.139C2501.05 654.657 2496.32 655.416 2490.92 655.416H2463.2V692.178H2450.41V597.828H2490.11C2495.7 597.828 2500.56 598.52 2504.71 599.904C2508.86 601.243 2512.32 603.163 2515.09 605.663C2517.86 608.118 2519.94 611.109 2521.32 614.636C2522.7 618.118 2523.4 621.979 2523.4 626.22ZM2510.54 626.354C2510.54 620.372 2508.71 615.841 2505.05 612.761C2501.39 609.636 2495.9 608.073 2488.57 608.073H2463.2V645.304H2489.11C2496.48 645.304 2501.88 643.675 2505.32 640.416C2508.8 637.157 2510.54 632.47 2510.54 626.354ZM2615.8 666.13C2615.8 670.103 2615.02 673.764 2613.46 677.112C2611.94 680.46 2609.58 683.361 2606.36 685.817C2603.15 688.227 2599.09 690.125 2594.17 691.509C2589.31 692.848 2583.53 693.517 2576.83 693.517C2565.09 693.517 2555.94 691.464 2549.38 687.357C2542.81 683.25 2538.64 677.313 2536.85 669.545L2549.24 667.067C2549.87 669.523 2550.83 671.755 2552.12 673.764C2553.42 675.772 2555.16 677.513 2557.35 678.987C2559.58 680.415 2562.32 681.531 2565.58 682.335C2568.84 683.138 2572.75 683.54 2577.3 683.54C2581.09 683.54 2584.58 683.228 2587.75 682.603C2590.92 681.933 2593.64 680.929 2595.92 679.589C2598.19 678.25 2599.96 676.531 2601.21 674.433C2602.5 672.29 2603.15 669.746 2603.15 666.799C2603.15 663.719 2602.43 661.219 2601 659.3C2599.62 657.38 2597.66 655.795 2595.11 654.545C2592.57 653.295 2589.53 652.246 2586.01 651.398C2582.48 650.55 2578.57 649.635 2574.29 648.653C2571.65 648.072 2569 647.447 2566.32 646.778C2563.68 646.063 2561.14 645.237 2558.68 644.3C2556.27 643.318 2554 642.18 2551.85 640.885C2549.71 639.59 2547.86 638.05 2546.3 636.265C2544.73 634.434 2543.51 632.336 2542.61 629.97C2541.72 627.559 2541.27 624.792 2541.27 621.667C2541.27 617.203 2542.17 613.386 2543.95 610.216C2545.78 607.002 2548.31 604.368 2551.52 602.315C2554.73 600.261 2558.53 598.765 2562.9 597.828C2567.28 596.891 2572.01 596.422 2577.1 596.422C2582.95 596.422 2587.95 596.891 2592.1 597.828C2596.25 598.721 2599.75 600.082 2602.61 601.913C2605.47 603.743 2607.75 606.02 2609.44 608.743C2611.18 611.421 2612.57 614.546 2613.59 618.118L2601 620.327C2600.38 618.051 2599.46 616.02 2598.26 614.234C2597.1 612.448 2595.56 610.953 2593.64 609.747C2591.72 608.542 2589.38 607.627 2586.61 607.002C2583.88 606.377 2580.67 606.064 2576.97 606.064C2572.59 606.064 2568.91 606.466 2565.92 607.27C2562.97 608.029 2560.58 609.078 2558.75 610.417C2556.97 611.756 2555.67 613.341 2554.87 615.171C2554.11 616.957 2553.73 618.899 2553.73 620.997C2553.73 623.809 2554.42 626.131 2555.81 627.961C2557.23 629.747 2559.15 631.242 2561.56 632.448C2563.97 633.653 2566.76 634.657 2569.93 635.461C2573.1 636.265 2576.47 637.068 2580.05 637.872C2582.95 638.541 2585.83 639.233 2588.68 639.947C2591.59 640.617 2594.35 641.443 2596.99 642.425C2599.62 643.363 2602.08 644.479 2604.35 645.773C2606.67 647.068 2608.68 648.653 2610.38 650.528C2612.08 652.402 2613.39 654.612 2614.33 657.157C2615.31 659.701 2615.8 662.692 2615.8 666.13ZM2730.78 692.178L2720 664.59H2677.01L2666.16 692.178H2652.9L2691.4 597.828H2705.94L2743.84 692.178H2730.78ZM2704.06 623.475C2703.35 621.689 2702.65 619.881 2701.98 618.051C2701.36 616.22 2700.8 614.569 2700.31 613.095C2699.82 611.578 2699.4 610.328 2699.04 609.346C2698.73 608.319 2698.55 607.694 2698.5 607.471C2698.41 607.694 2698.21 608.319 2697.9 609.346C2697.59 610.372 2697.16 611.645 2696.63 613.162C2696.14 614.68 2695.56 616.354 2694.89 618.185C2694.26 620.015 2693.61 621.823 2692.94 623.609L2680.89 654.612H2716.18L2704.06 623.475ZM2816.56 692.178L2766.07 611.823C2766.16 614.011 2766.27 616.176 2766.4 618.319C2766.49 620.149 2766.56 622.091 2766.6 624.144C2766.69 626.153 2766.74 627.939 2766.74 629.501V692.178H2755.35V597.828H2770.22L2821.24 678.719C2821.11 676.531 2820.98 674.344 2820.84 672.156C2820.75 670.281 2820.66 668.25 2820.57 666.063C2820.49 663.831 2820.44 661.71 2820.44 659.701V597.828H2831.96V692.178H2816.56ZM2935.68 644.032C2935.68 651.889 2934.5 658.831 2932.13 664.858C2929.77 670.839 2926.53 675.862 2922.42 679.924C2918.32 683.942 2913.45 687 2907.83 689.098C2902.25 691.151 2896.22 692.178 2889.75 692.178H2854.46V597.828H2885.66C2892.94 597.828 2899.64 598.743 2905.75 600.573C2911.91 602.359 2917.2 605.149 2921.62 608.944C2926.04 612.694 2929.48 617.47 2931.93 623.274C2934.43 629.077 2935.68 635.997 2935.68 644.032ZM2922.83 644.032C2922.83 637.648 2921.91 632.202 2920.08 627.693C2918.25 623.14 2915.68 619.412 2912.38 616.511C2909.08 613.609 2905.13 611.488 2900.53 610.149C2895.93 608.765 2890.89 608.073 2885.39 608.073H2867.25V681.933H2888.27C2893.23 681.933 2897.81 681.129 2902 679.522C2906.24 677.915 2909.9 675.527 2912.98 672.357C2916.06 669.188 2918.47 665.237 2920.22 660.505C2921.96 655.773 2922.83 650.282 2922.83 644.032ZM2987.38 644.568C2987.38 637.202 2988.36 630.55 2990.32 624.613C2992.33 618.676 2995.3 613.631 2999.23 609.48C3003.2 605.283 3008.11 602.069 3013.96 599.837C3019.81 597.56 3026.6 596.422 3034.32 596.422C3040.12 596.422 3045.21 596.935 3049.59 597.962C3053.96 598.989 3057.76 600.462 3060.97 602.381C3064.18 604.301 3066.91 606.645 3069.14 609.413C3071.37 612.136 3073.27 615.216 3074.83 618.653L3062.64 622.269C3061.48 619.948 3060.08 617.85 3058.43 615.975C3056.82 614.055 3054.85 612.426 3052.53 611.087C3050.21 609.747 3047.51 608.721 3044.43 608.006C3041.4 607.247 3037.91 606.868 3033.98 606.868C3028.27 606.868 3023.29 607.761 3019.05 609.546C3014.86 611.332 3011.37 613.877 3008.61 617.18C3005.84 620.484 3003.76 624.457 3002.38 629.1C3001.04 633.742 3000.37 638.898 3000.37 644.568C3000.37 650.237 3001.11 655.438 3002.58 660.17C3004.05 664.858 3006.24 668.92 3009.14 672.357C3012.04 675.75 3015.64 678.406 3019.92 680.326C3024.25 682.201 3029.25 683.138 3034.92 683.138C3038.63 683.138 3042.04 682.826 3045.17 682.201C3048.29 681.576 3051.1 680.772 3053.6 679.79C3056.15 678.763 3058.38 677.647 3060.3 676.442C3062.22 675.192 3063.83 673.942 3065.12 672.692V655.684H3036.93V644.97H3076.91V677.513C3074.81 679.656 3072.33 681.71 3069.47 683.674C3066.66 685.594 3063.49 687.29 3059.97 688.763C3056.44 690.236 3052.58 691.397 3048.38 692.245C3044.19 693.093 3039.7 693.517 3034.92 693.517C3026.98 693.517 3020.03 692.312 3014.1 689.901C3008.16 687.446 3003.2 684.053 2999.23 679.723C2995.3 675.348 2992.33 670.17 2990.32 664.188C2988.36 658.206 2987.38 651.666 2987.38 644.568ZM3165.16 692.178L3140.66 653.005H3111.26V692.178H3098.47V597.828H3142.87C3148.22 597.828 3152.95 598.453 3157.06 599.703C3161.21 600.908 3164.7 602.672 3167.51 604.993C3170.32 607.314 3172.46 610.149 3173.94 613.497C3175.41 616.845 3176.15 620.618 3176.15 624.814C3176.15 627.805 3175.7 630.751 3174.81 633.653C3173.96 636.555 3172.6 639.211 3170.72 641.622C3168.85 644.032 3166.46 646.108 3163.56 647.849C3160.66 649.59 3157.17 650.818 3153.11 651.532L3179.9 692.178H3165.16ZM3163.29 624.948C3163.29 622.091 3162.8 619.613 3161.82 617.515C3160.83 615.417 3159.41 613.676 3157.53 612.292C3155.66 610.863 3153.38 609.814 3150.7 609.145C3148.02 608.43 3144.99 608.073 3141.59 608.073H3111.26V642.894H3142.13C3145.79 642.894 3148.96 642.447 3151.64 641.555C3154.32 640.617 3156.5 639.345 3158.2 637.738C3159.94 636.131 3161.21 634.233 3162.02 632.046C3162.87 629.858 3163.29 627.492 3163.29 624.948ZM3286.43 644.568C3286.43 651.934 3285.36 658.63 3283.22 664.657C3281.12 670.683 3278.06 675.839 3274.05 680.125C3270.03 684.411 3265.12 687.714 3259.31 690.035C3253.51 692.357 3246.93 693.517 3239.56 693.517C3231.79 693.517 3224.98 692.312 3219.14 689.901C3213.29 687.446 3208.42 684.053 3204.54 679.723C3200.65 675.348 3197.73 670.17 3195.77 664.188C3193.8 658.206 3192.82 651.666 3192.82 644.568C3192.82 637.202 3193.85 630.55 3195.9 624.613C3197.95 618.676 3200.97 613.631 3204.94 609.48C3208.91 605.283 3213.8 602.069 3219.6 599.837C3225.45 597.56 3232.15 596.422 3239.69 596.422C3247.19 596.422 3253.84 597.56 3259.65 599.837C3265.5 602.114 3270.38 605.35 3274.31 609.546C3278.29 613.743 3281.3 618.81 3283.35 624.747C3285.41 630.684 3286.43 637.291 3286.43 644.568ZM3273.38 644.568C3273.38 638.898 3272.64 633.742 3271.17 629.1C3269.74 624.457 3267.59 620.484 3264.74 617.18C3261.92 613.877 3258.42 611.332 3254.22 609.546C3250.03 607.761 3245.18 606.868 3239.69 606.868C3234.07 606.868 3229.14 607.761 3224.89 609.546C3220.65 611.332 3217.1 613.877 3214.25 617.18C3211.44 620.484 3209.31 624.457 3207.89 629.1C3206.5 633.742 3205.81 638.898 3205.81 644.568C3205.81 650.237 3206.52 655.438 3207.95 660.17C3209.43 664.858 3211.57 668.92 3214.38 672.357C3217.24 675.75 3220.77 678.406 3224.96 680.326C3229.2 682.201 3234.07 683.138 3239.56 683.138C3245.45 683.138 3250.52 682.178 3254.76 680.259C3259.05 678.339 3262.55 675.683 3265.27 672.29C3268.04 668.853 3270.07 664.768 3271.37 660.036C3272.71 655.304 3273.38 650.148 3273.38 644.568ZM3393.17 644.568C3393.17 651.934 3392.1 658.63 3389.96 664.657C3387.86 670.683 3384.8 675.839 3380.78 680.125C3376.77 684.411 3371.86 687.714 3366.05 690.035C3360.25 692.357 3353.66 693.517 3346.3 693.517C3338.53 693.517 3331.72 692.312 3325.87 689.901C3320.03 687.446 3315.16 684.053 3311.28 679.723C3307.39 675.348 3304.47 670.17 3302.5 664.188C3300.54 658.206 3299.56 651.666 3299.56 644.568C3299.56 637.202 3300.58 630.55 3302.64 624.613C3304.69 618.676 3307.7 613.631 3311.68 609.48C3315.65 605.283 3320.54 602.069 3326.34 599.837C3332.19 597.56 3338.89 596.422 3346.43 596.422C3353.93 596.422 3360.58 597.56 3366.39 599.837C3372.23 602.114 3377.12 605.35 3381.05 609.546C3385.02 613.743 3388.04 618.81 3390.09 624.747C3392.14 630.684 3393.17 637.291 3393.17 644.568ZM3380.11 644.568C3380.11 638.898 3379.38 633.742 3377.9 629.1C3376.48 624.457 3374.33 620.484 3371.48 617.18C3368.66 613.877 3365.16 611.332 3360.96 609.546C3356.77 607.761 3351.92 606.868 3346.43 606.868C3340.81 606.868 3335.87 607.761 3331.63 609.546C3327.39 611.332 3323.84 613.877 3320.99 617.18C3318.17 620.484 3316.05 624.457 3314.62 629.1C3313.24 633.742 3312.55 638.898 3312.55 644.568C3312.55 650.237 3313.26 655.438 3314.69 660.17C3316.16 664.858 3318.31 668.92 3321.12 672.357C3323.98 675.75 3327.5 678.406 3331.7 680.326C3335.94 682.201 3340.81 683.138 3346.3 683.138C3352.19 683.138 3357.26 682.178 3361.5 680.259C3365.78 678.339 3369.29 675.683 3372.01 672.29C3374.78 668.853 3376.81 664.768 3378.1 660.036C3379.44 655.304 3380.11 650.148 3380.11 644.568ZM3452.17 692.178H3438.91L3400.4 597.828H3413.86L3439.98 664.255C3440.65 666.264 3441.32 668.273 3441.99 670.281C3442.66 672.246 3443.26 674.009 3443.8 675.572C3444.42 677.402 3445.02 679.187 3445.6 680.929C3446.14 679.277 3446.72 677.536 3447.34 675.705C3447.88 674.143 3448.46 672.38 3449.09 670.415C3449.75 668.451 3450.47 666.398 3451.23 664.255L3477.21 597.828H3490.67L3452.17 692.178ZM3543.3 653.072V692.178H3530.58V653.072L3494.28 597.828H3508.35L3537.07 642.76L3565.67 597.828H3579.73L3543.3 653.072ZM3670.73 692.178H3657.47L3618.97 597.828H3632.43L3658.54 664.255C3659.21 666.264 3659.88 668.273 3660.55 670.281C3661.22 672.246 3661.83 674.009 3662.36 675.572C3662.99 677.402 3663.59 679.187 3664.17 680.929C3664.7 679.277 3665.28 677.536 3665.91 675.705C3666.45 674.143 3667.03 672.38 3667.65 670.415C3668.32 668.451 3669.03 666.398 3669.79 664.255L3695.78 597.828H3709.23L3670.73 692.178ZM3722.49 692.178V597.828H3735.28V692.178H3722.49ZM3833.18 666.13C3833.18 670.103 3832.4 673.764 3830.84 677.112C3829.32 680.46 3826.95 683.361 3823.74 685.817C3820.53 688.227 3816.46 690.125 3811.55 691.509C3806.69 692.848 3800.91 693.517 3794.21 693.517C3782.47 693.517 3773.32 691.464 3766.76 687.357C3760.19 683.25 3756.02 677.313 3754.23 669.545L3766.62 667.067C3767.25 669.523 3768.21 671.755 3769.5 673.764C3770.8 675.772 3772.54 677.513 3774.72 678.987C3776.96 680.415 3779.7 681.531 3782.96 682.335C3786.22 683.138 3790.13 683.54 3794.68 683.54C3798.47 683.54 3801.96 683.228 3805.12 682.603C3808.29 681.933 3811.02 680.929 3813.29 679.589C3815.57 678.25 3817.33 676.531 3818.58 674.433C3819.88 672.29 3820.53 669.746 3820.53 666.799C3820.53 663.719 3819.81 661.219 3818.38 659.3C3817 657.38 3815.04 655.795 3812.49 654.545C3809.95 653.295 3806.91 652.246 3803.38 651.398C3799.86 650.55 3795.95 649.635 3791.67 648.653C3789.03 648.072 3786.38 647.447 3783.7 646.778C3781.06 646.063 3778.52 645.237 3776.06 644.3C3773.65 643.318 3771.38 642.18 3769.23 640.885C3767.09 639.59 3765.24 638.05 3763.68 636.265C3762.11 634.434 3760.88 632.336 3759.99 629.97C3759.1 627.559 3758.65 624.792 3758.65 621.667C3758.65 617.203 3759.55 613.386 3761.33 610.216C3763.16 607.002 3765.68 604.368 3768.9 602.315C3772.11 600.261 3775.91 598.765 3780.28 597.828C3784.66 596.891 3789.39 596.422 3794.48 596.422C3800.33 596.422 3805.33 596.891 3809.48 597.828C3813.63 598.721 3817.13 600.082 3819.99 601.913C3822.85 603.743 3825.12 606.02 3826.82 608.743C3828.56 611.421 3829.95 614.546 3830.97 618.118L3818.38 620.327C3817.76 618.051 3816.84 616.02 3815.64 614.234C3814.48 612.448 3812.94 610.953 3811.02 609.747C3809.1 608.542 3806.75 607.627 3803.99 607.002C3801.26 606.377 3798.05 606.064 3794.34 606.064C3789.97 606.064 3786.29 606.466 3783.3 607.27C3780.35 608.029 3777.96 609.078 3776.13 610.417C3774.34 611.756 3773.05 613.341 3772.25 615.171C3771.49 616.957 3771.11 618.899 3771.11 620.997C3771.11 623.809 3771.8 626.131 3773.18 627.961C3774.61 629.747 3776.53 631.242 3778.94 632.448C3781.35 633.653 3784.14 634.657 3787.31 635.461C3790.48 636.265 3793.85 637.068 3797.42 637.872C3800.33 638.541 3803.21 639.233 3806.06 639.947C3808.96 640.617 3811.73 641.443 3814.37 642.425C3817 643.363 3819.45 644.479 3821.73 645.773C3824.05 647.068 3826.06 648.653 3827.76 650.528C3829.45 652.402 3830.77 654.612 3831.71 657.157C3832.69 659.701 3833.18 662.692 3833.18 666.13ZM3888.43 693.517C3883.25 693.517 3878.34 692.826 3873.69 691.442C3869.05 690.058 3864.97 687.915 3861.44 685.013C3857.96 682.067 3855.19 678.362 3853.14 673.897C3851.08 669.389 3850.06 664.054 3850.06 657.893V597.828H3862.85V656.822C3862.85 661.599 3863.47 665.661 3864.72 669.009C3866.02 672.313 3867.8 675.013 3870.08 677.112C3872.36 679.21 3875.03 680.75 3878.11 681.732C3881.24 682.67 3884.65 683.138 3888.36 683.138C3892.02 683.138 3895.48 682.647 3898.74 681.665C3902 680.683 3904.85 679.121 3907.31 676.978C3909.77 674.835 3911.68 672.045 3913.07 668.607C3914.5 665.125 3915.21 660.907 3915.21 655.951V597.828H3927.93V656.688C3927.93 662.983 3926.89 668.451 3924.79 673.094C3922.73 677.692 3919.92 681.509 3916.35 684.544C3912.78 687.58 3908.58 689.835 3903.76 691.308C3898.98 692.781 3893.87 693.517 3888.43 693.517ZM4016.73 692.178L4005.95 664.59H3962.96L3952.11 692.178H3938.85L3977.35 597.828H3991.88L4029.78 692.178H4016.73ZM3990.01 623.475C3989.29 621.689 3988.6 619.881 3987.93 618.051C3987.31 616.22 3986.75 614.569 3986.26 613.095C3985.77 611.578 3985.34 610.328 3984.99 609.346C3984.67 608.319 3984.5 607.694 3984.45 607.471C3984.36 607.694 3984.16 608.319 3983.85 609.346C3983.54 610.372 3983.11 611.645 3982.58 613.162C3982.08 614.68 3981.5 616.354 3980.83 618.185C3980.21 620.015 3979.56 621.823 3978.89 623.609L3966.84 654.612H4002.13L3990.01 623.475ZM4041.3 692.178V597.828H4054.09V681.732H4101.77V692.178H4041.3ZM4119.05 692.178V597.828H4131.84V692.178H4119.05ZM4224.04 692.178H4148.91V682.603L4206.36 608.274H4153.8V597.828H4220.9V607.136L4163.44 681.732H4224.04V692.178ZM4306.54 692.178L4295.76 664.59H4252.77L4241.92 692.178H4228.66L4267.17 597.828H4281.7L4319.6 692.178H4306.54ZM4279.82 623.475C4279.11 621.689 4278.42 619.881 4277.75 618.051C4277.12 616.22 4276.56 614.569 4276.07 613.095C4275.58 611.578 4275.16 610.328 4274.8 609.346C4274.49 608.319 4274.31 607.694 4274.26 607.471C4274.18 607.694 4273.97 608.319 4273.66 609.346C4273.35 610.372 4272.93 611.645 4272.39 613.162C4271.9 614.68 4271.32 616.354 4270.65 618.185C4270.02 620.015 4269.38 621.823 4268.71 623.609L4256.65 654.612H4291.94L4279.82 623.475ZM4357.9 608.274V692.178H4345.18V608.274H4312.77V597.828H4390.31V608.274H4357.9ZM4406.18 692.178V597.828H4418.97V692.178H4406.18ZM4531.8 644.568C4531.8 651.934 4530.73 658.63 4528.59 664.657C4526.49 670.683 4523.43 675.839 4519.41 680.125C4515.4 684.411 4510.49 687.714 4504.68 690.035C4498.88 692.357 4492.29 693.517 4484.93 693.517C4477.16 693.517 4470.35 692.312 4464.5 689.901C4458.66 687.446 4453.79 684.053 4449.91 679.723C4446.02 675.348 4443.1 670.17 4441.14 664.188C4439.17 658.206 4438.19 651.666 4438.19 644.568C4438.19 637.202 4439.22 630.55 4441.27 624.613C4443.32 618.676 4446.34 613.631 4450.31 609.48C4454.28 605.283 4459.17 602.069 4464.97 599.837C4470.82 597.56 4477.52 596.422 4485.06 596.422C4492.56 596.422 4499.21 597.56 4505.02 599.837C4510.87 602.114 4515.75 605.35 4519.68 609.546C4523.66 613.743 4526.67 618.81 4528.72 624.747C4530.78 630.684 4531.8 637.291 4531.8 644.568ZM4518.74 644.568C4518.74 638.898 4518.01 633.742 4516.53 629.1C4515.11 624.457 4512.96 620.484 4510.11 617.18C4507.29 613.877 4503.79 611.332 4499.59 609.546C4495.4 607.761 4490.55 606.868 4485.06 606.868C4479.44 606.868 4474.5 607.761 4470.26 609.546C4466.02 611.332 4462.47 613.877 4459.62 617.18C4456.8 620.484 4454.68 624.457 4453.26 629.1C4451.87 633.742 4451.18 638.898 4451.18 644.568C4451.18 650.237 4451.89 655.438 4453.32 660.17C4454.8 664.858 4456.94 668.92 4459.75 672.357C4462.61 675.75 4466.13 678.406 4470.33 680.326C4474.57 682.201 4479.44 683.138 4484.93 683.138C4490.82 683.138 4495.89 682.178 4500.13 680.259C4504.41 678.339 4507.92 675.683 4510.64 672.29C4513.41 668.853 4515.44 664.768 4516.74 660.036C4518.08 655.304 4518.74 650.148 4518.74 644.568ZM4610.89 692.178L4560.4 611.823C4560.48 614.011 4560.6 616.176 4560.73 618.319C4560.82 620.149 4560.89 622.091 4560.93 624.144C4561.02 626.153 4561.06 627.939 4561.06 629.501V692.178H4549.68V597.828H4564.55L4615.57 678.719C4615.44 676.531 4615.3 674.344 4615.17 672.156C4615.08 670.281 4614.99 668.25 4614.9 666.063C4614.81 663.831 4614.77 661.71 4614.77 659.701V597.828H4626.29V692.178H4610.89ZM4722.71 666.13C4722.71 670.103 4721.93 673.764 4720.37 677.112C4718.85 680.46 4716.48 683.361 4713.27 685.817C4710.06 688.227 4705.99 690.125 4701.08 691.509C4696.22 692.848 4690.44 693.517 4683.74 693.517C4672 693.517 4662.85 691.464 4656.29 687.357C4649.72 683.25 4645.55 677.313 4643.76 669.545L4656.15 667.067C4656.78 669.523 4657.74 671.755 4659.03 673.764C4660.33 675.772 4662.07 677.513 4664.25 678.987C4666.49 680.415 4669.23 681.531 4672.49 682.335C4675.75 683.138 4679.66 683.54 4684.21 683.54C4688 683.54 4691.49 683.228 4694.66 682.603C4697.82 681.933 4700.55 680.929 4702.82 679.589C4705.1 678.25 4706.86 676.531 4708.11 674.433C4709.41 672.29 4710.06 669.746 4710.06 666.799C4710.06 663.719 4709.34 661.219 4707.91 659.3C4706.53 657.38 4704.57 655.795 4702.02 654.545C4699.48 653.295 4696.44 652.246 4692.91 651.398C4689.39 650.55 4685.48 649.635 4681.2 648.653C4678.56 648.072 4675.91 647.447 4673.23 646.778C4670.59 646.063 4668.05 645.237 4665.59 644.3C4663.18 643.318 4660.91 642.18 4658.76 640.885C4656.62 639.59 4654.77 638.05 4653.21 636.265C4651.64 634.434 4650.42 632.336 4649.52 629.97C4648.63 627.559 4648.18 624.792 4648.18 621.667C4648.18 617.203 4649.08 613.386 4650.86 610.216C4652.69 607.002 4655.21 604.368 4658.43 602.315C4661.64 600.261 4665.44 598.765 4669.81 597.828C4674.19 596.891 4678.92 596.422 4684.01 596.422C4689.86 596.422 4694.86 596.891 4699.01 597.828C4703.16 598.721 4706.66 600.082 4709.52 601.913C4712.38 603.743 4714.65 606.02 4716.35 608.743C4718.09 611.421 4719.48 614.546 4720.5 618.118L4707.91 620.327C4707.29 618.051 4706.37 616.02 4705.17 614.234C4704.01 612.448 4702.47 610.953 4700.55 609.747C4698.63 608.542 4696.28 607.627 4693.52 607.002C4690.79 606.377 4687.58 606.064 4683.87 606.064C4679.5 606.064 4675.82 606.466 4672.83 607.27C4669.88 608.029 4667.49 609.078 4665.66 610.417C4663.87 611.756 4662.58 613.341 4661.78 615.171C4661.02 616.957 4660.64 618.899 4660.64 620.997C4660.64 623.809 4661.33 626.131 4662.71 627.961C4664.14 629.747 4666.06 631.242 4668.47 632.448C4670.88 633.653 4673.67 634.657 4676.84 635.461C4680.01 636.265 4683.38 637.068 4686.95 637.872C4689.86 638.541 4692.74 639.233 4695.59 639.947C4698.49 640.617 4701.26 641.443 4703.9 642.425C4706.53 643.363 4708.99 644.479 4711.26 645.773C4713.58 647.068 4715.59 648.653 4717.29 650.528C4718.98 652.402 4720.3 654.612 4721.24 657.157C4722.22 659.701 4722.71 662.692 4722.71 666.13Z" fill="#024D5F"/>
</svg>
