<svg width="4920" height="824" viewBox="0 0 4920 824" fill="none" xmlns="http://www.w3.org/2000/svg">
<rect x="0.455078" y="0.196289" width="4872.82" height="822.836" fill="white" fill-opacity="0.5"/>
<path d="M624.76 143H94.7598V673H624.76V143Z" fill="#B4C3F3"/>
<path d="M379.459 517.007C467.326 517.007 538.556 447.798 538.556 362.424C538.556 277.05 467.326 207.84 379.459 207.84C291.592 207.84 220.362 277.05 220.362 362.424C220.362 447.798 291.592 517.007 379.459 517.007Z" fill="#FF952F" stroke="black" stroke-width="0.833333"/>
<path d="M260.567 607.14L370.954 421.368L481.342 607.14H260.567Z" fill="#288CA3" stroke="black" stroke-width="0.833333"/>
<path d="M131.408 607.683L265.975 381.218L400.542 607.683H131.408Z" fill="#288CA3" stroke="black" stroke-width="0.833333"/>
<path d="M506.039 291.295H560.977L588.445 337.522L560.977 383.748H506.039L478.571 337.522L506.039 291.295Z" fill="white" stroke="black" stroke-width="0.833333"/>
<path d="M420.661 276.927H492.674L528.68 337.522L492.674 398.116H420.661L384.656 337.522L420.661 276.927Z" fill="white" stroke="black" stroke-width="0.833333"/>
<path d="M352.361 291.295H407.298L434.766 337.522L407.298 383.748H352.361L324.893 337.522L352.361 291.295Z" fill="white" stroke="black" stroke-width="0.833333"/>
<path d="M895.15 315.171V199.583C895.15 194.981 895.195 190.243 895.286 185.371C895.466 180.498 895.646 176.032 895.827 171.971C896.098 167.189 896.323 162.542 896.504 158.03C894.609 165.159 892.804 171.926 891.09 178.333C890.368 181.04 889.601 183.837 888.789 186.724C887.977 189.612 887.165 192.409 886.352 195.116C885.631 197.823 884.909 200.35 884.187 202.696C883.465 205.042 882.833 207.072 882.292 208.786L847.913 315.171H819.49L785.111 208.786C784.569 207.072 783.938 205.042 783.216 202.696C782.584 200.35 781.862 197.823 781.05 195.116C780.328 192.409 779.561 189.612 778.749 186.724C777.937 183.837 777.125 181.04 776.313 178.333C774.508 171.926 772.614 165.159 770.628 158.03C770.899 163.264 771.17 168.407 771.441 173.46C771.621 177.791 771.801 182.348 771.982 187.13C772.162 191.913 772.253 196.063 772.253 199.583V315.171H736.791V124.463H790.254L824.362 231.119C825.265 233.916 826.212 237.345 827.205 241.406C828.287 245.466 829.325 249.391 830.318 253.181C831.4 257.602 832.573 262.204 833.837 266.987C835.1 262.295 836.318 257.783 837.491 253.452C838.033 251.557 838.574 249.617 839.115 247.632C839.657 245.647 840.198 243.707 840.74 241.812C841.281 239.917 841.822 238.112 842.364 236.398C842.905 234.683 843.401 233.149 843.853 231.796L877.419 124.463H930.612V315.171H895.15ZM1002.35 317.878C995.309 317.878 988.993 316.931 983.398 315.036C977.894 313.051 973.202 310.208 969.322 306.509C965.442 302.719 962.464 298.072 960.389 292.568C958.313 287.064 957.276 280.792 957.276 273.754C957.276 265.092 958.765 257.828 961.742 251.963C964.81 246.008 968.961 241.225 974.194 237.616C979.428 233.916 985.564 231.254 992.602 229.63C999.64 227.916 1007.13 227.013 1015.07 226.923L1046.61 226.382V218.938C1046.61 213.614 1046.11 209.192 1045.12 205.673C1044.22 202.064 1042.86 199.131 1041.06 196.876C1039.25 194.62 1037 193.041 1034.29 192.138C1031.67 191.146 1028.65 190.649 1025.22 190.649C1022.06 190.649 1019.22 190.965 1016.69 191.597C1014.26 192.229 1012.14 193.356 1010.33 194.981C1008.53 196.515 1007.04 198.635 1005.87 201.342C1004.78 203.959 1004.02 207.297 1003.57 211.358L963.908 209.463C964.991 203.057 966.976 197.236 969.863 192.003C972.751 186.679 976.721 182.077 981.774 178.197C986.917 174.317 993.189 171.34 1000.59 169.264C1008.08 167.099 1016.83 166.016 1026.85 166.016C1035.96 166.016 1044.08 167.144 1051.21 169.4C1058.34 171.655 1064.38 175.039 1069.35 179.551C1074.31 183.972 1078.1 189.431 1080.71 195.928C1083.33 202.425 1084.64 209.959 1084.64 218.532V271.859C1084.64 275.288 1084.78 278.356 1085.05 281.063C1085.41 283.77 1085.99 286.071 1086.81 287.966C1087.71 289.771 1088.93 291.169 1090.46 292.162C1092.08 293.064 1094.16 293.515 1096.69 293.515C1099.57 293.515 1102.37 293.245 1105.08 292.703V313.276C1102.82 313.818 1100.79 314.314 1098.99 314.765C1097.18 315.216 1095.38 315.577 1093.57 315.848C1091.77 316.119 1089.83 316.344 1087.75 316.525C1085.77 316.705 1083.42 316.795 1080.71 316.795C1071.15 316.795 1064.07 314.449 1059.46 309.757C1054.95 305.065 1052.25 298.162 1051.34 289.049H1050.53C1045.48 298.162 1038.98 305.246 1031.04 310.299C1023.19 315.352 1013.63 317.878 1002.35 317.878ZM1046.61 247.361L1027.12 247.632C1023.06 247.812 1019.18 248.173 1015.48 248.715C1011.87 249.166 1008.66 250.203 1005.87 251.828C1003.16 253.362 1000.99 255.617 999.37 258.595C997.745 261.573 996.933 265.633 996.933 270.777C996.933 277.724 998.512 282.913 1001.67 286.342C1004.92 289.68 1009.2 291.35 1014.53 291.35C1019.4 291.35 1023.82 290.312 1027.79 288.237C1031.76 286.161 1035.1 283.454 1037.81 280.116C1040.61 276.687 1042.77 272.762 1044.31 268.34C1045.84 263.919 1046.61 259.407 1046.61 254.805V247.361ZM1261.41 241.27C1261.41 252.369 1260.28 262.61 1258.02 271.995C1255.86 281.379 1252.47 289.455 1247.87 296.222C1243.27 302.99 1237.4 308.314 1230.28 312.194C1223.24 315.983 1214.89 317.878 1205.24 317.878C1200.91 317.878 1196.57 317.427 1192.24 316.525C1188 315.622 1183.94 314.179 1180.06 312.194C1176.18 310.118 1172.57 307.456 1169.23 304.208C1165.99 300.869 1163.19 296.764 1160.84 291.891H1160.03C1160.12 292.342 1160.21 293.47 1160.3 295.275C1160.39 297.08 1160.48 299.2 1160.57 301.636C1160.66 303.982 1160.71 306.509 1160.71 309.216C1160.8 311.833 1160.84 314.269 1160.84 316.525V372.695H1122.81V202.425C1122.81 194.936 1122.67 188.258 1122.4 182.393C1122.22 176.528 1122 171.971 1121.73 168.723H1158.68C1158.86 169.354 1159.04 170.573 1159.22 172.377C1159.49 174.182 1159.67 176.257 1159.76 178.603C1159.94 180.949 1160.07 183.386 1160.17 185.912C1160.26 188.439 1160.3 190.649 1160.3 192.544H1160.84C1165.44 182.889 1171.76 175.987 1179.79 171.836C1187.82 167.685 1197.12 165.61 1207.67 165.61C1216.97 165.61 1225 167.505 1231.77 171.294C1238.53 175.084 1244.08 180.318 1248.41 186.995C1252.83 193.672 1256.08 201.658 1258.16 210.952C1260.32 220.156 1261.41 230.262 1261.41 241.27ZM1221.75 241.27C1221.75 224.577 1219.22 212.215 1214.17 204.184C1209.12 196.063 1201.58 192.003 1191.57 192.003C1187.78 192.003 1183.99 192.815 1180.2 194.439C1176.5 195.973 1173.16 198.68 1170.18 202.56C1167.29 206.35 1164.9 211.493 1163.01 217.99C1161.2 224.397 1160.3 232.518 1160.3 242.353C1160.3 251.918 1161.2 259.903 1163.01 266.31C1164.81 272.626 1167.16 277.679 1170.05 281.469C1173.02 285.259 1176.36 287.966 1180.06 289.59C1183.76 291.124 1187.51 291.891 1191.3 291.891C1196.17 291.891 1200.5 290.944 1204.29 289.049C1208.08 287.064 1211.24 284.041 1213.76 279.98C1216.38 275.83 1218.37 270.551 1219.72 264.144C1221.07 257.738 1221.75 250.113 1221.75 241.27ZM1377.54 155.323V315.171H1337.61V155.323H1276.02V124.463H1439.26V155.323H1377.54ZM1499.22 197.958C1504.36 186.769 1510.81 178.648 1518.57 173.595C1526.33 168.542 1535.58 166.016 1546.32 166.016C1555.16 166.016 1562.61 167.46 1568.65 170.347C1574.79 173.234 1579.75 177.205 1583.54 182.258C1587.42 187.311 1590.22 193.266 1591.93 200.124C1593.65 206.982 1594.5 214.381 1594.5 222.321V315.171H1556.6V233.149C1556.6 227.465 1556.15 222.276 1555.25 217.584C1554.35 212.802 1552.86 208.741 1550.78 205.403C1548.71 201.974 1546 199.312 1542.66 197.417C1539.32 195.522 1535.26 194.575 1530.48 194.575C1525.88 194.575 1521.68 195.612 1517.89 197.688C1514.2 199.673 1510.99 202.56 1508.28 206.35C1505.58 210.05 1503.46 214.516 1501.92 219.75C1500.48 224.893 1499.76 230.578 1499.76 236.804V315.171H1461.72V114.312H1499.76V169.129C1499.76 172.016 1499.71 174.949 1499.62 177.927C1499.53 180.814 1499.4 183.566 1499.22 186.183C1499.13 188.709 1499.04 191.01 1498.95 193.086C1498.86 195.161 1498.77 196.785 1498.67 197.958H1499.22ZM1691.14 317.878C1680.59 317.878 1671.07 316.344 1662.58 313.276C1654.19 310.118 1647.02 305.381 1641.06 299.065C1635.11 292.658 1630.55 284.672 1627.39 275.108C1624.23 265.453 1622.66 254.174 1622.66 241.27C1622.66 227.284 1624.51 215.509 1628.2 205.944C1631.99 196.379 1637.05 188.664 1643.36 182.799C1649.77 176.844 1657.12 172.558 1665.43 169.941C1673.73 167.324 1682.48 166.016 1691.68 166.016C1703.23 166.016 1713.07 168.046 1721.19 172.107C1729.4 176.077 1736.12 181.671 1741.36 188.89C1746.59 196.109 1750.43 204.771 1752.86 214.877C1755.3 224.893 1756.52 235.992 1756.52 248.173V249.256H1662.58C1662.58 255.392 1663.12 261.122 1664.21 266.445C1665.29 271.679 1667.05 276.236 1669.49 280.116C1671.92 283.905 1675.08 286.928 1678.96 289.184C1682.84 291.35 1687.53 292.433 1693.04 292.433C1699.71 292.433 1705.17 291.034 1709.41 288.237C1713.66 285.349 1716.68 280.928 1718.48 274.972L1754.35 278.085C1752.73 282.236 1750.43 286.658 1747.45 291.35C1744.56 296.042 1740.68 300.373 1735.81 304.343C1730.94 308.223 1724.84 311.472 1717.54 314.088C1710.32 316.615 1701.52 317.878 1691.14 317.878ZM1691.14 189.973C1687.26 189.973 1683.61 190.649 1680.18 192.003C1676.84 193.266 1673.91 195.342 1671.38 198.229C1668.94 201.026 1666.96 204.681 1665.43 209.192C1663.89 213.704 1663.03 219.118 1662.85 225.434H1719.7C1718.98 213.614 1716.14 204.771 1711.17 198.906C1706.21 192.95 1699.53 189.973 1691.14 189.973ZM1873.73 286.477C1881.22 286.477 1887.67 285.439 1893.08 283.364C1898.59 281.198 1903.33 278.401 1907.3 274.972C1911.36 271.544 1914.7 267.663 1917.31 263.332C1920.02 259.001 1922.23 254.625 1923.94 250.203L1958.73 263.332C1955.93 270.19 1952.28 276.912 1947.77 283.499C1943.25 290.086 1937.61 295.906 1930.85 300.96C1924.08 306.013 1916 310.118 1906.62 313.276C1897.33 316.344 1886.36 317.878 1873.73 317.878C1857.22 317.878 1842.91 315.442 1830.82 310.569C1818.73 305.607 1808.72 298.749 1800.78 289.996C1792.93 281.153 1787.06 270.686 1783.18 258.595C1779.39 246.504 1777.5 233.285 1777.5 218.938C1777.5 204.049 1779.39 190.604 1783.18 178.603C1787.06 166.602 1792.88 156.406 1800.64 148.014C1808.4 139.532 1818.19 133.036 1830.01 128.524C1841.92 123.922 1855.91 121.621 1871.97 121.621C1884.42 121.621 1895.29 122.929 1904.59 125.546C1913.97 128.163 1922.05 131.863 1928.82 136.645C1935.67 141.337 1941.31 146.931 1945.74 153.428C1950.25 159.835 1953.77 166.918 1956.29 174.678L1921.1 184.288C1919.84 180.228 1917.9 176.348 1915.28 172.648C1912.66 168.858 1909.33 165.52 1905.27 162.632C1901.3 159.745 1896.6 157.444 1891.19 155.729C1885.78 153.925 1879.64 153.022 1872.78 153.022C1863.13 153.022 1854.83 154.601 1847.88 157.759C1840.93 160.827 1835.2 165.249 1830.69 171.024C1826.27 176.799 1822.97 183.747 1820.81 191.868C1818.73 199.898 1817.69 208.922 1817.69 218.938C1817.69 228.863 1818.73 237.977 1820.81 246.278C1822.97 254.489 1826.31 261.573 1830.82 267.528C1835.33 273.484 1841.11 278.131 1848.15 281.469C1855.28 284.808 1863.8 286.477 1873.73 286.477ZM1985.8 315.171V114.312H2023.83V315.171H1985.8ZM2202.09 241.812C2202.09 253.001 2200.51 263.242 2197.35 272.536C2194.28 281.83 2189.64 289.861 2183.41 296.628C2177.18 303.306 2169.42 308.539 2160.13 312.329C2150.84 316.028 2140.01 317.878 2127.65 317.878C2115.73 317.878 2105.22 316.028 2096.11 312.329C2087 308.629 2079.33 303.441 2073.1 296.764C2066.96 290.086 2062.32 282.101 2059.16 272.807C2056 263.423 2054.42 253.091 2054.42 241.812C2054.42 230.893 2055.91 220.832 2058.89 211.629C2061.96 202.335 2066.56 194.304 2072.69 187.536C2078.83 180.769 2086.54 175.49 2095.84 171.7C2105.13 167.911 2116.01 166.016 2128.46 166.016C2141.63 166.016 2152.87 167.911 2162.16 171.7C2171.45 175.49 2179.03 180.769 2184.9 187.536C2190.85 194.214 2195.18 202.199 2197.89 211.493C2200.69 220.697 2202.09 230.803 2202.09 241.812ZM2162.29 241.812C2162.29 224.397 2159.45 211.764 2153.77 203.914C2148.08 196.063 2139.83 192.138 2129 192.138C2117.81 192.138 2109.24 196.109 2103.28 204.049C2097.33 211.99 2094.35 224.577 2094.35 241.812C2094.35 250.564 2095.12 258.099 2096.65 264.415C2098.27 270.731 2100.53 275.92 2103.42 279.98C2106.31 284.041 2109.78 287.064 2113.84 289.049C2117.9 290.944 2122.37 291.891 2127.24 291.891C2132.83 291.891 2137.8 290.944 2142.13 289.049C2146.55 287.064 2150.25 284.041 2153.23 279.98C2156.2 275.92 2158.46 270.731 2159.99 264.415C2161.53 258.099 2162.29 250.564 2162.29 241.812ZM2268.27 168.723V250.88C2268.27 256.565 2268.72 261.798 2269.63 266.581C2270.53 271.273 2272.02 275.333 2274.09 278.762C2276.17 282.101 2278.83 284.718 2282.08 286.612C2285.42 288.507 2289.48 289.455 2294.26 289.455C2298.86 289.455 2303.01 288.462 2306.71 286.477C2310.5 284.402 2313.75 281.514 2316.46 277.815C2319.17 274.025 2321.24 269.558 2322.68 264.415C2324.22 259.182 2324.99 253.452 2324.99 247.226V168.723H2363.02V282.417C2363.02 285.485 2363.02 288.733 2363.02 292.162C2363.11 295.5 2363.2 298.704 2363.29 301.772C2363.47 304.749 2363.61 307.456 2363.7 309.893C2363.88 312.239 2364.01 313.998 2364.1 315.171H2327.83C2327.74 314.088 2327.56 312.374 2327.29 310.028C2327.11 307.592 2326.93 304.93 2326.74 302.042C2326.65 299.155 2326.52 296.267 2326.34 293.38C2326.25 290.492 2326.2 288.056 2326.2 286.071H2325.53C2320.47 297.17 2314.02 305.246 2306.17 310.299C2298.41 315.352 2289.16 317.878 2278.42 317.878C2269.67 317.878 2262.23 316.435 2256.09 313.547C2249.96 310.66 2244.95 306.734 2241.07 301.772C2237.28 296.719 2234.53 290.763 2232.81 283.905C2231.1 277.048 2230.24 269.649 2230.24 261.708V168.723H2268.27ZM2496.74 315.171C2496.56 314.449 2496.34 313.186 2496.07 311.381C2495.89 309.487 2495.66 307.366 2495.39 305.02C2495.21 302.674 2495.03 300.283 2494.85 297.846C2494.76 295.41 2494.71 293.245 2494.71 291.35H2494.17C2489.75 300.824 2483.57 307.637 2475.63 311.788C2467.78 315.848 2458.35 317.878 2447.34 317.878C2438.14 317.878 2430.15 315.983 2423.38 312.194C2416.71 308.404 2411.16 303.125 2406.74 296.358C2402.41 289.59 2399.16 281.605 2396.99 272.401C2394.92 263.107 2393.88 253.001 2393.88 242.082C2393.88 230.984 2394.96 220.787 2397.13 211.493C2399.38 202.199 2402.81 194.214 2407.41 187.536C2412.02 180.769 2417.84 175.49 2424.87 171.7C2432 167.911 2440.44 166.016 2450.18 166.016C2454.97 166.016 2459.57 166.512 2463.99 167.505C2468.41 168.497 2472.52 170.031 2476.31 172.107C2480.1 174.182 2483.53 176.844 2486.59 180.092C2489.66 183.341 2492.28 187.266 2494.44 191.868H2494.71C2494.71 190.965 2494.67 189.657 2494.58 187.942C2494.58 186.138 2494.58 184.108 2494.58 181.852C2494.58 179.596 2494.53 177.25 2494.44 174.814C2494.44 172.377 2494.44 170.031 2494.44 167.775V114.312H2532.48V283.229C2532.48 290.357 2532.61 296.719 2532.88 302.313C2533.15 307.817 2533.38 312.103 2533.56 315.171H2496.74ZM2494.98 241.135C2494.98 231.48 2494.08 223.494 2492.28 217.178C2490.47 210.771 2488.08 205.718 2485.1 202.019C2482.22 198.229 2478.88 195.612 2475.09 194.169C2471.39 192.635 2467.6 191.868 2463.72 191.868C2458.85 191.868 2454.52 192.815 2450.73 194.71C2447.03 196.605 2443.87 199.583 2441.25 203.643C2438.72 207.704 2436.78 212.892 2435.43 219.208C2434.17 225.525 2433.54 233.149 2433.54 242.082C2433.54 275.288 2443.51 291.891 2463.45 291.891C2467.24 291.891 2471.03 291.079 2474.82 289.455C2478.61 287.831 2481.99 285.078 2484.97 281.198C2487.95 277.318 2490.34 272.13 2492.14 265.633C2494.04 259.046 2494.98 250.88 2494.98 241.135ZM2694.76 272.401C2694.76 279.439 2693.27 285.755 2690.29 291.35C2687.41 296.944 2683.17 301.727 2677.57 305.697C2671.98 309.577 2665.12 312.6 2657 314.765C2648.88 316.841 2639.63 317.878 2629.25 317.878C2619.96 317.878 2611.57 317.202 2604.08 315.848C2596.59 314.495 2590 312.284 2584.32 309.216C2578.72 306.058 2574.03 301.997 2570.24 297.034C2566.45 292.072 2563.61 285.936 2561.71 278.627L2595.14 273.619C2596.23 277.679 2597.72 280.973 2599.61 283.499C2601.5 286.026 2603.85 287.966 2606.65 289.319C2609.45 290.673 2612.69 291.575 2616.39 292.026C2620.18 292.478 2624.47 292.703 2629.25 292.703C2633.58 292.703 2637.6 292.478 2641.3 292.026C2645.09 291.485 2648.34 290.628 2651.04 289.455C2653.84 288.192 2656.01 286.477 2657.54 284.312C2659.07 282.056 2659.84 279.258 2659.84 275.92C2659.84 272.13 2658.71 269.152 2656.46 266.987C2654.29 264.731 2651.27 262.926 2647.39 261.573C2643.6 260.129 2639.09 258.911 2633.85 257.918C2628.71 256.836 2623.21 255.617 2617.34 254.264C2611.21 252.91 2605.16 251.286 2599.2 249.391C2593.25 247.496 2587.92 244.925 2583.23 241.676C2578.54 238.428 2574.75 234.322 2571.86 229.36C2568.98 224.306 2567.53 217.945 2567.53 210.275C2567.53 203.327 2568.89 197.146 2571.59 191.732C2574.3 186.228 2578.27 181.581 2583.5 177.791C2588.74 173.911 2595.19 170.979 2602.86 168.994C2610.62 166.918 2619.51 165.88 2629.52 165.88C2637.46 165.88 2644.86 166.647 2651.72 168.181C2658.58 169.625 2664.71 171.971 2670.13 175.22C2675.54 178.378 2680.05 182.438 2683.66 187.401C2687.36 192.364 2689.93 198.364 2691.38 205.403L2657.68 208.922C2657.04 205.403 2655.92 202.515 2654.29 200.259C2652.67 197.913 2650.64 196.063 2648.2 194.71C2645.85 193.356 2643.1 192.454 2639.94 192.003C2636.79 191.462 2633.31 191.191 2629.52 191.191C2620.5 191.191 2613.73 192.364 2609.22 194.71C2604.71 196.966 2602.45 200.801 2602.45 206.215C2602.45 209.553 2603.35 212.215 2605.16 214.2C2607.05 216.185 2609.67 217.855 2613.01 219.208C2616.44 220.472 2620.45 221.599 2625.06 222.592C2629.75 223.494 2634.85 224.622 2640.35 225.976C2647.12 227.419 2653.75 229.134 2660.25 231.119C2666.83 233.014 2672.65 235.676 2677.71 239.105C2682.85 242.443 2686.96 246.775 2690.02 252.098C2693.18 257.422 2694.76 264.19 2694.76 272.401Z" fill="#024D5F"/>
<path d="M725.145 644.568C725.145 637.202 726.127 630.55 728.092 624.613C730.1 618.676 733.069 613.631 736.998 609.479C740.971 605.283 745.881 602.069 751.729 599.837C757.577 597.56 764.363 596.422 772.086 596.422C777.889 596.422 782.978 596.935 787.353 597.962C791.728 598.989 795.523 600.462 798.737 602.381C801.951 604.301 804.674 606.645 806.906 609.412C809.139 612.136 811.036 615.216 812.598 618.653L800.411 622.269C799.25 619.948 797.844 617.85 796.192 615.975C794.585 614.055 792.621 612.426 790.3 611.087C787.978 609.747 785.278 608.721 782.197 608.006C779.162 607.247 775.68 606.868 771.751 606.868C766.037 606.868 761.059 607.761 756.818 609.546C752.622 611.332 749.14 613.877 746.372 617.18C743.605 620.484 741.529 624.457 740.145 629.099C738.806 633.742 738.136 638.898 738.136 644.568C738.136 650.237 738.873 655.438 740.346 660.17C741.819 664.857 744.006 668.92 746.908 672.357C749.81 675.75 753.403 678.406 757.689 680.326C762.019 682.201 767.019 683.138 772.689 683.138C776.394 683.138 779.809 682.826 782.934 682.201C786.059 681.576 788.871 680.772 791.371 679.79C793.916 678.763 796.148 677.647 798.067 676.442C799.987 675.192 801.594 673.942 802.889 672.692V655.684H774.697V644.97H814.674V677.513C812.576 679.656 810.098 681.71 807.241 683.674C804.429 685.594 801.259 687.29 797.733 688.763C794.206 690.236 790.344 691.397 786.148 692.245C781.952 693.093 777.465 693.517 772.689 693.517C764.742 693.517 757.801 692.312 751.863 689.901C745.926 687.446 740.971 684.053 736.998 679.723C733.069 675.348 730.1 670.17 728.092 664.188C726.127 658.206 725.145 651.666 725.145 644.568ZM837.642 692.178V597.828H850.432V692.178H837.642ZM948.331 666.13C948.331 670.103 947.55 673.763 945.988 677.112C944.47 680.46 942.104 683.361 938.89 685.817C935.675 688.227 931.613 690.125 926.702 691.509C921.836 692.848 916.055 693.517 909.359 693.517C897.618 693.517 888.467 691.464 881.904 687.357C875.342 683.25 871.168 677.312 869.382 669.545L881.771 667.067C882.396 669.523 883.355 671.755 884.65 673.763C885.945 675.772 887.686 677.513 889.873 678.987C892.105 680.415 894.851 681.531 898.109 682.335C901.368 683.138 905.274 683.54 909.828 683.54C913.622 683.54 917.104 683.228 920.274 682.603C923.444 681.933 926.167 680.928 928.443 679.589C930.72 678.25 932.483 676.531 933.733 674.433C935.028 672.29 935.675 669.746 935.675 666.799C935.675 663.719 934.961 661.219 933.533 659.3C932.149 657.38 930.184 655.795 927.64 654.545C925.095 653.295 922.06 652.246 918.533 651.398C915.006 650.55 911.1 649.635 906.815 648.653C904.181 648.072 901.524 647.447 898.846 646.778C896.212 646.063 893.668 645.237 891.212 644.3C888.802 643.318 886.525 642.179 884.382 640.885C882.239 639.59 880.387 638.05 878.824 636.264C877.262 634.434 876.034 632.336 875.141 629.97C874.248 627.559 873.802 624.792 873.802 621.667C873.802 617.202 874.695 613.386 876.48 610.216C878.311 607.002 880.833 604.368 884.047 602.314C887.261 600.261 891.056 598.765 895.431 597.828C899.806 596.89 904.538 596.422 909.627 596.422C915.475 596.422 920.475 596.89 924.627 597.828C928.778 598.721 932.283 600.082 935.14 601.913C937.997 603.743 940.273 606.02 941.97 608.743C943.711 611.421 945.095 614.546 946.122 618.118L933.533 620.327C932.908 618.051 931.992 616.019 930.787 614.234C929.626 612.448 928.086 610.953 926.167 609.747C924.247 608.542 921.903 607.627 919.136 607.002C916.412 606.377 913.198 606.064 909.493 606.064C905.118 606.064 901.435 606.466 898.444 607.27C895.498 608.029 893.11 609.078 891.279 610.417C889.494 611.756 888.199 613.341 887.395 615.171C886.636 616.957 886.257 618.899 886.257 620.997C886.257 623.809 886.949 626.131 888.333 627.961C889.761 629.747 891.681 631.242 894.092 632.448C896.502 633.653 899.292 634.657 902.462 635.461C905.632 636.264 909.002 637.068 912.573 637.872C915.475 638.541 918.354 639.233 921.211 639.947C924.113 640.617 926.881 641.443 929.515 642.425C932.149 643.362 934.604 644.479 936.881 645.773C939.202 647.068 941.211 648.653 942.907 650.527C944.604 652.402 945.921 654.612 946.858 657.157C947.84 659.701 948.331 662.692 948.331 666.13ZM1077.03 626.22C1077.03 630.327 1076.34 634.166 1074.96 637.738C1073.62 641.264 1071.59 644.345 1068.86 646.978C1066.19 649.568 1062.81 651.621 1058.75 653.139C1054.69 654.657 1049.96 655.416 1044.56 655.416H1016.83V692.178H1004.04V597.828H1043.75C1049.33 597.828 1054.2 598.52 1058.35 599.904C1062.5 601.243 1065.96 603.163 1068.73 605.663C1071.5 608.118 1073.57 611.109 1074.96 614.636C1076.34 618.118 1077.03 621.979 1077.03 626.22ZM1064.18 626.354C1064.18 620.372 1062.35 615.841 1058.69 612.761C1055.02 609.636 1049.53 608.073 1042.21 608.073H1016.83V645.304H1042.75C1050.11 645.304 1055.52 643.675 1058.95 640.416C1062.44 637.157 1064.18 632.47 1064.18 626.354ZM1095.51 692.178V597.828H1108.3V681.732H1155.98V692.178H1095.51ZM1238.75 692.178L1227.97 664.59H1184.98L1174.13 692.178H1160.87L1199.37 597.828H1213.9L1251.81 692.178H1238.75ZM1212.03 623.475C1211.32 621.689 1210.62 619.881 1209.95 618.051C1209.33 616.22 1208.77 614.569 1208.28 613.095C1207.79 611.578 1207.36 610.328 1207.01 609.346C1206.7 608.319 1206.52 607.694 1206.47 607.471C1206.38 607.694 1206.18 608.319 1205.87 609.346C1205.56 610.372 1205.13 611.645 1204.6 613.162C1204.11 614.68 1203.53 616.354 1202.86 618.185C1202.23 620.015 1201.58 621.823 1200.91 623.609L1188.86 654.612H1224.15L1212.03 623.475ZM1293.92 653.072V692.178H1281.2V653.072L1244.91 597.828H1258.97L1287.7 642.76L1316.29 597.828H1330.35L1293.92 653.072ZM1340.26 644.568C1340.26 637.202 1341.25 630.55 1343.21 624.613C1345.22 618.676 1348.19 613.631 1352.12 609.479C1356.09 605.283 1361 602.069 1366.85 599.837C1372.7 597.56 1379.48 596.422 1387.2 596.422C1393.01 596.422 1398.1 596.935 1402.47 597.962C1406.85 598.989 1410.64 600.462 1413.85 602.381C1417.07 604.301 1419.79 606.645 1422.02 609.412C1424.26 612.136 1426.15 615.216 1427.72 618.653L1415.53 622.269C1414.37 619.948 1412.96 617.85 1411.31 615.975C1409.7 614.055 1407.74 612.426 1405.42 611.087C1403.1 609.747 1400.4 608.721 1397.31 608.006C1394.28 607.247 1390.8 606.868 1386.87 606.868C1381.15 606.868 1376.18 607.761 1371.94 609.546C1367.74 611.332 1364.26 613.877 1361.49 617.18C1358.72 620.484 1356.65 624.457 1355.26 629.099C1353.92 633.742 1353.25 638.898 1353.25 644.568C1353.25 650.237 1353.99 655.438 1355.46 660.17C1356.94 664.857 1359.12 668.92 1362.03 672.357C1364.93 675.75 1368.52 678.406 1372.81 680.326C1377.14 682.201 1382.14 683.138 1387.81 683.138C1391.51 683.138 1394.93 682.826 1398.05 682.201C1401.18 681.576 1403.99 680.772 1406.49 679.79C1409.03 678.763 1411.27 677.647 1413.19 676.442C1415.1 675.192 1416.71 673.942 1418.01 672.692V655.684H1389.82V644.97H1429.79V677.513C1427.69 679.656 1425.22 681.71 1422.36 683.674C1419.55 685.594 1416.38 687.29 1412.85 688.763C1409.32 690.236 1405.46 691.397 1401.27 692.245C1397.07 693.093 1392.58 693.517 1387.81 693.517C1379.86 693.517 1372.92 692.312 1366.98 689.901C1361.04 687.446 1356.09 684.053 1352.12 679.723C1348.19 675.348 1345.22 670.17 1343.21 664.188C1341.25 658.206 1340.26 651.666 1340.26 644.568ZM1518.05 692.178L1493.54 653.005H1464.14V692.178H1451.35V597.828H1495.75C1501.11 597.828 1505.84 598.453 1509.95 599.703C1514.1 600.908 1517.58 602.672 1520.39 604.993C1523.2 607.314 1525.35 610.149 1526.82 613.497C1528.29 616.845 1529.03 620.618 1529.03 624.814C1529.03 627.805 1528.58 630.751 1527.69 633.653C1526.84 636.555 1525.48 639.211 1523.61 641.621C1521.73 644.032 1519.34 646.108 1516.44 647.849C1513.54 649.59 1510.06 650.818 1506 651.532L1532.78 692.178H1518.05ZM1516.17 624.948C1516.17 622.091 1515.68 619.613 1514.7 617.515C1513.72 615.417 1512.29 613.676 1510.41 612.292C1508.54 610.863 1506.26 609.814 1503.58 609.145C1500.91 608.43 1497.87 608.073 1494.48 608.073H1464.14V642.894H1495.01C1498.67 642.894 1501.84 642.447 1504.52 641.554C1507.2 640.617 1509.39 639.345 1511.08 637.738C1512.83 636.131 1514.1 634.233 1514.9 632.046C1515.75 629.858 1516.17 627.492 1516.17 624.948ZM1639.32 644.568C1639.32 651.934 1638.25 658.63 1636.1 664.657C1634.01 670.683 1630.95 675.839 1626.93 680.125C1622.91 684.411 1618 687.714 1612.2 690.035C1606.39 692.357 1599.81 693.517 1592.44 693.517C1584.68 693.517 1577.87 692.312 1572.02 689.901C1566.17 687.446 1561.31 684.053 1557.42 679.723C1553.54 675.348 1550.61 670.17 1548.65 664.188C1546.69 658.206 1545.7 651.666 1545.7 644.568C1545.7 637.202 1546.73 630.55 1548.78 624.613C1550.84 618.676 1553.85 613.631 1557.82 609.479C1561.8 605.283 1566.69 602.069 1572.49 599.837C1578.34 597.56 1585.03 596.422 1592.58 596.422C1600.08 596.422 1606.73 597.56 1612.53 599.837C1618.38 602.114 1623.27 605.35 1627.2 609.546C1631.17 613.743 1634.18 618.81 1636.24 624.747C1638.29 630.684 1639.32 637.291 1639.32 644.568ZM1626.26 644.568C1626.26 638.898 1625.52 633.742 1624.05 629.099C1622.62 624.457 1620.48 620.484 1617.62 617.18C1614.81 613.877 1611.3 611.332 1607.11 609.546C1602.91 607.761 1598.07 606.868 1592.58 606.868C1586.95 606.868 1582.02 607.761 1577.78 609.546C1573.54 611.332 1569.99 613.877 1567.13 617.18C1564.32 620.484 1562.2 624.457 1560.77 629.099C1559.39 633.742 1558.69 638.898 1558.69 644.568C1558.69 650.237 1559.41 655.438 1560.84 660.17C1562.31 664.857 1564.45 668.92 1567.27 672.357C1570.12 675.75 1573.65 678.406 1577.85 680.326C1582.09 682.201 1586.95 683.138 1592.44 683.138C1598.34 683.138 1603.4 682.178 1607.64 680.259C1611.93 678.339 1615.43 675.683 1618.16 672.29C1620.93 668.853 1622.96 664.768 1624.25 660.036C1625.59 655.304 1626.26 650.148 1626.26 644.568ZM1694.9 693.517C1689.72 693.517 1684.81 692.825 1680.16 691.442C1675.52 690.058 1671.44 687.915 1667.91 685.013C1664.43 682.067 1661.66 678.362 1659.61 673.897C1657.55 669.389 1656.53 664.054 1656.53 657.893V597.828H1669.32V656.822C1669.32 661.599 1669.94 665.661 1671.19 669.009C1672.49 672.313 1674.27 675.013 1676.55 677.112C1678.83 679.21 1681.5 680.75 1684.58 681.732C1687.71 682.669 1691.12 683.138 1694.83 683.138C1698.49 683.138 1701.95 682.647 1705.21 681.665C1708.47 680.683 1711.32 679.12 1713.78 676.978C1716.24 674.835 1718.15 672.045 1719.54 668.607C1720.97 665.125 1721.68 660.907 1721.68 655.951V597.828H1734.4V656.688C1734.4 662.983 1733.36 668.451 1731.26 673.094C1729.2 677.692 1726.39 681.509 1722.82 684.544C1719.25 687.58 1715.05 689.834 1710.23 691.308C1705.45 692.781 1700.34 693.517 1694.9 693.517ZM1817.5 692.178L1767.02 611.823C1767.1 614.011 1767.22 616.176 1767.35 618.318C1767.44 620.149 1767.51 622.091 1767.55 624.144C1767.64 626.153 1767.68 627.939 1767.68 629.501V692.178H1756.3V597.828H1771.17L1822.19 678.719C1822.06 676.531 1821.92 674.344 1821.79 672.156C1821.7 670.281 1821.61 668.25 1821.52 666.063C1821.43 663.831 1821.39 661.71 1821.39 659.701V597.828H1832.91V692.178H1817.5ZM1936.63 644.032C1936.63 651.889 1935.45 658.831 1933.08 664.857C1930.72 670.839 1927.48 675.862 1923.37 679.924C1919.27 683.942 1914.4 687 1908.77 689.098C1903.19 691.151 1897.17 692.178 1890.69 692.178H1855.41V597.828H1886.61C1893.89 597.828 1900.58 598.743 1906.7 600.573C1912.86 602.359 1918.15 605.149 1922.57 608.944C1926.99 612.694 1930.43 617.47 1932.88 623.274C1935.38 629.077 1936.63 635.997 1936.63 644.032ZM1923.77 644.032C1923.77 637.648 1922.86 632.202 1921.03 627.693C1919.2 623.14 1916.63 619.412 1913.33 616.511C1910.02 613.609 1906.07 611.488 1901.48 610.149C1896.88 608.765 1891.83 608.073 1886.34 608.073H1868.2V681.933H1889.22C1894.18 681.933 1898.75 681.129 1902.95 679.522C1907.19 677.915 1910.85 675.527 1913.93 672.357C1917.01 669.188 1919.42 665.237 1921.16 660.505C1922.9 655.773 1923.77 650.282 1923.77 644.032ZM1969.04 677.513V688.763C1969.04 691.129 1968.93 693.272 1968.71 695.191C1968.53 697.156 1968.22 698.964 1967.77 700.615C1967.32 702.312 1966.76 703.897 1966.09 705.37C1965.47 706.843 1964.71 708.294 1963.82 709.722H1955.58C1957.59 706.821 1959.13 703.897 1960.2 700.95C1961.32 698.004 1961.88 695.08 1961.88 692.178H1955.98V677.513H1969.04ZM2089.84 666.13C2089.84 670.46 2089.13 674.321 2087.7 677.714C2086.31 681.107 2084.26 683.986 2081.54 686.352C2078.86 688.674 2075.51 690.459 2071.49 691.709C2067.52 692.915 2062.97 693.517 2057.83 693.517C2051.99 693.517 2047.05 692.803 2043.03 691.375C2039.06 689.901 2035.78 687.982 2033.19 685.616C2030.6 683.205 2028.66 680.482 2027.37 677.446C2026.07 674.366 2025.22 671.197 2024.82 667.938L2037.28 666.799C2037.63 669.299 2038.28 671.576 2039.22 673.63C2040.2 675.683 2041.52 677.446 2043.17 678.92C2044.82 680.393 2046.85 681.531 2049.26 682.335C2051.67 683.138 2054.53 683.54 2057.83 683.54C2063.9 683.54 2068.66 682.044 2072.1 679.054C2075.58 676.063 2077.32 671.621 2077.32 665.728C2077.32 662.246 2076.54 659.456 2074.98 657.358C2073.46 655.215 2071.54 653.563 2069.22 652.402C2066.94 651.197 2064.44 650.394 2061.72 649.992C2059.04 649.59 2056.56 649.389 2054.28 649.389H2047.45V638.943H2054.02C2056.29 638.943 2058.66 638.72 2061.11 638.273C2063.57 637.782 2065.8 636.934 2067.81 635.729C2069.86 634.479 2071.54 632.805 2072.83 630.707C2074.17 628.608 2074.84 625.93 2074.84 622.671C2074.84 617.627 2073.35 613.653 2070.36 610.752C2067.41 607.805 2063.01 606.332 2057.16 606.332C2051.85 606.332 2047.54 607.694 2044.24 610.417C2040.98 613.14 2039.08 616.979 2038.55 621.934L2026.43 620.997C2026.92 616.845 2028.06 613.229 2029.84 610.149C2031.63 607.069 2033.88 604.524 2036.61 602.515C2039.37 600.462 2042.52 598.944 2046.05 597.962C2049.57 596.935 2053.32 596.422 2057.3 596.422C2062.57 596.422 2067.1 597.091 2070.89 598.431C2074.69 599.725 2077.79 601.511 2080.2 603.788C2082.61 606.02 2084.37 608.654 2085.49 611.689C2086.65 614.725 2087.23 617.961 2087.23 621.399C2087.23 624.167 2086.85 626.756 2086.09 629.166C2085.33 631.577 2084.15 633.742 2082.54 635.662C2080.94 637.581 2078.88 639.233 2076.38 640.617C2073.93 642.001 2070.96 643.05 2067.48 643.764V644.032C2071.27 644.434 2074.57 645.304 2077.39 646.644C2080.2 647.938 2082.52 649.568 2084.35 651.532C2086.18 653.496 2087.54 655.728 2088.44 658.228C2089.37 660.728 2089.84 663.362 2089.84 666.13ZM2188.41 644.032C2188.41 651.889 2187.23 658.831 2184.86 664.857C2182.5 670.839 2179.26 675.862 2175.15 679.924C2171.04 683.942 2166.18 687 2160.55 689.098C2154.97 691.151 2148.95 692.178 2142.47 692.178H2107.18V597.828H2138.39C2145.67 597.828 2152.36 598.743 2158.48 600.573C2164.64 602.359 2169.93 605.149 2174.35 608.944C2178.77 612.694 2182.21 617.47 2184.66 623.274C2187.16 629.077 2188.41 635.997 2188.41 644.032ZM2175.55 644.032C2175.55 637.648 2174.64 632.202 2172.81 627.693C2170.98 623.14 2168.41 619.412 2165.11 616.511C2161.8 613.609 2157.85 611.488 2153.25 610.149C2148.66 608.765 2143.61 608.073 2138.12 608.073H2119.97V681.933H2141C2145.96 681.933 2150.53 681.129 2154.73 679.522C2158.97 677.915 2162.63 675.527 2165.71 672.357C2168.79 669.188 2171.2 665.237 2172.94 660.505C2174.68 655.773 2175.55 650.282 2175.55 644.032ZM2324.68 692.178V629.233C2324.68 626.957 2324.7 624.635 2324.75 622.269C2324.79 619.903 2324.86 617.738 2324.95 615.774C2325.04 613.497 2325.15 611.287 2325.28 609.145C2324.66 611.421 2324.01 613.676 2323.34 615.908C2322.76 617.827 2322.11 619.881 2321.4 622.068C2320.73 624.211 2320.06 626.153 2319.39 627.894L2295.01 692.178H2286.04L2261.33 627.894C2261.06 627.225 2260.77 626.443 2260.46 625.55C2260.19 624.658 2259.88 623.72 2259.52 622.738C2259.21 621.711 2258.88 620.685 2258.52 619.658C2258.21 618.586 2257.9 617.537 2257.58 616.511C2256.82 614.144 2256.09 611.689 2255.37 609.145C2255.42 611.645 2255.48 614.122 2255.57 616.577C2255.66 618.676 2255.73 620.885 2255.77 623.207C2255.82 625.483 2255.84 627.492 2255.84 629.233V692.178H2244.46V597.828H2261.27L2286.38 663.25C2286.69 664.143 2287.07 665.304 2287.51 666.732C2287.96 668.116 2288.39 669.545 2288.79 671.018C2289.19 672.491 2289.55 673.897 2289.86 675.237C2290.22 676.531 2290.46 677.536 2290.6 678.25C2290.73 677.536 2290.97 676.509 2291.33 675.17C2291.69 673.83 2292.09 672.424 2292.54 670.951C2293.03 669.478 2293.5 668.049 2293.94 666.665C2294.39 665.282 2294.79 664.143 2295.15 663.25L2319.79 597.828H2336.2V692.178H2324.68ZM2425.59 692.178L2414.81 664.59H2371.82L2360.97 692.178H2347.71L2386.22 597.828H2400.75L2438.65 692.178H2425.59ZM2398.87 623.475C2398.16 621.689 2397.47 619.881 2396.8 618.051C2396.17 616.22 2395.61 614.569 2395.12 613.095C2394.63 611.578 2394.21 610.328 2393.85 609.346C2393.54 608.319 2393.36 607.694 2393.32 607.471C2393.23 607.694 2393.03 608.319 2392.71 609.346C2392.4 610.372 2391.98 611.645 2391.44 613.162C2390.95 614.68 2390.37 616.354 2389.7 618.185C2389.07 620.015 2388.43 621.823 2387.76 623.609L2375.7 654.612H2410.99L2398.87 623.475ZM2523.16 626.22C2523.16 630.327 2522.46 634.166 2521.08 637.738C2519.74 641.264 2517.71 644.345 2514.99 646.978C2512.31 649.568 2508.94 651.621 2504.88 653.139C2500.81 654.657 2496.08 655.416 2490.68 655.416H2462.96V692.178H2450.17V597.828H2489.88C2495.46 597.828 2500.32 598.52 2504.47 599.904C2508.63 601.243 2512.08 603.163 2514.85 605.663C2517.62 608.118 2519.7 611.109 2521.08 614.636C2522.46 618.118 2523.16 621.979 2523.16 626.22ZM2510.3 626.354C2510.3 620.372 2508.47 615.841 2504.81 612.761C2501.15 609.636 2495.66 608.073 2488.34 608.073H2462.96V645.304H2488.87C2496.24 645.304 2501.64 643.675 2505.08 640.416C2508.56 637.157 2510.3 632.47 2510.3 626.354ZM2615.56 666.13C2615.56 670.103 2614.78 673.763 2613.22 677.112C2611.7 680.46 2609.34 683.361 2606.12 685.817C2602.91 688.227 2598.85 690.125 2593.94 691.509C2589.07 692.848 2583.29 693.517 2576.59 693.517C2564.85 693.517 2555.7 691.464 2549.14 687.357C2542.58 683.25 2538.4 677.312 2536.62 669.545L2549 667.067C2549.63 669.523 2550.59 671.755 2551.88 673.763C2553.18 675.772 2554.92 677.513 2557.11 678.987C2559.34 680.415 2562.08 681.531 2565.34 682.335C2568.6 683.138 2572.51 683.54 2577.06 683.54C2580.86 683.54 2584.34 683.228 2587.51 682.603C2590.68 681.933 2593.4 680.928 2595.68 679.589C2597.95 678.25 2599.72 676.531 2600.97 674.433C2602.26 672.29 2602.91 669.746 2602.91 666.799C2602.91 663.719 2602.19 661.219 2600.77 659.3C2599.38 657.38 2597.42 655.795 2594.87 654.545C2592.33 653.295 2589.29 652.246 2585.77 651.398C2582.24 650.55 2578.33 649.635 2574.05 648.653C2571.41 648.072 2568.76 647.447 2566.08 646.778C2563.45 646.063 2560.9 645.237 2558.45 644.3C2556.03 643.318 2553.76 642.179 2551.62 640.885C2549.47 639.59 2547.62 638.05 2546.06 636.264C2544.49 634.434 2543.27 632.336 2542.37 629.97C2541.48 627.559 2541.03 624.792 2541.03 621.667C2541.03 617.202 2541.93 613.386 2543.71 610.216C2545.54 607.002 2548.07 604.368 2551.28 602.314C2554.49 600.261 2558.29 598.765 2562.66 597.828C2567.04 596.89 2571.77 596.422 2576.86 596.422C2582.71 596.422 2587.71 596.89 2591.86 597.828C2596.01 598.721 2599.52 600.082 2602.37 601.913C2605.23 603.743 2607.51 606.02 2609.2 608.743C2610.94 611.421 2612.33 614.546 2613.35 618.118L2600.77 620.327C2600.14 618.051 2599.23 616.019 2598.02 614.234C2596.86 612.448 2595.32 610.953 2593.4 609.747C2591.48 608.542 2589.14 607.627 2586.37 607.002C2583.65 606.377 2580.43 606.064 2576.73 606.064C2572.35 606.064 2568.67 606.466 2565.68 607.27C2562.73 608.029 2560.34 609.078 2558.51 610.417C2556.73 611.756 2555.43 613.341 2554.63 615.171C2553.87 616.957 2553.49 618.899 2553.49 620.997C2553.49 623.809 2554.18 626.131 2555.57 627.961C2556.99 629.747 2558.91 631.242 2561.32 632.448C2563.74 633.653 2566.53 634.657 2569.69 635.461C2572.86 636.264 2576.23 637.068 2579.81 637.872C2582.71 638.541 2585.59 639.233 2588.44 639.947C2591.35 640.617 2594.11 641.443 2596.75 642.425C2599.38 643.362 2601.84 644.479 2604.11 645.773C2606.44 647.068 2608.44 648.653 2610.14 650.527C2611.84 652.402 2613.15 654.612 2614.09 657.157C2615.07 659.701 2615.56 662.692 2615.56 666.13ZM2730.54 692.178L2719.76 664.59H2676.77L2665.92 692.178H2652.66L2691.16 597.828H2705.7L2743.6 692.178H2730.54ZM2703.82 623.475C2703.11 621.689 2702.41 619.881 2701.75 618.051C2701.12 616.22 2700.56 614.569 2700.07 613.095C2699.58 611.578 2699.16 610.328 2698.8 609.346C2698.49 608.319 2698.31 607.694 2698.26 607.471C2698.17 607.694 2697.97 608.319 2697.66 609.346C2697.35 610.372 2696.92 611.645 2696.39 613.162C2695.9 614.68 2695.32 616.354 2694.65 618.185C2694.02 620.015 2693.37 621.823 2692.71 623.609L2680.65 654.612H2715.94L2703.82 623.475ZM2816.32 692.178L2765.83 611.823C2765.92 614.011 2766.03 616.176 2766.16 618.318C2766.25 620.149 2766.32 622.091 2766.36 624.144C2766.45 626.153 2766.5 627.939 2766.5 629.501V692.178H2755.11V597.828H2769.98L2821.01 678.719C2820.87 676.531 2820.74 674.344 2820.6 672.156C2820.51 670.281 2820.42 668.25 2820.34 666.063C2820.25 663.831 2820.2 661.71 2820.2 659.701V597.828H2831.72V692.178H2816.32ZM2935.44 644.032C2935.44 651.889 2934.26 658.831 2931.9 664.857C2929.53 670.839 2926.29 675.862 2922.19 679.924C2918.08 683.942 2913.21 687 2907.59 689.098C2902.01 691.151 2895.98 692.178 2889.51 692.178H2854.22V597.828H2885.42C2892.7 597.828 2899.4 598.743 2905.51 600.573C2911.67 602.359 2916.96 605.149 2921.38 608.944C2925.8 612.694 2929.24 617.47 2931.69 623.274C2934.19 629.077 2935.44 635.997 2935.44 644.032ZM2922.59 644.032C2922.59 637.648 2921.67 632.202 2919.84 627.693C2918.01 623.14 2915.44 619.412 2912.14 616.511C2908.84 613.609 2904.89 611.488 2900.29 610.149C2895.69 608.765 2890.65 608.073 2885.16 608.073H2867.01V681.933H2888.03C2892.99 681.933 2897.57 681.129 2901.76 679.522C2906 677.915 2909.66 675.527 2912.74 672.357C2915.82 669.188 2918.23 665.237 2919.98 660.505C2921.72 655.773 2922.59 650.282 2922.59 644.032ZM3072.72 644.032C3072.72 651.889 3071.53 658.831 3069.17 664.857C3066.8 670.839 3063.57 675.862 3059.46 679.924C3055.35 683.942 3050.49 687 3044.86 689.098C3039.28 691.151 3033.25 692.178 3026.78 692.178H2991.49V597.828H3022.7C3029.97 597.828 3036.67 598.743 3042.79 600.573C3048.95 602.359 3054.24 605.149 3058.66 608.944C3063.07 612.694 3066.51 617.47 3068.97 623.274C3071.47 629.077 3072.72 635.997 3072.72 644.032ZM3059.86 644.032C3059.86 637.648 3058.95 632.202 3057.12 627.693C3055.28 623.14 3052.72 619.412 3049.41 616.511C3046.11 613.609 3042.16 611.488 3037.56 610.149C3032.96 608.765 3027.92 608.073 3022.43 608.073H3004.28V681.933H3025.31C3030.26 681.933 3034.84 681.129 3039.04 679.522C3043.28 677.915 3046.94 675.527 3050.02 672.357C3053.1 669.188 3055.51 665.237 3057.25 660.505C3058.99 655.773 3059.86 650.282 3059.86 644.032ZM3157.49 692.178L3146.71 664.59H3103.72L3092.87 692.178H3079.61L3118.12 597.828H3132.65L3170.55 692.178H3157.49ZM3130.77 623.475C3130.06 621.689 3129.37 619.881 3128.7 618.051C3128.07 616.22 3127.52 614.569 3127.02 613.095C3126.53 611.578 3126.11 610.328 3125.75 609.346C3125.44 608.319 3125.26 607.694 3125.22 607.471C3125.13 607.694 3124.93 608.319 3124.61 609.346C3124.3 610.372 3123.88 611.645 3123.34 613.162C3122.85 614.68 3122.27 616.354 3121.6 618.185C3120.98 620.015 3120.33 621.823 3119.66 623.609L3107.6 654.612H3142.89L3130.77 623.475ZM3208.85 608.274V692.178H3196.13V608.274H3163.72V597.828H3241.26V608.274H3208.85ZM3312.44 692.178L3301.66 664.59H3258.67L3247.82 692.178H3234.57L3273.07 597.828H3287.6L3325.5 692.178H3312.44ZM3285.73 623.475C3285.01 621.689 3284.32 619.881 3283.65 618.051C3283.02 616.22 3282.47 614.569 3281.98 613.095C3281.48 611.578 3281.06 610.328 3280.7 609.346C3280.39 608.319 3280.21 607.694 3280.17 607.471C3280.08 607.694 3279.88 608.319 3279.56 609.346C3279.25 610.372 3278.83 611.645 3278.29 613.162C3277.8 614.68 3277.22 616.354 3276.55 618.185C3275.93 620.015 3275.28 621.823 3274.61 623.609L3262.56 654.612H3297.85L3285.73 623.475ZM3408.67 692.178H3395.41L3356.91 597.828H3370.37L3396.48 664.255C3397.15 666.264 3397.82 668.273 3398.49 670.281C3399.16 672.246 3399.76 674.009 3400.3 675.571C3400.92 677.402 3401.53 679.187 3402.11 680.928C3402.64 679.277 3403.22 677.536 3403.85 675.705C3404.38 674.143 3404.96 672.38 3405.59 670.415C3406.26 668.451 3406.97 666.398 3407.73 664.255L3433.71 597.828H3447.17L3408.67 692.178ZM3460.43 692.178V597.828H3473.22V692.178H3460.43ZM3571.12 666.13C3571.12 670.103 3570.34 673.763 3568.78 677.112C3567.26 680.46 3564.89 683.361 3561.68 685.817C3558.46 688.227 3554.4 690.125 3549.49 691.509C3544.62 692.848 3538.84 693.517 3532.15 693.517C3520.41 693.517 3511.25 691.464 3504.69 687.357C3498.13 683.25 3493.96 677.312 3492.17 669.545L3504.56 667.067C3505.18 669.523 3506.14 671.755 3507.44 673.763C3508.73 675.772 3510.47 677.513 3512.66 678.987C3514.89 680.415 3517.64 681.531 3520.9 682.335C3524.16 683.138 3528.06 683.54 3532.62 683.54C3536.41 683.54 3539.89 683.228 3543.06 682.603C3546.23 681.933 3548.95 680.928 3551.23 679.589C3553.51 678.25 3555.27 676.531 3556.52 674.433C3557.82 672.29 3558.46 669.746 3558.46 666.799C3558.46 663.719 3557.75 661.219 3556.32 659.3C3554.94 657.38 3552.97 655.795 3550.43 654.545C3547.88 653.295 3544.85 652.246 3541.32 651.398C3537.79 650.55 3533.89 649.635 3529.6 648.653C3526.97 648.072 3524.31 647.447 3521.63 646.778C3519 646.063 3516.46 645.237 3514 644.3C3511.59 643.318 3509.31 642.179 3507.17 640.885C3505.03 639.59 3503.17 638.05 3501.61 636.264C3500.05 634.434 3498.82 632.336 3497.93 629.97C3497.04 627.559 3496.59 624.792 3496.59 621.667C3496.59 617.202 3497.48 613.386 3499.27 610.216C3501.1 607.002 3503.62 604.368 3506.84 602.314C3510.05 600.261 3513.84 598.765 3518.22 597.828C3522.59 596.89 3527.33 596.422 3532.42 596.422C3538.26 596.422 3543.26 596.89 3547.41 597.828C3551.57 598.721 3555.07 600.082 3557.93 601.913C3560.78 603.743 3563.06 606.02 3564.76 608.743C3566.5 611.421 3567.88 614.546 3568.91 618.118L3556.32 620.327C3555.7 618.051 3554.78 616.019 3553.58 614.234C3552.41 612.448 3550.87 610.953 3548.95 609.747C3547.04 608.542 3544.69 607.627 3541.92 607.002C3539.2 606.377 3535.99 606.064 3532.28 606.064C3527.91 606.064 3524.22 606.466 3521.23 607.27C3518.29 608.029 3515.9 609.078 3514.07 610.417C3512.28 611.756 3510.99 613.341 3510.18 615.171C3509.42 616.957 3509.05 618.899 3509.05 620.997C3509.05 623.809 3509.74 626.131 3511.12 627.961C3512.55 629.747 3514.47 631.242 3516.88 632.448C3519.29 633.653 3522.08 634.657 3525.25 635.461C3528.42 636.264 3531.79 637.068 3535.36 637.872C3538.26 638.541 3541.14 639.233 3544 639.947C3546.9 640.617 3549.67 641.443 3552.3 642.425C3554.94 643.362 3557.39 644.479 3559.67 645.773C3561.99 647.068 3564 648.653 3565.7 650.527C3567.39 652.402 3568.71 654.612 3569.65 657.157C3570.63 659.701 3571.12 662.692 3571.12 666.13ZM3626.36 693.517C3621.19 693.517 3616.27 692.825 3611.63 691.442C3606.99 690.058 3602.9 687.915 3599.38 685.013C3595.9 682.067 3593.13 678.362 3591.07 673.897C3589.02 669.389 3587.99 664.054 3587.99 657.893V597.828H3600.78V656.822C3600.78 661.599 3601.41 665.661 3602.66 669.009C3603.95 672.313 3605.74 675.013 3608.02 677.112C3610.29 679.21 3612.97 680.75 3616.05 681.732C3619.18 682.669 3622.59 683.138 3626.3 683.138C3629.96 683.138 3633.42 682.647 3636.68 681.665C3639.93 680.683 3642.79 679.12 3645.25 676.978C3647.7 674.835 3649.62 672.045 3651.01 668.607C3652.43 665.125 3653.15 660.907 3653.15 655.951V597.828H3665.87V656.688C3665.87 662.983 3664.82 668.451 3662.72 673.094C3660.67 677.692 3657.86 681.509 3654.29 684.544C3650.72 687.58 3646.52 689.834 3641.7 691.308C3636.92 692.781 3631.81 693.517 3626.36 693.517ZM3754.66 692.178L3743.88 664.59H3700.89L3690.04 692.178H3676.79L3715.29 597.828H3729.82L3767.72 692.178H3754.66ZM3727.95 623.475C3727.23 621.689 3726.54 619.881 3725.87 618.051C3725.24 616.22 3724.69 614.569 3724.2 613.095C3723.7 611.578 3723.28 610.328 3722.92 609.346C3722.61 608.319 3722.43 607.694 3722.39 607.471C3722.3 607.694 3722.1 608.319 3721.79 609.346C3721.47 610.372 3721.05 611.645 3720.51 613.162C3720.02 614.68 3719.44 616.354 3718.77 618.185C3718.15 620.015 3717.5 621.823 3716.83 623.609L3704.78 654.612H3740.07L3727.95 623.475ZM3779.24 692.178V597.828H3792.03V681.732H3839.71V692.178H3779.24ZM3856.98 692.178V597.828H3869.77V692.178H3856.98ZM3961.98 692.178H3886.85V682.603L3944.3 608.274H3891.74V597.828H3958.83V607.136L3901.38 681.732H3961.98V692.178ZM4044.48 692.178L4033.7 664.59H3990.71L3979.86 692.178H3966.6L4005.1 597.828H4019.63L4057.54 692.178H4044.48ZM4017.76 623.475C4017.05 621.689 4016.35 619.881 4015.68 618.051C4015.06 616.22 4014.5 614.569 4014.01 613.095C4013.52 611.578 4013.09 610.328 4012.74 609.346C4012.42 608.319 4012.25 607.694 4012.2 607.471C4012.11 607.694 4011.91 608.319 4011.6 609.346C4011.29 610.372 4010.86 611.645 4010.33 613.162C4009.84 614.68 4009.26 616.354 4008.59 618.185C4007.96 620.015 4007.31 621.823 4006.64 623.609L3994.59 654.612H4029.88L4017.76 623.475ZM4095.84 608.274V692.178H4083.11V608.274H4050.71V597.828H4128.25V608.274H4095.84ZM4144.12 692.178V597.828H4156.91V692.178H4144.12ZM4269.74 644.568C4269.74 651.934 4268.67 658.63 4266.53 664.657C4264.43 670.683 4261.37 675.839 4257.35 680.125C4253.33 684.411 4248.42 687.714 4242.62 690.035C4236.82 692.357 4230.23 693.517 4222.87 693.517C4215.1 693.517 4208.29 692.312 4202.44 689.901C4196.59 687.446 4191.73 684.053 4187.84 679.723C4183.96 675.348 4181.04 670.17 4179.07 664.188C4177.11 658.206 4176.13 651.666 4176.13 644.568C4176.13 637.202 4177.15 630.55 4179.21 624.613C4181.26 618.676 4184.27 613.631 4188.25 609.479C4192.22 605.283 4197.11 602.069 4202.91 599.837C4208.76 597.56 4215.46 596.422 4223 596.422C4230.5 596.422 4237.15 597.56 4242.95 599.837C4248.8 602.114 4253.69 605.35 4257.62 609.546C4261.59 613.743 4264.61 618.81 4266.66 624.747C4268.71 630.684 4269.74 637.291 4269.74 644.568ZM4256.68 644.568C4256.68 638.898 4255.95 633.742 4254.47 629.099C4253.04 624.457 4250.9 620.484 4248.04 617.18C4245.23 613.877 4241.73 611.332 4237.53 609.546C4233.33 607.761 4228.49 606.868 4223 606.868C4217.37 606.868 4212.44 607.761 4208.2 609.546C4203.96 611.332 4200.41 613.877 4197.55 617.18C4194.74 620.484 4192.62 624.457 4191.19 629.099C4189.81 633.742 4189.12 638.898 4189.12 644.568C4189.12 650.237 4189.83 655.438 4191.26 660.17C4192.73 664.857 4194.88 668.92 4197.69 672.357C4200.54 675.75 4204.07 678.406 4208.27 680.326C4212.51 682.201 4217.37 683.138 4222.87 683.138C4228.76 683.138 4233.83 682.178 4238.07 680.259C4242.35 678.339 4245.86 675.683 4248.58 672.29C4251.35 668.853 4253.38 664.768 4254.67 660.036C4256.01 655.304 4256.68 650.148 4256.68 644.568ZM4348.82 692.178L4298.33 611.823C4298.42 614.011 4298.53 616.176 4298.67 618.318C4298.76 620.149 4298.82 622.091 4298.87 624.144C4298.96 626.153 4299 627.939 4299 629.501V692.178H4287.62V597.828H4302.48L4353.51 678.719C4353.38 676.531 4353.24 674.344 4353.11 672.156C4353.02 670.281 4352.93 668.25 4352.84 666.063C4352.75 663.831 4352.71 661.71 4352.71 659.701V597.828H4364.22V692.178H4348.82ZM4460.65 666.13C4460.65 670.103 4459.87 673.763 4458.31 677.112C4456.79 680.46 4454.42 683.361 4451.21 685.817C4447.99 688.227 4443.93 690.125 4439.02 691.509C4434.15 692.848 4428.37 693.517 4421.68 693.517C4409.94 693.517 4400.79 691.464 4394.22 687.357C4387.66 683.25 4383.49 677.312 4381.7 669.545L4394.09 667.067C4394.71 669.523 4395.67 671.755 4396.97 673.763C4398.26 675.772 4400 677.513 4402.19 678.987C4404.42 680.415 4407.17 681.531 4410.43 682.335C4413.69 683.138 4417.59 683.54 4422.15 683.54C4425.94 683.54 4429.42 683.228 4432.59 682.603C4435.76 681.933 4438.49 680.928 4440.76 679.589C4443.04 678.25 4444.8 676.531 4446.05 674.433C4447.35 672.29 4447.99 669.746 4447.99 666.799C4447.99 663.719 4447.28 661.219 4445.85 659.3C4444.47 657.38 4442.5 655.795 4439.96 654.545C4437.41 653.295 4434.38 652.246 4430.85 651.398C4427.32 650.55 4423.42 649.635 4419.13 648.653C4416.5 648.072 4413.84 647.447 4411.16 646.778C4408.53 646.063 4405.99 645.237 4403.53 644.3C4401.12 643.318 4398.84 642.179 4396.7 640.885C4394.56 639.59 4392.71 638.05 4391.14 636.264C4389.58 634.434 4388.35 632.336 4387.46 629.97C4386.57 627.559 4386.12 624.792 4386.12 621.667C4386.12 617.202 4387.01 613.386 4388.8 610.216C4390.63 607.002 4393.15 604.368 4396.37 602.314C4399.58 600.261 4403.37 598.765 4407.75 597.828C4412.12 596.89 4416.86 596.422 4421.95 596.422C4427.79 596.422 4432.79 596.89 4436.94 597.828C4441.1 598.721 4444.6 600.082 4447.46 601.913C4450.32 603.743 4452.59 606.02 4454.29 608.743C4456.03 611.421 4457.41 614.546 4458.44 618.118L4445.85 620.327C4445.23 618.051 4444.31 616.019 4443.11 614.234C4441.94 612.448 4440.4 610.953 4438.49 609.747C4436.57 608.542 4434.22 607.627 4431.45 607.002C4428.73 606.377 4425.52 606.064 4421.81 606.064C4417.44 606.064 4413.75 606.466 4410.76 607.27C4407.82 608.029 4405.43 609.078 4403.6 610.417C4401.81 611.756 4400.52 613.341 4399.71 615.171C4398.95 616.957 4398.58 618.899 4398.58 620.997C4398.58 623.809 4399.27 626.131 4400.65 627.961C4402.08 629.747 4404 631.242 4406.41 632.448C4408.82 633.653 4411.61 634.657 4414.78 635.461C4417.95 636.264 4421.32 637.068 4424.89 637.872C4427.79 638.541 4430.67 639.233 4433.53 639.947C4436.43 640.617 4439.2 641.443 4441.83 642.425C4444.47 643.362 4446.92 644.479 4449.2 645.773C4451.52 647.068 4453.53 648.653 4455.23 650.527C4456.92 652.402 4458.24 654.612 4459.18 657.157C4460.16 659.701 4460.65 662.692 4460.65 666.13Z" fill="#024D5F"/>
</svg>
