<svg width="512" height="512" viewBox="0 0 512 512" fill="none" xmlns="http://www.w3.org/2000/svg">
<path d="M512 0H0V512H512V0Z" fill="#B4C3F3"/>
<path d="M275.03 361.305C359.913 361.305 428.724 294.446 428.724 211.972C428.724 129.497 359.913 62.6383 275.03 62.6383C190.148 62.6383 121.337 129.497 121.337 211.972C121.337 294.446 190.148 361.305 275.03 361.305Z" fill="#FF952F" stroke="black" stroke-width="0.833333"/>
<path d="M160.177 448.377L266.815 268.914L373.454 448.377H160.177Z" fill="#288CA3" stroke="black" stroke-width="0.833333"/>
<path d="M35.4043 448.902L165.401 230.128L295.398 448.902H35.4043Z" fill="#288CA3" stroke="black" stroke-width="0.833333"/>
<path d="M397.313 143.259H450.384L476.919 187.915L450.384 232.572H397.313L370.777 187.915L397.313 143.259Z" fill="white" stroke="black" stroke-width="0.833333"/>
<path d="M314.834 129.378H384.401L419.184 187.915L384.401 246.452H314.834L280.052 187.915L314.834 129.378Z" fill="white" stroke="black" stroke-width="0.833333"/>
<path d="M248.853 143.259H301.924L328.459 187.915L301.924 232.572H248.853L222.317 187.915L248.853 143.259Z" fill="white" stroke="black" stroke-width="0.833333"/>
</svg>
