<svg width="548" height="564" viewBox="0 0 548 564" fill="none" xmlns="http://www.w3.org/2000/svg">
<rect width="548" height="548" fill="#D3DCF8"/>
<circle cx="297" cy="221" r="164.5" fill="#FFCB99" stroke="black"/>
<path d="M174.07 481.416L288.206 283.725L402.343 481.416H174.07Z" fill="#ADDFEB" stroke="black"/>
<path d="M40.5246 481.993L179.662 241L318.799 481.993H40.5246Z" fill="#ADDFEB" stroke="black"/>
<path d="M427.879 145.308L484.682 145.308L513.083 194.5L484.682 243.692L427.879 243.692L399.478 194.5L427.879 145.308Z" fill="white" stroke="black"/>
<path d="M339.602 130.018L414.06 130.018L451.289 194.5L414.06 258.982L339.602 258.982L302.374 194.5L339.602 130.018Z" fill="white" stroke="black"/>
<path d="M268.981 145.308L325.784 145.308L354.185 194.5L325.784 243.692L268.981 243.692L240.58 194.5L268.981 145.308Z" fill="white" stroke="black"/>
</svg>
